<svg width="19" height="19" viewBox="0 0 19 19" fill="none" xmlns="http://www.w3.org/2000/svg">
<g clip-path="url(#clip0_177_1171)">
<path d="M18.7395 5.59561C18.5151 5.40402 18.1984 5.36364 17.9329 5.49286L13.8715 7.47004L10.0607 3.07622C9.91975 2.91368 9.71517 2.82031 9.50001 2.82031C9.28485 2.82031 9.0803 2.91368 8.93932 3.07622L5.12849 7.47001L1.06709 5.49282C0.801645 5.36364 0.484953 5.40398 0.260442 5.59557C0.03593 5.78717 -0.0537262 6.09362 0.0321078 6.37602L2.85242 15.6534C2.94746 15.966 3.23576 16.1797 3.56251 16.1797H15.4375C15.7642 16.1797 16.0526 15.966 16.1476 15.6534L18.9679 6.37606C19.0537 6.09366 18.9641 5.78721 18.7395 5.59561ZM14.8874 14.6953H4.11258L1.94721 7.57224L4.991 9.05406C5.29322 9.20116 5.65637 9.12686 5.87654 8.87304L9.50001 4.69526L13.1235 8.87304C13.3436 9.1269 13.7069 9.20112 14.009 9.05406L17.0528 7.57224L14.8874 14.6953Z" fill="white"/>
</g>
<defs>
<clipPath id="clip0_177_1171">
<rect width="19" height="19" fill="white"/>
</clipPath>
</defs>
</svg>
