<svg width="95" height="95" viewBox="0 0 95 95" fill="none" xmlns="http://www.w3.org/2000/svg">
<path d="M62.7314 53.3855C62.2435 53.3855 61.7666 53.5822 61.4196 53.9291C61.0745 54.2743 60.876 54.753 60.876 55.241C60.876 55.729 61.0745 56.2077 61.4196 56.5528C61.7666 56.8977 62.2435 57.0964 62.7314 57.0964C63.2194 57.0964 63.6981 56.8979 64.0433 56.5528C64.3902 56.2077 64.5869 55.729 64.5869 55.241C64.5869 54.753 64.3902 54.2743 64.0433 53.9291C63.6981 53.582 63.2194 53.3855 62.7314 53.3855Z" fill="#3E1A79"/>
<path d="M47.5234 8.16406C34.6322 8.16406 24.1445 18.6517 24.1445 31.543V40.0252C24.1445 52.9165 34.6322 63.404 47.5234 63.404C50.6356 63.404 53.6606 62.7991 56.5143 61.6064C57.4598 61.2112 57.9059 60.1242 57.5105 59.1789C57.1153 58.2331 56.0283 57.7875 55.083 58.1825C52.6852 59.1848 50.1419 59.6932 47.5234 59.6932C42.4435 59.6932 37.8073 57.7572 34.3134 54.5844L46.7371 42.1605C47.4617 41.436 47.4617 40.2611 46.7371 39.5363C46.0125 38.812 44.8376 38.812 44.1129 39.5363L31.8095 51.8399C30.1119 49.5878 28.8871 46.9606 28.2824 44.1071L57.6821 14.7076C59.9786 16.0984 61.969 17.9457 63.527 20.1227L51.1717 32.4779C50.4471 33.2025 50.4469 34.3774 51.1717 35.1021C51.534 35.4643 52.0088 35.6456 52.4837 35.6456C52.9585 35.6456 53.4335 35.4643 53.7957 35.1021L65.4484 23.4496C66.568 25.9194 67.1916 28.6598 67.1916 31.543V40.0252C67.1916 42.6466 66.6821 45.1929 65.6773 47.593C65.2818 48.5383 65.7273 49.6253 66.6724 50.021C67.6178 50.417 68.7047 49.9711 69.1005 49.0259C70.2962 46.1694 70.9023 43.1413 70.9023 40.0252V31.543C70.9023 18.6517 60.4147 8.16406 47.5234 8.16406ZM27.8555 39.2858V31.543C27.8555 20.6981 36.6784 11.875 47.5234 11.875C49.8385 11.875 52.0606 12.2782 54.1252 13.0161L27.8555 39.2858Z" fill="#3E1A79"/>
<path d="M79.0664 31.543C79.0664 14.1502 64.9162 0 47.5234 0C30.1306 0 15.9805 14.1502 15.9805 31.543V40.0252C15.9805 53.3008 24.3722 65.2331 36.8621 69.7179C38.0977 70.1616 38.8487 71.4068 38.648 72.6785L37.0538 82.7749C36.5706 85.8344 37.4477 88.9397 39.4598 91.2944C41.4718 93.6494 44.4024 95 47.4999 95C50.5974 95 53.5279 93.6494 55.5402 91.2944C57.5522 88.9397 58.4293 85.8344 57.9462 82.7749L56.3545 72.6943C56.1536 71.4207 56.9062 70.1751 58.1441 69.7324C70.6585 65.2585 79.0666 53.32 79.0666 40.0252V31.543H79.0664ZM75.3555 40.0252C75.3555 51.7566 67.9367 62.2907 56.8947 66.2382C53.9786 67.2806 52.2098 70.2393 52.6889 73.273L54.2805 83.3536C54.5941 85.3395 54.0248 87.3551 52.7188 88.8838C51.4127 90.4124 49.5105 91.2891 47.4999 91.2891C45.4893 91.2891 43.5871 90.4124 42.281 88.8838C40.9749 87.3553 40.4057 85.3395 40.7192 83.3536L42.3135 73.2572C42.7918 70.2276 41.0265 67.2702 38.1162 66.2252C27.0958 62.2682 19.6916 51.7394 19.6916 40.0252V31.543C19.6916 16.1964 32.177 3.71094 47.5236 3.71094C62.8702 3.71094 75.3557 16.1964 75.3557 31.543V40.0252H75.3555Z" fill="#3E1A79"/>
<path d="M47.5 82.4756C47.012 82.4756 46.5333 82.6739 46.1882 83.0192C45.8431 83.3644 45.6445 83.8431 45.6445 84.3311C45.6445 84.819 45.8431 85.2978 46.1882 85.6427C46.5333 85.9878 47.012 86.1865 47.5 86.1865C47.988 86.1865 48.4667 85.988 48.8118 85.6427C49.1569 85.2978 49.3555 84.819 49.3555 84.3311C49.3555 83.8431 49.1569 83.3644 48.8118 83.0192C48.4667 82.6741 47.988 82.4756 47.5 82.4756Z" fill="#3E1A79"/>
<path d="M86.5361 62.6652C85.6783 62.6652 84.9804 61.9674 84.9804 61.1096C84.9804 60.085 84.1497 59.2542 83.125 59.2542C82.1002 59.2542 81.2695 60.085 81.2695 61.1096C81.2695 61.9674 80.5717 62.6652 79.7139 62.6652C78.6891 62.6652 77.8584 63.4961 77.8584 64.5207C77.8584 65.5453 78.6891 66.3762 79.7139 66.3762C80.5717 66.3762 81.2695 67.0742 81.2695 67.932C81.2695 68.9566 82.1002 69.7875 83.125 69.7875C84.1497 69.7875 84.9804 68.9566 84.9804 67.932C84.9804 67.0742 85.6783 66.3762 86.5361 66.3762C87.5608 66.3762 88.3915 65.5453 88.3915 64.5207C88.3915 63.4961 87.5608 62.6652 86.5361 62.6652Z" fill="#3E1A79"/>
<path d="M17.1415 5.26675C17.1415 4.24216 16.3108 3.41128 15.2861 3.41128C14.4283 3.41128 13.7304 2.71325 13.7304 1.85547C13.7304 0.830879 12.8997 0 11.875 0C10.8502 0 10.0195 0.830879 10.0195 1.85547C10.0195 2.71325 9.32165 3.41128 8.46387 3.41128C7.43909 3.41128 6.6084 4.24216 6.6084 5.26675C6.6084 6.29134 7.43909 7.12222 8.46387 7.12222C9.32165 7.12222 10.0195 7.82006 10.0195 8.67784C10.0195 9.70243 10.8502 10.5333 11.875 10.5333C12.8997 10.5333 13.7304 9.70243 13.7304 8.67784C13.7304 7.82006 14.4283 7.12222 15.2861 7.12222C16.3108 7.12222 17.1415 6.29134 17.1415 5.26675Z" fill="#3E1A79"/>
</svg>
