<svg width="95" height="91" viewBox="0 0 95 91" fill="none" xmlns="http://www.w3.org/2000/svg">
<g clip-path="url(#clip0_134_704)">
<path d="M17.7734 1.5625C16.7847 1.56365 15.8067 1.76735 14.8997 2.16105C13.9927 2.55474 13.1761 3.13007 12.5 3.85156C11.5093 2.79418 10.2235 2.05905 8.80974 1.74161C7.39594 1.42417 5.91936 1.53907 4.57168 2.0714C3.224 2.60373 2.06748 3.52891 1.25224 4.72682C0.437007 5.92474 0.000713398 7.34006 0 8.78906C0 15.9844 11.6055 23.0469 12.1094 23.3242C12.2309 23.3972 12.37 23.4358 12.5117 23.4358C12.6535 23.4358 12.7926 23.3972 12.9141 23.3242C13.3945 23.0469 25 15.9844 25 8.78906C24.9979 6.87309 24.2359 5.03619 22.8811 3.6814C21.5263 2.3266 19.6894 1.56457 17.7734 1.5625ZM12.5 21.7344C10.4805 20.4453 1.5625 14.4219 1.5625 8.78906C1.5635 7.58592 1.9476 6.41434 2.65912 5.44414C3.37064 4.47393 4.37263 3.7555 5.51986 3.39297C6.66708 3.03044 7.89995 3.04263 9.03978 3.42779C10.1796 3.81295 11.1672 4.55106 11.8594 5.53516C11.9315 5.63752 12.0272 5.72105 12.1383 5.77871C12.2495 5.83636 12.3728 5.86646 12.498 5.86646C12.6233 5.86646 12.7466 5.83636 12.8578 5.77871C12.9689 5.72105 13.0646 5.63752 13.1367 5.53516C13.8283 4.54937 14.8161 3.80967 15.9567 3.42342C17.0973 3.03718 18.3313 3.0245 19.4796 3.38723C20.6278 3.74995 21.6306 4.46921 22.3423 5.44057C23.0541 6.41194 23.4377 7.58486 23.4375 8.78906C23.4375 14.418 14.5195 20.4414 12.5 21.7344Z" fill="white"/>
</g>
<g clip-path="url(#clip1_134_704)">
<path d="M74.7656 25.375C71.9972 25.3782 69.2587 25.9486 66.7192 27.0509C64.1797 28.1533 61.8929 29.7642 60 31.7844C57.2259 28.8237 53.6259 26.7654 49.6673 25.8765C45.7086 24.9877 41.5742 25.3094 37.8007 26.7999C34.0272 28.2904 30.7889 30.8809 28.5063 34.2351C26.2236 37.5893 25.002 41.5522 25 45.6094C25 65.7562 57.4953 85.5312 58.9062 86.3078C59.2465 86.5122 59.6359 86.6202 60.0328 86.6202C60.4297 86.6202 60.8192 86.5122 61.1594 86.3078C62.5047 85.5312 95 65.7562 95 45.6094C94.9942 40.2447 92.8605 35.1013 89.0671 31.3079C85.2737 27.5145 80.1303 25.3808 74.7656 25.375ZM60 81.8563C54.3453 78.2469 29.375 61.3812 29.375 45.6094C29.3778 42.2406 30.4533 38.9602 32.4455 36.2436C34.4378 33.527 37.2434 31.5154 40.4556 30.5003C43.6678 29.4852 47.1199 29.5194 50.3114 30.5978C53.5029 31.6763 56.2681 33.743 58.2062 36.4984C58.4082 36.7851 58.676 37.0189 58.9872 37.1804C59.2985 37.3418 59.6439 37.4261 59.9945 37.4261C60.3451 37.4261 60.6906 37.3418 61.0018 37.1804C61.313 37.0189 61.5809 36.7851 61.7828 36.4984C63.7193 33.7382 66.4852 31.6671 69.6788 30.5856C72.8724 29.5041 76.3276 29.4686 79.5428 30.4842C82.7579 31.4999 85.5657 33.5138 87.5585 36.2336C89.5514 38.9534 90.6255 42.2376 90.625 45.6094C90.625 61.3703 65.6547 78.2359 60 81.8563Z" fill="white"/>
</g>
<defs>
<clipPath id="clip0_134_704">
<rect width="25" height="25" fill="white"/>
</clipPath>
<clipPath id="clip1_134_704">
<rect width="70" height="70" fill="white" transform="translate(25 21)"/>
</clipPath>
</defs>
</svg>
