<svg width="24" height="24" viewBox="0 0 24 24" fill="none" xmlns="http://www.w3.org/2000/svg">
<g clip-path="url(#clip0_53_635)">
<path d="M13.9472 0.878651C13.6688 0.745851 13.3408 0.781051 13.1008 0.974651L5.3184 7.20025H1.6C0.7184 7.20025 0 7.91865 0 8.80025V15.2003C0 16.0819 0.7184 16.8003 1.6 16.8003H5.3184L13.0992 23.0259C13.2448 23.1411 13.4224 23.2003 13.6 23.2003C13.7184 23.2003 13.8368 23.1747 13.9472 23.1219C14.224 22.9875 14.4 22.7075 14.4 22.4003V1.60025C14.4 1.29305 14.224 1.01305 13.9472 0.878651ZM4.8 15.2003H1.6V8.80025H4.8V15.2003ZM12.8 20.7346L6.4 15.6146V8.38585L12.8 3.26585V20.7346Z" fill="#3E1A79"/>
<path d="M18.4512 6.34275C18.136 6.03075 17.6304 6.03555 17.32 6.34915C17.0096 6.66435 17.0128 7.16995 17.3264 7.48035C18.5344 8.67555 19.2 10.2803 19.2 12.0003C19.2 13.7203 18.5344 15.3251 17.3264 16.5203C17.0112 16.8307 17.008 17.3363 17.32 17.6515C17.4768 17.8099 17.6832 17.8883 17.888 17.8883C18.0912 17.8883 18.2944 17.8115 18.4512 17.6563C19.9664 16.1603 20.8 14.1523 20.8 12.0003C20.8 9.84835 19.9664 7.84035 18.4512 6.34275Z" fill="#3E1A79"/>
<path d="M20.7072 4.08854C20.3936 3.77814 19.8864 3.77974 19.576 4.09334C19.2656 4.40694 19.2672 4.91414 19.5808 5.22454C21.3984 7.02774 22.4 9.43414 22.4 12.0005C22.4 14.5669 21.3984 16.9733 19.5808 18.7765C19.2672 19.0869 19.2656 19.5941 19.576 19.9077C19.7328 20.0661 19.9376 20.1445 20.144 20.1445C20.3472 20.1445 20.5504 20.0677 20.7072 19.9125C22.8304 17.8069 24 14.9973 24 12.0005C24 9.00374 22.8304 6.19414 20.7072 4.08854Z" fill="#3E1A79"/>
</g>
<defs>
<clipPath id="clip0_53_635">
<rect width="24" height="24" fill="white"/>
</clipPath>
</defs>
</svg>
