<svg width="24" height="24" viewBox="0 0 24 24" fill="none" xmlns="http://www.w3.org/2000/svg">
<path d="M12.394 3.7515L10.7334 2.89266C8.03831 1.51378 4.81973 1.5135 2.12058 2.89439L0.463406 3.7515C0.178594 3.89892 0 4.19236 0 4.51294V21.2843C0 21.5835 0.156 21.8612 0.411422 22.0163C0.667125 22.1721 0.985406 22.1829 1.25086 22.0458L2.90484 21.1904C5.11111 20.0615 7.746 20.061 9.94913 21.1886L11.6063 22.0458C11.73 22.1098 11.8651 22.1415 12 22.1415C12.1548 22.1415 12.3091 22.0998 12.4457 22.0166C12.7011 21.8612 12.8571 21.5835 12.8571 21.2843V4.51294C12.8572 4.19236 12.6783 3.89864 12.394 3.7515ZM11.1428 19.8758L10.7331 19.6641C9.38569 18.9746 7.90795 18.63 6.42938 18.63C4.95023 18.63 3.47025 18.9752 2.12025 19.6658L1.71427 19.8758V5.03438L2.90456 4.41867C5.11116 3.28983 7.746 3.28955 9.94913 4.41694L11.1428 5.03438V19.8758Z" fill="#3E1A79"/>
<path d="M23.5366 3.75151L21.876 2.89267C19.1802 1.51351 15.9614 1.51351 13.2631 2.89441L11.606 3.75156C11.3211 3.89898 11.1426 4.19242 11.1426 4.513V21.2844C11.1426 21.5836 11.2986 21.8612 11.554 22.0164C11.81 22.1721 12.1283 22.183 12.3934 22.0458L14.0471 21.1904C16.2534 20.0616 18.888 20.0616 21.0917 21.1887L22.7488 22.0458C22.8725 22.1098 23.0074 22.1416 23.1425 22.1416C23.2971 22.1416 23.4517 22.0998 23.5883 22.0167C23.8437 21.8612 23.9997 21.5836 23.9997 21.2844V4.51295C23.9997 4.19237 23.8208 3.89866 23.5366 3.75151ZM22.2854 19.8758L21.8757 19.6641C20.5285 18.9746 19.0508 18.6301 17.572 18.6301C16.0928 18.6301 14.6128 18.9752 13.2631 19.6658L12.8568 19.8758V5.03439L14.0471 4.41869C16.2534 3.28984 18.888 3.29012 21.0917 4.41695L22.2854 5.03439V19.8758Z" fill="#3E1A79"/>
</svg>
