<svg width="150" height="150" viewBox="0 0 150 150" fill="none" xmlns="http://www.w3.org/2000/svg">
<circle cx="75" cy="75" r="75" fill="url(#paint0_linear_468_1907)"/>
<path d="M99.8237 51.3125H90.4306L89.3369 48.0313C88.8097 46.438 87.7933 45.0517 86.4324 44.0698C85.0714 43.0879 83.4354 42.5604 81.7572 42.5625H68.2428C66.5651 42.5612 64.9297 43.089 63.5692 44.0709C62.2088 45.0527 61.1926 46.4386 60.6653 48.0313L59.5694 51.3125H50.1762C48.0582 51.3148 46.0276 52.1572 44.5299 53.6549C43.0322 55.1526 42.1898 57.1832 42.1875 59.3013V91.4575C42.1921 93.574 43.0356 95.6024 44.533 97.0982C46.0304 98.594 48.0597 99.4352 50.1762 99.4375H99.8325C101.949 99.4329 103.977 98.5894 105.473 97.092C106.969 95.5946 107.81 93.5653 107.812 91.4488V59.2925C107.808 57.176 106.964 55.1476 105.467 53.6518C103.97 52.156 101.94 51.3148 99.8237 51.3125ZM103.438 91.4488C103.436 92.4068 103.055 93.3253 102.378 94.0028C101.7 94.6802 100.782 95.0613 99.8237 95.0625H50.1762C49.2182 95.0613 48.2997 94.6802 47.6222 94.0028C46.9448 93.3253 46.5637 92.4068 46.5625 91.4488V59.2925C46.566 58.336 46.9481 57.4197 47.6253 56.7441C48.3025 56.0686 49.2197 55.6887 50.1762 55.6875H61.1466C61.6055 55.6872 62.0527 55.5425 62.4248 55.274C62.797 55.0054 63.0753 54.6267 63.2203 54.1913L64.815 49.4072C65.0545 48.6876 65.5145 48.0617 66.1298 47.6184C66.7451 47.1751 67.4844 46.9369 68.2428 46.9375H81.7572C82.5159 46.9367 83.2556 47.1751 83.871 47.6189C84.4864 48.0627 84.9462 48.6892 85.185 49.4094L86.7797 54.1913C86.9247 54.6267 87.203 55.0054 87.5752 55.274C87.9473 55.5425 88.3945 55.6872 88.8534 55.6875H99.8237C100.782 55.6887 101.7 56.0698 102.378 56.7472C103.055 57.4247 103.436 58.3432 103.438 59.3013V91.4488Z" fill="white" fill-opacity="0.5"/>
<path d="M75 57.875C71.7552 57.875 68.5832 58.8372 65.8852 60.64C63.1872 62.4427 61.0844 65.005 59.8426 68.0028C58.6009 71.0007 58.276 74.2994 58.909 77.4819C59.542 80.6645 61.1046 83.5878 63.399 85.8822C65.6935 88.1767 68.6168 89.7392 71.7993 90.3723C74.9818 91.0053 78.2806 90.6804 81.2784 89.4386C84.2763 88.1969 86.8386 86.0941 88.6413 83.3961C90.444 80.6981 91.4063 77.5261 91.4063 74.2812C91.4016 69.9315 89.6716 65.7612 86.5959 62.6854C83.5201 59.6096 79.3498 57.8796 75 57.875V57.875ZM75 86.3125C72.6204 86.3125 70.2943 85.6069 68.3158 84.2849C66.3373 82.9629 64.7952 81.0838 63.8846 78.8854C62.974 76.687 62.7357 74.2679 63.1999 71.9341C63.6642 69.6002 64.81 67.4565 66.4926 65.7739C68.1752 64.0913 70.319 62.9454 72.6528 62.4812C74.9867 62.0169 77.4057 62.2552 79.6042 63.1658C81.8026 64.0764 83.6816 65.6185 85.0036 67.597C86.3256 69.5756 87.0313 71.9017 87.0313 74.2812C87.0278 77.4711 85.7591 80.5292 83.5035 82.7848C81.248 85.0403 78.1898 86.309 75 86.3125V86.3125Z" fill="white" fill-opacity="0.5"/>
<path d="M96.875 64.4375C98.0831 64.4375 99.0625 63.4581 99.0625 62.25C99.0625 61.0419 98.0831 60.0625 96.875 60.0625C95.6669 60.0625 94.6875 61.0419 94.6875 62.25C94.6875 63.4581 95.6669 64.4375 96.875 64.4375Z" fill="white" fill-opacity="0.5"/>
<defs>
<linearGradient id="paint0_linear_468_1907" x1="75" y1="0" x2="75" y2="150" gradientUnits="userSpaceOnUse">
<stop stop-color="#3E1A79"/>
<stop offset="1" stop-color="#791A6A"/>
</linearGradient>
</defs>
</svg>
