<svg width="70" height="70" viewBox="0 0 70 70" fill="none" xmlns="http://www.w3.org/2000/svg">
<path d="M59.8237 15.3125H50.4306L49.3369 12.0313C48.8097 10.438 47.7933 9.05174 46.4324 8.06982C45.0714 7.08791 43.4354 6.56043 41.7572 6.56251H28.2428C26.5651 6.56122 24.9297 7.08905 23.5692 8.07088C22.2088 9.05272 21.1926 10.4386 20.6653 12.0313L19.5694 15.3125H10.1762C8.05821 15.3148 6.02759 16.1572 4.52991 17.6549C3.03223 19.1526 2.18982 21.1832 2.1875 23.3013V55.4575C2.19213 57.574 3.03556 59.6024 4.53299 61.0982C6.03042 62.594 8.05973 63.4352 10.1762 63.4375H59.8325C61.949 63.4329 63.9774 62.5894 65.4732 61.092C66.969 59.5946 67.8102 57.5653 67.8125 55.4488V23.2925C67.8079 21.176 66.9644 19.1476 65.467 17.6518C63.9696 16.156 61.9403 15.3148 59.8237 15.3125ZM63.4375 55.4488C63.4363 56.4068 63.0552 57.3253 62.3778 58.0028C61.7003 58.6802 60.7818 59.0613 59.8237 59.0625H10.1762C9.21818 59.0613 8.29968 58.6802 7.62222 58.0028C6.94476 57.3253 6.56366 56.4068 6.5625 55.4488V23.2925C6.56597 22.336 6.94809 21.4197 7.6253 20.7441C8.30251 20.0686 9.21969 19.6887 10.1762 19.6875H21.1466C21.6055 19.6872 22.0527 19.5425 22.4248 19.274C22.797 19.0054 23.0753 18.6267 23.2203 18.1913L24.815 13.4072C25.0545 12.6876 25.5145 12.0617 26.1298 11.6184C26.7451 11.1751 27.4844 10.9369 28.2428 10.9375H41.7572C42.5159 10.9367 43.2556 11.1751 43.871 11.6189C44.4864 12.0627 44.9462 12.6892 45.185 13.4094L46.7797 18.1913C46.9247 18.6267 47.203 19.0054 47.5752 19.274C47.9473 19.5425 48.3945 19.6872 48.8534 19.6875H59.8237C60.7818 19.6887 61.7003 20.0698 62.3778 20.7472C63.0552 21.4247 63.4363 22.3432 63.4375 23.3013V55.4488Z" fill="white" fill-opacity="0.5"/>
<path d="M35 21.875C31.7552 21.875 28.5832 22.8372 25.8852 24.64C23.1872 26.4427 21.0844 29.005 19.8426 32.0028C18.6009 35.0007 18.276 38.2994 18.909 41.4819C19.542 44.6644 21.1046 47.5878 23.399 49.8822C25.6935 52.1767 28.6168 53.7392 31.7993 54.3723C34.9818 55.0053 38.2806 54.6804 41.2784 53.4386C44.2763 52.1969 46.8386 50.0941 48.6413 47.3961C50.444 44.6981 51.4063 41.5261 51.4063 38.2812C51.4016 33.9315 49.6716 29.7612 46.5959 26.6854C43.5201 23.6096 39.3498 21.8796 35 21.875ZM35 50.3125C32.6205 50.3125 30.2943 49.6069 28.3158 48.2849C26.3373 46.9629 24.7952 45.0838 23.8846 42.8854C22.974 40.687 22.7357 38.2679 23.1999 35.9341C23.6642 33.6002 24.81 31.4565 26.4926 29.7739C28.1752 28.0913 30.319 26.9454 32.6528 26.4812C34.9867 26.0169 37.4057 26.2552 39.6042 27.1658C41.8026 28.0764 43.6816 29.6185 45.0036 31.597C46.3256 33.5756 47.0313 35.9017 47.0313 38.2812C47.0278 41.4711 45.7591 44.5292 43.5035 46.7848C41.248 49.0403 38.1898 50.309 35 50.3125Z" fill="white" fill-opacity="0.5"/>
<path d="M56.875 28.4375C58.0831 28.4375 59.0625 27.4581 59.0625 26.25C59.0625 25.0419 58.0831 24.0625 56.875 24.0625C55.6669 24.0625 54.6875 25.0419 54.6875 26.25C54.6875 27.4581 55.6669 28.4375 56.875 28.4375Z" fill="white" fill-opacity="0.5"/>
</svg>
