<svg width="24" height="24" viewBox="0 0 24 24" fill="none" xmlns="http://www.w3.org/2000/svg">
<g clip-path="url(#clip0_205_1146)">
<path d="M23.7941 16.4713L21.9351 14.6123V8.23589L23.1487 7.79836C23.4273 7.69787 23.6131 7.43366 23.6134 7.13744C23.6136 6.84131 23.4282 6.57672 23.1497 6.47591L12.0461 2.4547C11.8914 2.39869 11.7219 2.39869 11.5673 2.4547L0.463694 6.47591C0.186268 6.5764 0.00112922 6.83934 4.33015e-06 7.13439C-0.00102682 7.42944 0.18219 7.69374 0.45882 7.79625L4.55666 9.31424V13.9477C4.55666 14.0915 4.60072 14.2319 4.68298 14.3498C4.72821 14.4146 5.15665 14.9997 6.25361 15.5519C7.63943 16.2495 9.45707 16.6032 11.656 16.6032C13.8532 16.6032 15.6801 16.2502 17.0857 15.554C18.1935 15.0053 18.6361 14.4263 18.683 14.3621C18.7708 14.2418 18.818 14.0967 18.818 13.9478V9.35961L20.5291 8.74275V14.6123L18.6701 16.4713C18.5382 16.6032 18.4641 16.782 18.4641 16.9684C18.4641 17.1549 18.5382 17.3337 18.6701 17.4655L20.5291 19.3245V20.8842C20.5291 21.2725 20.8438 21.5872 21.2321 21.5872C21.6204 21.5872 21.9352 21.2725 21.9352 20.8842V19.3245L23.7941 17.4655C24.0687 17.1911 24.0687 16.7458 23.7941 16.4713ZM11.8067 3.86348L20.8415 7.13547L11.6593 10.4459L2.74713 7.14442L11.8067 3.86348ZM17.4119 13.6675C15.0084 15.8302 7.86638 15.5822 5.96278 13.6745V9.83516L11.4117 11.8537C11.4982 11.8674 11.5798 11.9419 11.8944 11.8558L17.4119 9.86666V13.6675H17.4119ZM21.2321 18.0391L20.1614 16.9684L21.2321 15.8978L22.3027 16.9684L21.2321 18.0391Z" fill="#FF335A"/>
</g>
<defs>
<clipPath id="clip0_205_1146">
<rect width="24" height="24" fill="white"/>
</clipPath>
</defs>
</svg>
