<svg width="17" height="17" viewBox="0 0 17 17" fill="none" xmlns="http://www.w3.org/2000/svg">
<path d="M14.9451 2.05418C14.7475 1.85393 14.512 1.69494 14.2524 1.58642C13.9928 1.47791 13.7142 1.42203 13.4328 1.42203C13.1515 1.42203 12.8729 1.47791 12.6133 1.58642C12.3537 1.69494 12.1182 1.85393 11.9205 2.05418L10.5605 3.43543L13.5639 6.43876L14.9239 5.07876C15.1255 4.8825 15.2862 4.64815 15.3965 4.38931C15.5069 4.13047 15.5647 3.85229 15.5667 3.57091C15.5687 3.28954 15.5147 3.01057 15.408 2.7502C15.3013 2.48984 15.144 2.25325 14.9451 2.05418Z" fill="white"/>
<path d="M9.55559 4.44125L3.61267 10.3842C3.5594 10.4389 3.51409 10.5009 3.47809 10.5683L1.50892 14.5421C1.4518 14.6494 1.42323 14.7695 1.42596 14.891C1.4287 15.0125 1.46264 15.1312 1.52454 15.2358C1.58644 15.3404 1.6742 15.4273 1.77939 15.4882C1.88458 15.549 2.00366 15.5818 2.12517 15.5833C2.2331 15.5838 2.3397 15.5596 2.43684 15.5125L6.41059 13.5433C6.47799 13.5073 6.53998 13.462 6.59476 13.4088L12.5377 7.46584L9.55559 4.44125Z" fill="white"/>
<path d="M14.8743 15.5834H8.49935C8.31149 15.5834 8.13132 15.5087 7.99848 15.3759C7.86564 15.243 7.79102 15.0629 7.79102 14.875C7.79102 14.6872 7.86564 14.507 7.99848 14.3742C8.13132 14.2413 8.31149 14.1667 8.49935 14.1667H14.8743C15.0622 14.1667 15.2424 14.2413 15.3752 14.3742C15.5081 14.507 15.5827 14.6872 15.5827 14.875C15.5827 15.0629 15.5081 15.243 15.3752 15.3759C15.2424 15.5087 15.0622 15.5834 14.8743 15.5834Z" fill="white"/>
</svg>
