<svg width="24" height="24" viewBox="0 0 24 24" fill="none" xmlns="http://www.w3.org/2000/svg">
<path d="M11.9971 16.8389C11.5831 16.8389 11.2471 16.5029 11.2471 16.0889V10.1658C11.2471 9.75177 11.5831 9.41577 11.9971 9.41577C12.4111 9.41577 12.7471 9.75177 12.7471 10.1658V16.0889C12.7471 16.5033 12.4114 16.8389 11.9971 16.8389Z" fill="#3E1A79" fill-opacity="0.5"/>
<path d="M11.9971 8.66618C11.7983 8.66618 11.6071 8.58743 11.4683 8.44493C11.3258 8.30618 11.2471 8.11493 11.2471 7.91618C11.2471 7.71743 11.3258 7.52618 11.4683 7.38743C11.7458 7.10618 12.2483 7.10618 12.5258 7.38368C12.6683 7.52618 12.7471 7.71743 12.7471 7.91618C12.7471 8.11118 12.6683 8.30618 12.5258 8.44493C12.3871 8.58743 12.1958 8.66618 11.9971 8.66618Z" fill="#3E1A79" fill-opacity="0.5"/>
<path d="M11.9716 21.7488C11.1184 21.7488 10.2728 21.6378 9.45794 21.4184C5.94644 20.4738 3.19694 17.5649 2.45332 14.0073C1.69544 10.3829 3.09419 6.57293 6.01732 4.3008C7.70707 2.98718 9.83819 2.26343 12.0184 2.26343C13.5278 2.26343 15.0267 2.61443 16.3534 3.2778C19.6298 4.91693 21.7467 8.34143 21.7467 12.0026C21.7467 14.9898 20.3371 17.8691 17.9761 19.7043C16.2803 21.0228 14.1477 21.7488 11.9716 21.7488ZM12.0188 3.76343C10.1704 3.76343 8.36594 4.37468 6.93832 5.48505C4.46444 7.40805 3.28019 10.6327 3.92182 13.7002C4.55107 16.7096 6.87719 19.1707 9.84794 19.9698C10.5357 20.1547 11.2504 20.2488 11.9716 20.2488H11.9719C13.8162 20.2488 15.6214 19.6349 17.0558 18.5201C19.0542 16.9668 20.2471 14.5304 20.2471 12.0026C20.2471 8.90468 18.4557 6.00668 15.6829 4.61955C14.5632 4.05968 13.2964 3.76343 12.0188 3.76343Z" fill="#3E1A79" fill-opacity="0.5"/>
</svg>
