<svg width="19" height="19" viewBox="0 0 19 19" fill="none" xmlns="http://www.w3.org/2000/svg">
<g clip-path="url(#clip0_177_1270)">
<path d="M19 9.5C19 4.25329 14.7467 0 9.5 0C4.25329 0 0 4.25329 0 9.5C0 14.7467 4.25329 19 9.5 19C14.7467 19 19 14.7467 19 9.5Z" fill="url(#paint0_linear_177_1270)"/>
<path opacity="0.1" d="M16.6499 3.25003C15.2649 5.79253 13.3061 8.41503 10.8586 10.8625C8.41114 13.31 5.78864 15.265 3.24989 16.65C3.09073 16.5117 2.93614 16.3675 2.78614 16.2175C1.87946 15.3411 1.15634 14.293 0.658939 13.1342C0.161537 11.9754 -0.10019 10.7292 -0.11098 9.46825C-0.12177 8.20728 0.118592 6.95678 0.596091 5.78967C1.07359 4.62255 1.77867 3.56218 2.67022 2.67039C3.56177 1.77859 4.62194 1.07321 5.78892 0.595387C6.9559 0.117562 8.20634 -0.12315 9.46731 -0.112712C10.7283 -0.102273 11.9746 0.159106 13.1335 0.656184C14.2924 1.15326 15.3407 1.87609 16.2174 2.78253C16.3674 2.93253 16.5116 3.08836 16.6499 3.25003Z" fill="white"/>
<path d="M11.75 4.5H7.25C6.52065 4.5 5.82118 4.78973 5.30546 5.30546C4.78973 5.82118 4.5 6.52065 4.5 7.25V11.75C4.5 12.4793 4.78973 13.1788 5.30546 13.6945C5.82118 14.2103 6.52065 14.5 7.25 14.5H11.75C12.4793 14.5 13.1788 14.2103 13.6945 13.6945C14.2103 13.1788 14.5 12.4793 14.5 11.75V7.25C14.5 6.52065 14.2103 5.82118 13.6945 5.30546C13.1788 4.78973 12.4793 4.5 11.75 4.5ZM13.625 11.355C13.625 11.957 13.3858 12.5344 12.9601 12.9601C12.5344 13.3858 11.957 13.625 11.355 13.625H7.645C7.04296 13.625 6.46557 13.3858 6.03987 12.9601C5.61416 12.5344 5.375 11.957 5.375 11.355V7.645C5.375 7.04296 5.61416 6.46557 6.03987 6.03987C6.46557 5.61416 7.04296 5.375 7.645 5.375H11.355C11.957 5.375 12.5344 5.61416 12.9601 6.03987C13.3858 6.46557 13.625 7.04296 13.625 7.645V11.355Z" fill="white"/>
<path d="M11.3244 7.69501L11.3007 7.67126L11.2807 7.65126C10.8081 7.18027 10.1679 6.91595 9.50069 6.91626C9.16375 6.91855 8.83055 6.98721 8.52014 7.11831C8.20974 7.24941 7.9282 7.44039 7.69163 7.68033C7.45505 7.92027 7.26807 8.20447 7.14137 8.5167C7.01467 8.82893 6.95072 9.16306 6.95319 9.50001C6.95268 10.1838 7.22223 10.8402 7.70319 11.3263C7.93878 11.5647 8.21951 11.7538 8.52898 11.8826C8.83846 12.0114 9.1705 12.0772 9.50569 12.0763C10.0085 12.0657 10.4974 11.9091 10.9127 11.6255C11.328 11.3419 11.6518 10.9435 11.8446 10.4791C12.0374 10.0146 12.0909 9.50404 11.9985 9.00968C11.9062 8.51533 11.672 8.05854 11.3244 7.69501ZM9.50069 11.195C9.16448 11.1997 8.83447 11.1043 8.55262 10.921C8.27077 10.7376 8.04983 10.4746 7.91789 10.1653C7.78595 9.85601 7.74897 9.51448 7.81167 9.18413C7.87436 8.85378 8.03389 8.54955 8.26997 8.31012C8.50605 8.07068 8.808 7.90688 9.13743 7.83953C9.46686 7.77218 9.80888 7.80433 10.12 7.93189C10.4311 8.05945 10.6972 8.27666 10.8846 8.5559C11.0719 8.83513 11.1719 9.16377 11.1719 9.50001C11.1736 9.72107 11.1317 9.94028 11.0485 10.1451C10.9654 10.35 10.8428 10.5364 10.6876 10.6938C10.5324 10.8512 10.3476 10.9765 10.144 11.0625C9.94035 11.1485 9.72175 11.1935 9.50069 11.195Z" fill="white"/>
<path d="M12.8029 6.7975C12.8036 6.87771 12.7884 6.95726 12.7583 7.03161C12.7281 7.10595 12.6836 7.17362 12.6273 7.23074C12.571 7.28787 12.504 7.33333 12.4301 7.36451C12.3562 7.3957 12.2769 7.41201 12.1966 7.4125C12.1171 7.41246 12.0384 7.39664 11.965 7.36596C11.8916 7.33528 11.825 7.29034 11.7691 7.23375C11.6845 7.14783 11.6269 7.03894 11.6035 6.92059C11.5801 6.80224 11.592 6.67963 11.6376 6.56796C11.6833 6.4563 11.7607 6.36049 11.8603 6.29241C11.9599 6.22433 12.0773 6.18699 12.1979 6.185C12.3391 6.18497 12.4758 6.23452 12.5841 6.325L12.5966 6.3375C12.6168 6.35391 12.6352 6.37234 12.6516 6.3925L12.6654 6.4075C12.7549 6.51773 12.8035 6.65552 12.8029 6.7975Z" fill="white"/>
</g>
<defs>
<linearGradient id="paint0_linear_177_1270" x1="2.7825" y1="2.7825" x2="16.2175" y2="16.2175" gradientUnits="userSpaceOnUse">
<stop stop-color="#FAE100"/>
<stop offset="0.15" stop-color="#FCB720"/>
<stop offset="0.3" stop-color="#FF7950"/>
<stop offset="0.5" stop-color="#FF1C74"/>
<stop offset="1" stop-color="#6C1CD1"/>
</linearGradient>
<clipPath id="clip0_177_1270">
<rect width="19" height="19" fill="white"/>
</clipPath>
</defs>
</svg>
