<svg width="50" height="50" viewBox="0 0 50 50" fill="none" xmlns="http://www.w3.org/2000/svg">
<path d="M21.3297 36.6817L18.0559 36.0497C18.059 35.9836 18.066 35.918 18.066 35.8512V33.8157C20.0125 32.7051 21.4438 30.8731 22.0504 28.7157C22.6549 28.6421 23.2231 28.3877 23.6806 27.9857C24.138 27.5837 24.4633 27.0529 24.6139 26.4628C24.7645 25.8728 24.7333 25.251 24.5244 24.6789C24.3155 24.1069 23.9387 23.6113 23.4434 23.2571L23.5422 21.7586C23.674 19.7637 23.1858 17.7769 22.1446 16.0701C21.1034 14.3634 19.56 13.0203 17.7259 12.2248C15.8917 11.4293 13.8564 11.2202 11.8988 11.6263C9.94126 12.0323 8.15706 13.0336 6.79063 14.493C5.8788 15.4586 5.17721 16.6029 4.73022 17.8535C4.28323 19.1041 4.10056 20.4338 4.19375 21.7586L4.29258 23.2571C3.79721 23.6113 3.4204 24.1069 3.21153 24.6789C3.00266 25.251 2.97147 25.8728 3.12205 26.4628C3.27262 27.0529 3.59795 27.5837 4.05538 27.9857C4.51282 28.3877 5.08102 28.6421 5.68555 28.7157C6.29216 30.8731 7.72342 32.7051 9.66992 33.8157V35.8512C9.66992 35.918 9.67695 35.9836 9.68008 36.0497L6.40586 36.6817C5.18134 36.9196 4.07758 37.5757 3.28347 38.5377C2.48937 39.4996 2.0543 40.7077 2.05273 41.9551V47.2657C2.05284 47.4465 2.12457 47.62 2.25224 47.7481C2.37991 47.8762 2.55312 47.9485 2.73398 47.9493H24.9996C25.1809 47.9492 25.3547 47.8771 25.4829 47.7489C25.611 47.6208 25.6831 47.4469 25.6832 47.2657V41.9555C25.6817 40.708 25.2466 39.4998 24.4524 38.5377C23.6582 37.5756 22.5543 36.9195 21.3297 36.6817ZM22.3234 27.243C22.3488 26.977 22.3625 26.7075 22.3625 26.4344V24.2044C22.6568 24.3369 22.9059 24.5525 23.0794 24.8247C23.2528 25.0969 23.343 25.4138 23.3389 25.7365C23.3347 26.0592 23.2364 26.3737 23.056 26.6413C22.8756 26.909 22.621 27.1181 22.3234 27.243ZM5.55703 21.6684C5.44444 19.9551 5.86416 18.2488 6.75875 16.7833C7.65334 15.3177 8.97905 14.1644 10.5544 13.4814C12.1297 12.7984 13.8777 12.619 15.5589 12.9678C17.2401 13.3166 18.7724 14.1765 19.9461 15.4297C20.7292 16.259 21.3317 17.2417 21.7157 18.3158C22.0996 19.3898 22.2565 20.5318 22.1766 21.6696L22.109 22.72C22.0142 22.7064 21.9181 22.6975 21.8207 22.693C19.8973 22.034 18.3051 20.1001 18.2895 20.0805C18.188 19.9559 18.046 19.8709 17.8883 19.8404C17.7306 19.8099 17.5671 19.8359 17.4266 19.9137C12.2395 22.7973 6.13203 22.6872 6.07227 22.6872C5.9234 22.6855 5.77467 22.6968 5.62773 22.7208L5.55703 21.6684ZM4.39414 25.7133C4.39489 25.3946 4.48737 25.0828 4.66054 24.8153C4.83371 24.5477 5.08025 24.3356 5.3707 24.2044V26.4344C5.3707 26.7079 5.38477 26.977 5.40977 27.243C5.10896 27.116 4.85223 26.9031 4.67162 26.6311C4.491 26.3591 4.39449 26.0399 4.39414 25.7133ZM6.73789 26.4344V24.0477C8.4957 23.9985 13.2191 23.6458 17.6043 21.3692C18.5573 22.4134 19.7107 23.2553 20.9957 23.8446V26.4344C20.9957 28.3251 20.2446 30.1384 18.9077 31.4753C17.5708 32.8123 15.7575 33.5633 13.8668 33.5633C11.9761 33.5633 10.1628 32.8123 8.8259 31.4753C7.48897 30.1384 6.73789 28.3251 6.73789 26.4344ZM13.8668 34.9305C14.8317 34.931 15.7895 34.7662 16.6988 34.4434V35.8497C16.6988 36.6008 16.4005 37.3211 15.8693 37.8522C15.3382 38.3833 14.6179 38.6817 13.8668 38.6817C13.1157 38.6817 12.3954 38.3833 11.8642 37.8522C11.3331 37.3211 11.0348 36.6008 11.0348 35.8497V34.4434C11.9441 34.7662 12.9019 34.931 13.8668 34.9305ZM24.316 46.5821H3.41758V41.9555C3.41872 41.0255 3.74305 40.1248 4.33506 39.4076C4.92708 38.6904 5.74997 38.2013 6.66289 38.0239L9.9625 37.3872C10.2701 38.1722 10.8072 38.8462 11.5037 39.3213C12.2002 39.7964 13.0237 40.0506 13.8668 40.0506C14.7099 40.0506 15.5334 39.7964 16.2299 39.3213C16.9264 38.8462 17.4635 38.1722 17.7711 37.3872L21.0707 38.0239C21.9836 38.2013 22.8065 38.6904 23.3985 39.4076C23.9905 40.1248 24.3149 41.0255 24.316 41.9555V46.5821Z" fill="#3E1A79"/>
<path d="M10.0967 44.2383H7.75293C7.57163 44.2383 7.39775 44.3103 7.26956 44.4385C7.14136 44.5667 7.06934 44.7406 7.06934 44.9219C7.06934 45.1032 7.14136 45.277 7.26956 45.4052C7.39775 45.5334 7.57163 45.6055 7.75293 45.6055H10.0967C10.278 45.6055 10.4519 45.5334 10.5801 45.4052C10.7083 45.277 10.7803 45.1032 10.7803 44.9219C10.7803 44.7406 10.7083 44.5667 10.5801 44.4385C10.4519 44.3103 10.278 44.2383 10.0967 44.2383Z" fill="#3E1A79"/>
<path d="M44.0158 37.7821L42.7076 37.5294L44.2166 37.3958C44.9803 37.3267 45.6895 36.9708 46.2015 36.3998C46.7134 35.8289 46.99 35.0852 46.9756 34.3184L46.7803 24.5563C46.7277 22.095 45.713 19.7521 43.9536 18.03C42.1943 16.3078 39.8303 15.3434 37.3684 15.3434C34.9064 15.3434 32.5424 16.3078 30.7831 18.03C29.0238 19.7521 28.009 22.095 27.9564 24.5563L27.7611 34.3188C27.7487 35.0851 28.0262 35.8278 28.538 36.3983C29.0498 36.9688 29.7581 37.3249 30.5213 37.3954L32.0307 37.5294L30.7209 37.7821C29.6145 37.9973 28.6172 38.5902 27.8998 39.4596C27.1824 40.3289 26.7894 41.4206 26.7881 42.5477V47.2657C26.7882 47.447 26.8602 47.6208 26.9884 47.749C27.1166 47.8771 27.2904 47.9492 27.4717 47.9493H47.265C47.4463 47.9492 47.6201 47.8771 47.7483 47.749C47.8765 47.6208 47.9485 47.447 47.9486 47.2657V42.547C47.9472 41.4199 47.5541 40.3285 46.8367 39.4593C46.1193 38.5901 45.1221 37.9972 44.0158 37.7821ZM37.3689 35.0087C35.7095 35.0067 34.1185 34.3468 32.9449 33.1735C31.7713 32.0003 31.1109 30.4095 31.1084 28.7501V26.4973C32.2238 25.9771 33.2271 25.2443 34.0619 24.3399C37.8982 26.3165 42.0131 26.6497 43.6287 26.7013V28.7501C43.6265 30.4096 42.9663 32.0005 41.7929 33.174C40.6194 34.3475 39.0285 35.0077 37.3689 35.0098V35.0087ZM34.9291 35.9696C36.5112 36.5136 38.2298 36.5136 39.8119 35.9696V37.1212C39.8119 37.7687 39.5547 38.3897 39.0968 38.8475C38.639 39.3054 38.018 39.5626 37.3705 39.5626C36.723 39.5626 36.102 39.3054 35.6442 38.8475C35.1863 38.3897 34.9291 37.7687 34.9291 37.1212V35.9696ZM29.1279 34.3458L29.3232 24.5845C29.3672 22.4799 30.2342 20.4763 31.7381 19.0035C33.2421 17.5306 35.2633 16.7058 37.3684 16.7058C39.4734 16.7058 41.4946 17.5306 42.9986 19.0035C44.5025 20.4763 45.3695 22.4799 45.4135 24.5845L45.6088 34.3477C45.6165 34.7681 45.4647 35.1758 45.1839 35.4888C44.9032 35.8017 44.5143 35.9967 44.0955 36.0345L41.1791 36.2927V35.3473C42.3383 34.6793 43.3014 33.718 43.9715 32.56C44.6417 31.402 44.9954 30.088 44.9971 28.7501V26.0247C44.9971 25.9335 44.9788 25.8432 44.9434 25.7591C44.908 25.6751 44.8561 25.5989 44.7908 25.5352C44.726 25.4709 44.6488 25.4204 44.5638 25.3868C44.4789 25.3532 44.388 25.3373 44.2967 25.3399C44.2412 25.3434 38.8482 25.4454 34.2436 22.8852C34.1031 22.8073 33.9396 22.7812 33.7819 22.8116C33.6241 22.8421 33.4821 22.927 33.3807 23.0516C33.3662 23.0692 31.9299 24.8161 30.2135 25.3731C30.0762 25.4178 29.9566 25.5048 29.8717 25.6216C29.7869 25.7385 29.7412 25.8791 29.7412 26.0235V28.7501C29.7429 30.0886 30.0969 31.403 30.7675 32.5614C31.4382 33.7197 32.4019 34.6811 33.5619 35.3489V36.2923L30.6424 36.0341C30.2237 35.9952 29.8351 35.7998 29.5543 35.4867C29.2735 35.1737 29.1212 34.7662 29.1279 34.3458ZM46.5814 46.5821H28.1557V42.547C28.1568 41.7375 28.4391 40.9535 28.9543 40.3292C29.4696 39.7049 30.1857 39.279 30.9803 39.1243L33.8502 38.5712C34.1372 39.2689 34.625 39.8656 35.2518 40.2855C35.8785 40.7054 36.6159 40.9296 37.3703 40.9296C38.1247 40.9296 38.8621 40.7054 39.4889 40.2855C40.1156 39.8656 40.6035 39.2689 40.8904 38.5712L43.7564 39.1243C44.5511 39.2789 45.2673 39.7048 45.7826 40.3291C46.2979 40.9534 46.5803 41.7374 46.5814 42.547V46.5821Z" fill="#3E1A79"/>
<path d="M24.5254 12.0676C24.6528 12.1899 24.8226 12.2582 24.9992 12.2582C25.1758 12.2582 25.3456 12.1899 25.4731 12.0676L28.9008 8.76957L28.9055 8.76332C29.3501 8.35004 29.7083 7.8527 29.9595 7.30008C30.2107 6.74746 30.3498 6.15052 30.3688 5.54379C30.3698 5.04827 30.2709 4.55762 30.078 4.10121C29.885 3.6448 29.6019 3.23201 29.2457 2.88754C28.9717 2.61214 28.6442 2.39584 28.2833 2.25199C27.9225 2.10815 27.536 2.03981 27.1477 2.05121C26.3692 2.07605 25.6181 2.3436 24.9992 2.81645C24.3804 2.3436 23.6292 2.07605 22.8508 2.05121C22.4622 2.03738 22.0749 2.10448 21.7136 2.24825C21.3523 2.39202 21.0248 2.60932 20.752 2.88637C20.3958 3.23089 20.1128 3.64369 19.9198 4.10009C19.7269 4.55649 19.6279 5.04711 19.6289 5.54262C19.6483 6.15079 19.7881 6.74906 20.0404 7.30279C20.2926 7.85651 20.6523 8.35467 21.0984 8.7684L24.5254 12.0676ZM21.718 3.8516C21.8585 3.70975 22.0266 3.59811 22.2119 3.52355C22.3971 3.44899 22.5957 3.41307 22.7953 3.41801H22.8262C23.4642 3.44958 24.0645 3.73007 24.4981 4.19926C24.5634 4.26528 24.6412 4.31769 24.727 4.35346C24.8128 4.38922 24.9047 4.40764 24.9977 4.40764C25.0906 4.40764 25.1826 4.38922 25.2683 4.35346C25.3541 4.31769 25.4319 4.26528 25.4973 4.19926C25.9308 3.73007 26.5311 3.44958 27.1691 3.41801C27.3745 3.40833 27.5795 3.44197 27.771 3.51674C27.9625 3.59151 28.1361 3.70573 28.2805 3.85199C28.5098 4.06886 28.6923 4.33033 28.8168 4.62032C28.9414 4.91032 29.0053 5.22272 29.0047 5.53832C28.961 6.39707 28.5823 7.20446 27.95 7.78715L24.9992 10.625L22.0516 7.7891C21.4187 7.2055 21.04 6.39694 20.9969 5.53715C20.9961 5.22192 21.0596 4.90983 21.1836 4.62C21.3076 4.33018 21.4894 4.06871 21.718 3.8516Z" fill="#3E1A79"/>
</svg>
