<svg width="50" height="50" viewBox="0 0 50 50" fill="none" xmlns="http://www.w3.org/2000/svg">
<g clip-path="url(#clip0_129_693)">
<path d="M21.8184 16.3889V15.6061C21.8184 15.2016 21.4904 14.8737 21.0859 14.8737C20.6814 14.8737 20.3535 15.2016 20.3535 15.6061V16.3889C20.3535 16.7934 20.6814 17.1213 21.0859 17.1213C21.4904 17.1213 21.8184 16.7934 21.8184 16.3889Z" fill="#3E1A79"/>
<path d="M28.9141 17.1213C29.3186 17.1213 29.6465 16.7934 29.6465 16.3889V15.6061C29.6465 15.2016 29.3186 14.8737 28.9141 14.8737C28.5096 14.8737 28.1816 15.2016 28.1816 15.6061V16.3889C28.1816 16.7934 28.5095 17.1213 28.9141 17.1213Z" fill="#3E1A79"/>
<path d="M12.4746 43.0554C12.0701 43.0554 11.7422 43.3833 11.7422 43.7878V49.2676C11.7422 49.6721 12.0701 50 12.4746 50C12.8791 50 13.207 49.6721 13.207 49.2676V43.7878C13.207 43.3833 12.8791 43.0554 12.4746 43.0554Z" fill="#3E1A79"/>
<path d="M40.4308 33.1767L35.4378 31.361L32.1841 30.0596C31.8617 29.9306 31.5223 29.9188 31.2119 30.0057V26.9163C33.6546 25.2175 35.3738 22.5471 35.8036 19.4697H36.2389C37.6664 19.4697 38.8907 18.4091 39.0264 17.055C39.1023 16.2961 38.8541 15.5384 38.3453 14.9761C38.0991 14.704 37.8018 14.4888 37.4747 14.3383V8.56065C37.4748 3.84033 33.6345 0 28.9141 0H21.0857C16.3654 0 12.5251 3.84033 12.5251 8.56065V9.39385H6.99473C6.59023 9.39385 6.2623 9.72178 6.2623 10.1263C6.2623 10.5308 6.59023 10.8587 6.99473 10.8587H12.5252V11.6919C12.5252 12.0964 12.8531 12.4243 13.2576 12.4243C13.6621 12.4243 13.99 12.0964 13.99 11.6919V10.8587H24.2738C22.1563 12.1951 18.3869 14.0908 14.0402 14.0908H13.7607C12.3333 14.0908 11.1089 15.1515 10.9732 16.5054C10.8972 17.2643 11.1453 18.022 11.6541 18.5844C12.1632 19.1471 12.8903 19.4698 13.6488 19.4698H14.1955C14.6251 22.5481 16.3442 25.2188 18.7876 26.9175V30.0059C18.4772 29.919 18.1378 29.9308 17.8154 30.0598L14.5617 31.3612L9.56875 33.1769C7.12285 34.0663 5.47949 36.4125 5.47949 39.015V49.2676C5.47949 49.6721 5.80742 50 6.21191 50C6.61641 50 6.94434 49.6721 6.94434 49.2676V39.0149C6.94434 37.0261 8.2002 35.2331 10.0693 34.5533L14.4658 32.9546C15.2943 34.4772 17.829 38.5469 22.7018 41.7146V49.2676C22.7018 49.6721 23.0297 50 23.4342 50C23.8387 50 24.1666 49.6721 24.1666 49.2676V39.0404H25.833V49.2676C25.833 49.6721 26.1609 50 26.5654 50C26.9699 50 27.2978 49.6721 27.2978 49.2676V41.7143C29.3964 40.3498 31.292 38.6664 32.9362 36.7044C33.1961 36.3943 33.1554 35.9324 32.8453 35.6727C32.5352 35.4127 32.0732 35.4534 31.8136 35.7636C30.4742 37.3616 28.9594 38.7637 27.2978 39.9442V36.9385C27.2978 36.4529 27.5185 35.9951 27.9032 35.6825C29.8974 34.0621 31.0617 32.3297 31.5783 31.4413C31.5916 31.4186 31.6159 31.4103 31.6401 31.4198L34.1507 32.424C34.0256 32.646 33.8672 32.915 33.6744 33.2207C33.4587 33.5629 33.5611 34.0151 33.9033 34.231C34.2455 34.4468 34.6978 34.3441 34.9136 34.0021C35.1778 33.583 35.3825 33.2274 35.5321 32.9541L39.9304 34.5534C41.7995 35.2331 43.0554 37.0261 43.0554 39.015V49.2676C43.0554 49.6721 43.3833 50 43.7878 50C44.1923 50 44.5202 49.6721 44.5202 49.2676V39.0149C44.5199 36.4123 42.8767 34.0661 40.4308 33.1767ZM36.01 8.56065V9.39385H31.9947V8.56065C31.9947 8.10117 32.3686 7.72744 32.828 7.72744H35.9594C35.9915 8.00098 36.01 8.27861 36.01 8.56065ZM30.7809 10.8587C29.6632 11.6129 28.5571 12.0778 27.8696 12.3238L27.5033 10.8587H30.7809ZM34.3433 10.8587H36.01V14.0908H35.1765C34.717 14.0908 34.3433 13.717 34.3433 13.2576V10.8587ZM13.99 8.56065C13.99 4.64805 17.1732 1.46484 21.0858 1.46484H28.9142C32.0226 1.46484 34.6686 3.4748 35.6259 6.2626H32.828C31.5608 6.2626 30.5299 7.29355 30.5299 8.56065V9.39385H13.99V8.56065ZM15.5555 17.9545C15.5555 17.55 15.2275 17.2221 14.823 17.2221C14.4186 17.2221 14.0906 17.55 14.0906 17.9545V18.0049H13.6488C13.3034 18.0049 12.9723 17.8578 12.7403 17.6015C12.5053 17.3417 12.3954 17.0043 12.4308 16.6514C12.4923 16.0369 13.0766 15.5556 13.7607 15.5556H14.0402C19.6518 15.5556 24.2414 12.7427 26.1261 11.3883L26.6378 13.4352C26.721 13.768 27.0196 13.9901 27.3478 13.9901C27.4065 13.9901 27.4663 13.983 27.526 13.9681C27.6534 13.9362 30.4938 13.2073 32.8786 11.0849V13.2575C32.8786 14.5247 33.9096 15.5556 35.1767 15.5556H36.3509C36.6963 15.5556 37.0273 15.7025 37.2594 15.9589C37.4943 16.2187 37.6044 16.5561 37.5689 16.909C37.5074 17.5234 36.9232 18.0048 36.2391 18.0048H35.9087V17.9619C35.9087 17.5575 35.581 17.2296 35.1766 17.2295C35.1765 17.2295 35.1764 17.2295 35.1763 17.2295C34.772 17.2295 34.4441 17.557 34.4438 17.9614C34.44 23.1651 30.2035 27.3987 24.9999 27.3987C19.7921 27.3988 15.5555 23.1622 15.5555 17.9545ZM15.8508 32.4231L18.3594 31.4197C18.3835 31.4102 18.4079 31.4185 18.4212 31.4412C18.9378 32.3296 20.102 34.0619 22.0962 35.6823C22.481 35.995 22.7016 36.4528 22.7016 36.9384V39.9434C18.8205 37.18 16.6526 33.8365 15.8508 32.4231ZM26.9793 34.5455C26.2508 35.1376 25.8329 36.0097 25.8329 36.9383V37.5756H24.1665V36.9383C24.1665 36.0097 23.7486 35.1375 23.0201 34.5454C21.7303 33.4973 20.8189 32.3843 20.2524 31.58V27.7752C21.6885 28.4722 23.2992 28.8637 24.9998 28.8637C26.7002 28.8637 28.3109 28.4719 29.7472 27.7745V31.58C29.1806 32.3843 28.2692 33.4973 26.9793 34.5455Z" fill="#3E1A79"/>
<path d="M37.5244 43.0554C37.1199 43.0554 36.792 43.3833 36.792 43.7878V49.2676C36.792 49.6721 37.1199 50 37.5244 50C37.9289 50 38.2568 49.6721 38.2568 49.2676V43.7878C38.2568 43.3833 37.9289 43.0554 37.5244 43.0554Z" fill="#3E1A79"/>
<path d="M28.3515 21.7115C28.6971 21.5012 28.8067 21.0506 28.5964 20.705C28.3862 20.3595 27.9357 20.2498 27.59 20.4601C26.8736 20.896 25.9537 21.1362 25 21.1362C24.0464 21.1362 23.1266 20.896 22.4102 20.4601C22.0647 20.2498 21.6141 20.3595 21.4037 20.705C21.1935 21.0506 21.303 21.5011 21.6486 21.7115C22.605 22.2935 23.7639 22.6011 25 22.6011C26.2361 22.6011 27.3951 22.2935 28.3515 21.7115Z" fill="#3E1A79"/>
</g>
<defs>
<clipPath id="clip0_129_693">
<rect width="50" height="50" fill="white"/>
</clipPath>
</defs>
</svg>
