<svg width="195" height="195" viewBox="0 0 195 195" fill="none" xmlns="http://www.w3.org/2000/svg">
<path d="M108.547 108.791L107.751 109.589L106.957 110.387L106.165 111.187L105.376 111.989L104.588 112.791L103.802 113.595L103.019 114.399L102.238 115.204L101.46 116.01L100.685 116.817L99.9118 117.624L99.1419 118.431L98.375 119.238L97.6113 120.046L96.8507 120.853L96.0935 121.661L95.3397 122.467L94.5895 123.274L93.8429 124.08L93.1 124.885L92.3609 125.689L91.6258 126.492L90.8947 127.295L90.1678 128.096L89.4451 128.895L88.7267 129.694L88.0127 130.49L87.3032 131.285L86.5984 132.078L85.8982 132.869L85.2028 133.658L84.5123 134.444L83.8268 135.229L83.1463 136.01L82.4709 136.789L81.8008 137.566L81.1359 138.339L80.4764 139.11L79.8224 139.877L79.174 140.641L78.5311 141.401L77.894 142.158L77.2626 142.911L76.637 143.661L76.0174 144.406L75.4037 145.148L74.7961 145.885L74.1946 146.618L73.5993 147.346L73.0103 148.07L72.4275 148.789L71.8512 149.504L71.2813 150.213L70.7178 150.918L70.161 151.617L69.6107 152.311L69.0672 152.999L68.5303 153.682L68.0002 154.359L67.477 155.03L66.9606 155.696L66.4512 156.355L65.9487 157.008L65.4533 157.655L64.9649 158.295L64.4836 158.929L64.0095 159.556L63.5425 160.177L63.0828 160.79L62.6303 161.397L62.1852 161.996L61.7473 162.588L61.3169 163.173L60.8938 163.751L60.4781 164.321L60.0699 164.883L59.6691 165.437L59.2759 165.984L58.8902 166.522L58.512 167.053L58.1414 167.575L57.7783 168.089L57.4229 168.594L57.0751 169.091L56.7349 169.58L56.4024 170.059L56.0775 170.53L55.7603 170.992L55.4507 171.445L55.1489 171.889L54.8547 172.324L54.5682 172.749L54.2894 173.165L54.0184 173.572L53.755 173.969L53.4993 174.356L53.2513 174.734L53.0109 175.102L52.7783 175.46L52.5534 175.808L52.3361 176.146L52.1264 176.473L51.9244 176.791L51.73 177.098L51.5433 177.396L51.3642 177.682L51.1926 177.958L51.0286 178.224L50.8722 178.479L50.7233 178.723L50.5819 178.957L50.4479 179.179L50.3215 179.391L50.2024 179.592L50.0908 179.782L49.9865 179.961L49.8896 180.129L49.8 180.285L49.7177 180.43L49.6427 180.565L49.5748 180.687L49.5142 180.799L49.4606 180.899L49.4142 180.987L49.3749 181.065L49.3425 181.13L49.3172 181.184L49.2988 181.227L49.2872 181.257L49.2826 181.277L49.2847 181.284L49.2936 181.28L49.3092 181.264L49.3315 181.236L49.3604 181.197L49.3958 181.145L49.4378 181.082L49.4862 181.007L49.541 180.92L49.6021 180.821L49.6696 180.711L49.7432 180.588L49.8231 180.454L49.909 180.307L50.001 180.149L50.099 179.979L50.203 179.797L50.3128 179.603L50.4284 179.397L50.5497 179.179L50.6768 178.949L50.8094 178.708L50.9476 178.454L51.0913 178.189L51.2404 177.912L51.3948 177.623L51.5545 177.322L51.7195 177.009L51.8895 176.685L52.0647 176.349L52.2448 176.001L52.4298 175.642L52.6197 175.27L52.8144 174.888L53.0137 174.493L53.2177 174.087L53.4263 173.67L53.6393 173.241L53.8567 172.801L54.0785 172.349L54.3045 171.886L54.5347 171.411L54.769 170.926L55.0073 170.429L55.2495 169.921L55.4956 169.402L55.7455 168.872L55.9991 168.331L56.2563 167.779L56.5171 167.216L56.7813 166.643L57.049 166.059L57.3199 165.464L57.594 164.858L57.8713 164.243L58.1517 163.616L58.435 162.979L58.7213 162.333L59.0103 161.675L59.3022 161.008L59.5966 160.331L59.8937 159.644L60.1932 158.946L60.4952 158.24L60.7995 157.523L61.106 156.797L61.4148 156.061L61.7256 155.316L62.0384 154.562L62.3532 153.798L62.6698 153.026L62.9882 152.244L63.3082 151.454L63.6299 150.654L63.9531 149.846L64.2778 149.029L64.6038 148.204L64.9311 147.371L65.2596 146.529L65.5893 145.679L65.92 144.821L66.2516 143.955L66.5842 143.082L66.9176 142.2L67.2518 141.312L67.5866 140.415L67.922 139.512L68.2578 138.601L68.5942 137.683L68.9309 136.758L69.2679 135.827L69.6051 134.888L69.9425 133.943L70.2799 132.992L70.6173 132.035L70.9546 131.071L71.2918 130.101L71.6288 129.126L71.9655 128.144L72.3018 127.157L72.6377 126.165L72.973 125.167L73.3079 124.164L73.6421 123.156L73.9755 122.144L74.3083 121.126L74.6401 120.104L74.9711 119.077L75.3012 118.046L75.6302 117.011L75.9581 115.972L76.2849 114.929L76.6105 113.883L76.9348 112.832L77.2577 111.779L77.5793 110.722L77.8995 109.662L78.2181 108.599L78.5352 107.533L78.8507 106.465L79.1645 105.394L79.4766 104.321L79.7869 103.246L80.0954 102.168L80.4021 101.089L80.7068 100.008L81.0095 98.926L81.3102 97.8422L81.6088 96.7573L81.9053 95.6713L82.1997 94.5844L82.4918 93.4967L82.7817 92.4085L83.0693 91.3199L83.3546 90.2311L83.6375 89.1422L83.918 88.0533L84.196 86.9647L84.4716 85.8765L84.7446 84.7889L85.0151 83.7019L85.2829 82.6159L85.5482 81.5309L85.8107 80.4472L86.0706 79.3648L86.3277 78.284L86.5821 77.2048L86.8337 76.1276L87.0826 75.0523L87.3285 73.9793L87.5716 72.9086L87.8118 71.8404L88.0491 70.7749L88.2835 69.7122L88.5149 68.6525L88.7434 67.596L88.9688 66.5427L89.1913 65.493L89.4107 64.4469L89.6271 63.4046L89.8404 62.3662L90.0506 61.3319L90.2578 60.3019L90.4618 59.2763L90.6628 58.2553L90.8607 57.2391L91.0554 56.2277L91.247 55.2213L91.4354 54.2202L91.6207 53.2244L91.8029 52.2341L91.9819 51.2494L92.1577 50.2706L92.3304 49.2977L92.5 48.3309L92.6664 47.3703L92.8296 46.4162L92.9897 45.4685L93.1466 44.5276L93.3004 43.5935L93.4511 42.6664L93.5987 41.7464L93.7431 40.8336L93.8844 39.9283L94.0226 39.0304L94.1578 38.1403L94.2898 37.258L94.4188 36.3836L94.5448 35.5173L94.6677 34.6592L94.7876 33.8094L94.9045 32.9682L95.0184 32.1355L95.1294 31.3116L95.2374 30.4965L95.3424 29.6905L95.4446 28.8935L95.5439 28.1058L95.6403 27.3275L95.734 26.5586L95.8248 25.7993L95.9128 25.0497L95.998 24.31L96.0806 23.5802L96.1604 22.8605L96.2376 22.151L96.3121 21.4517L96.384 20.7628L96.4534 20.0844L96.5202 19.4166L96.5844 18.7596L96.6462 18.1133L96.7056 17.4779L96.7626 16.8536L96.8172 16.2403L96.8694 15.6383L96.9194 15.0475L96.9671 14.4681L97.0126 13.9002L97.0559 13.3439L97.097 12.7992L97.1361 12.2662L97.1731 11.7451L97.2081 11.2358L97.2411 10.7385L97.2722 10.2533L97.3015 9.78023L97.3288 9.31935L97.3544 8.87073L97.3783 8.43447L97.4004 8.01061L97.4209 7.59924L97.4398 7.2004L97.4571 6.81418L97.4729 6.44061L97.4872 6.07977L97.5001 5.73171L97.5117 5.39649L97.5219 5.07415L97.5309 4.76475L97.5387 4.46833L97.5452 4.18495L97.5507 3.91464L97.5552 3.65744L97.5586 3.41341L97.561 3.18257L97.5626 2.96496L97.5633 2.76062L97.5632 2.56958L97.5624 2.39187L97.5608 2.2275L97.5587 2.07653L97.5559 1.93895L97.5526 1.8148L97.5489 1.7041L97.5447 1.60686L97.5401 1.5231L97.5353 1.45283L97.5302 1.39606L97.5248 1.3528L97.5194 1.32306L97.5138 1.30685L97.5082 1.30415L97.5026 1.31499L97.4971 1.33934L97.4917 1.37722L97.4865 1.42861L97.4816 1.49351L97.4769 1.5719L97.4725 1.66377L97.4686 1.76911L97.4651 1.88791L97.4622 2.02014L97.4597 2.16578L97.458 2.32482L97.4568 2.49722L97.4564 2.68296L97.4568 2.88201L97.458 3.09434L97.4601 3.31992L97.4631 3.5587L97.4672 3.81066L97.4722 4.07575L97.4784 4.35394L97.4857 4.64517L97.4941 4.94941L97.5039 5.2666L97.5149 5.5967L97.5273 5.93966L97.541 6.29541L97.5562 6.66391L97.5729 7.0451L97.5912 7.43893L97.611 7.84532L97.6325 8.26421L97.6556 8.69554L97.6805 9.13925L97.7072 9.59526L97.7357 10.0635L97.766 10.5439L97.7983 11.0364L97.8325 11.5409L97.8687 12.0573L97.9069 12.5856L97.9472 13.1256L97.9897 13.6773L98.0343 14.2406L98.0811 14.8154L98.1302 15.4017L98.1815 15.9993L98.2352 16.6081L98.2912 17.228L98.3496 17.859L98.4104 18.5009L98.4737 19.1537L98.5395 19.8173L98.6078 20.4914L98.6787 21.1762L98.7522 21.8713L98.8283 22.5768L98.9071 23.2925L98.9885 24.0182L99.0727 24.754L99.1596 25.4997L99.2493 26.2551L99.3418 27.0202L99.4371 27.7948L99.5353 28.5788L99.6363 29.3721L99.7402 30.1745L99.847 30.986L99.9568 31.8064L100.07 32.6356L100.185 33.4734L100.304 34.3198L100.426 35.1746L100.55 36.0377L100.678 36.9088L100.809 37.788L100.943 38.6751L101.08 39.5699L101.22 40.4722L101.363 41.3821L101.509 42.2992L101.659 43.2235L101.811 44.1549L101.967 45.0931L102.126 46.0381L102.288 46.9896L102.453 47.9477L102.621 48.912L102.793 49.8825L102.967 50.859L103.145 51.8413L103.326 52.8294L103.51 53.823L103.697 54.8221L103.888 55.8264L104.081 56.8358L104.278 57.8501L104.477 58.8692L104.68 59.893L104.886 60.9213L105.095 61.9539L105.307 62.9906L105.523 64.0314L105.741 65.076L105.962 66.1243L106.186 67.1762L106.413 68.2314L106.644 69.2899L106.877 70.3514L107.113 71.4158L107.352 72.4829L107.594 73.5527L107.839 74.6248L108.087 75.6992L108.337 76.7757L108.59 77.8541L108.846 78.9342L109.105 80.016L109.367 81.0993L109.631 82.1838L109.898 83.2694L110.167 84.356L110.439 85.4433L110.714 86.5314L110.991 87.6198L111.27 88.7086L111.552 89.7975L111.836 90.8864L112.123 91.9751L112.412 93.0635L112.703 94.1514L112.997 95.2386L113.293 96.325L113.59 97.4104L113.89 98.4946L114.192 99.5776L114.496 100.659L114.802 101.739L115.11 102.817L115.419 103.893L115.731 104.967L116.044 106.039L116.359 107.108L116.675 108.175L116.993 109.239L117.313 110.3L117.634 111.358L117.956 112.413L118.28 113.465L118.605 114.513L118.931 115.557L119.259 116.598L119.587 117.635L119.917 118.667L120.248 119.696L120.579 120.72L120.912 121.739L121.245 122.754L121.579 123.764L121.913 124.769L122.248 125.768L122.584 126.763L122.92 127.752L123.257 128.735L123.594 129.713L123.931 130.685L124.268 131.652L124.605 132.612L124.943 133.565L125.28 134.513L125.617 135.454L125.955 136.388L126.291 137.316L126.628 138.236L126.964 139.15L127.3 140.056L127.635 140.956L127.969 141.847L128.303 142.732L128.636 143.608L128.968 144.477L129.299 145.339L129.629 146.192L129.958 147.037L130.286 147.873L130.612 148.702L130.937 149.522L131.261 150.333L131.584 151.136L131.904 151.93L132.223 152.716L132.541 153.492L132.856 154.259L133.17 155.017L133.481 155.766L133.791 156.505L134.098 157.235L134.404 157.955L134.706 158.666L135.007 159.367L135.305 160.058L135.601 160.74L135.893 161.411L136.184 162.072L136.471 162.723L136.755 163.364L137.037 163.994L137.316 164.614L137.591 165.224L137.863 165.823L138.132 166.412L138.398 166.989L138.66 167.556L138.919 168.113L139.174 168.658L139.425 169.192L139.673 169.716L139.916 170.228L140.156 170.729L140.392 171.219L140.624 171.698L140.852 172.166L141.075 172.622L141.294 173.067L141.509 173.5L141.719 173.922L141.925 174.333L142.126 174.732L142.323 175.119L142.515 175.495L142.702 175.859L142.884 176.212L143.061 176.552L143.233 176.882L143.4 177.199L143.562 177.504L143.718 177.798L143.87 178.08L144.015 178.35L144.156 178.608L144.291 178.855L144.42 179.089L144.544 179.312L144.661 179.522L144.774 179.721L144.88 179.908L144.98 180.083L145.075 180.246L145.163 180.397L145.245 180.536L145.321 180.663L145.391 180.779L145.455 180.882L145.512 180.974L145.563 181.054L145.608 181.121L145.646 181.178L145.677 181.222L145.702 181.254L145.721 181.275L145.732 181.284L145.737 181.281L145.735 181.266L145.726 181.24L145.711 181.202L145.688 181.153L145.658 181.092L145.622 181.019L145.578 180.935L145.528 180.84L145.47 180.733L145.405 180.615L145.333 180.485L145.253 180.344L145.167 180.192L145.073 180.029L144.971 179.854L144.862 179.669L144.746 179.472L144.623 179.265L144.492 179.047L144.354 178.817L144.208 178.577L144.054 178.327L143.893 178.065L143.725 177.793L143.549 177.511L143.365 177.218L143.173 176.915L142.974 176.601L142.768 176.277L142.554 175.943L142.332 175.599L142.102 175.245L141.865 174.881L141.62 174.507L141.367 174.124L141.107 173.731L140.839 173.328L140.563 172.916L140.28 172.494L139.989 172.063L139.69 171.623L139.383 171.173L139.069 170.715L138.747 170.248L138.418 169.772L138.081 169.287L137.736 168.793L137.384 168.291L137.024 167.78L136.656 167.261L136.281 166.734L135.898 166.199L135.508 165.656L135.11 165.104L134.705 164.545L134.292 163.978L133.872 163.404L133.445 162.822L133.01 162.233L132.567 161.636L132.118 161.033L131.661 160.422L131.197 159.804L130.726 159.18L130.247 158.548L129.762 157.911L129.269 157.266L128.769 156.616L128.263 155.959L127.749 155.296L127.229 154.627L126.701 153.952L126.167 153.272L125.626 152.585L125.079 151.894L124.524 151.197L123.963 150.494L123.396 149.787L122.822 149.074L122.242 148.357L121.656 147.635L121.063 146.908L120.464 146.177L119.859 145.442L119.247 144.702L118.63 143.958L118.007 143.21L117.378 142.458L116.743 141.703L116.102 140.944L115.456 140.181L114.804 139.415L114.147 138.646L113.484 137.874L112.816 137.099L112.143 136.321L111.464 135.54L110.781 134.757L110.092 133.971L109.399 133.183L108.701 132.393L107.998 131.601L107.29 130.807L106.578 130.011L105.861 129.213L105.14 128.414L104.415 127.614L103.685 126.812L102.952 126.009L102.214 125.205L101.473 124.4L100.728 123.595L99.9791 122.789L99.2267 121.982L98.4708 121.175L97.7116 120.367L96.9491 119.56L96.1835 118.753L95.4148 117.945L94.6432 117.138L93.8687 116.331L93.0916 115.525L92.3118 114.72L91.5296 113.915L90.7449 113.111L89.958 112.308L89.169 111.506L88.3779 110.706L87.5849 109.906L86.7901 109.109L85.9936 108.312L85.1955 107.518L84.396 106.725L83.5951 105.935L82.7931 105.146L81.9899 104.36L81.1858 103.575L80.3808 102.794L79.5751 102.014L78.7688 101.238L77.962 100.464L77.1549 99.693L76.3476 98.9249L75.5401 98.1599L74.7327 97.3981L73.9254 96.6395L73.1184 95.8844L72.3118 95.1327L71.5057 94.3846L70.7003 93.6402L69.8956 92.8996L69.0919 92.1629L68.2892 91.4302L67.4877 90.7016L66.6875 89.9772L65.8886 89.2571L65.0914 88.5413L64.2958 87.8301L63.5021 87.1233L62.7103 86.4213L61.9206 85.724L61.133 85.0316L60.3478 84.344L59.5651 83.6615L58.785 82.9841L58.0076 82.3119L57.233 81.6449L56.4614 80.9833L55.6929 80.3271L54.9277 79.6764L54.1658 79.0313L53.4075 78.3919L52.6527 77.7582L51.9018 77.1303L51.1547 76.5083L50.4116 75.8922L49.6726 75.2822L48.938 74.6783L48.2077 74.0805L47.482 73.489L46.7609 72.9037L46.0445 72.3248L45.3331 71.7523L44.6267 71.1863L43.9255 70.6268L43.2295 70.0739L42.539 69.5277L41.8539 68.9882L41.1745 68.4554L40.5009 67.9295L39.8332 67.4103L39.1715 66.8981L38.5159 66.3929L37.8665 65.8946L37.2236 65.4034L36.5871 64.9193L35.9572 64.4423L35.3341 63.9725L34.7178 63.5099L34.1084 63.0546L33.5062 62.6065L32.9111 62.1657L32.3233 61.7323L31.7429 61.3063L31.17 60.8876L30.6048 60.4765L30.0472 60.0727L29.4976 59.6765L28.9559 59.2878L28.4222 58.9066L27.8967 58.533L27.3795 58.1669L26.8706 57.8084L26.3702 57.4576L25.8784 57.1144L25.3953 56.7788L24.9209 56.4509L24.4554 56.1306L23.9988 55.818L23.5513 55.5131L23.113 55.2159L22.6839 54.9263L22.2641 54.6445L21.8538 54.3703L21.4529 54.1039L21.0617 53.8451L20.6802 53.594L20.3084 53.3507L19.9464 53.115L19.5944 52.887L19.2524 52.6666L18.9205 52.4539L18.5988 52.2489L18.2873 52.0515L17.9861 51.8617L17.6953 51.6795L17.415 51.505L17.1452 51.338L16.886 51.1785L16.6374 51.0266L16.3996 50.8822L16.1726 50.7453L15.9565 50.6159L15.7512 50.4939L15.5569 50.3793L15.3737 50.2721L15.2015 50.1723L15.0405 50.0798L14.8907 49.9946L14.7521 49.9166L14.6248 49.8459L14.5088 49.7824L14.4042 49.726L14.3111 49.6768L14.2294 49.6346L14.1592 49.5995L14.1005 49.5714L14.0535 49.5502L14.018 49.536L13.9942 49.5286L13.9821 49.528L13.9816 49.5342L13.9929 49.5472L14.016 49.5668L14.0508 49.5931L14.0975 49.6259L14.1559 49.6653L14.2262 49.7111L14.3084 49.7634L14.4024 49.822L14.5083 49.8869L14.6261 49.9581L14.7558 50.0355L14.8975 50.119L15.051 50.2086L15.2164 50.3043L15.3938 50.4058L15.583 50.5133L15.7842 50.6266L15.9973 50.7457L16.2223 50.8705L16.4591 51.0009L16.7079 51.1369L16.9685 51.2784L17.241 51.4253L17.5253 51.5777L17.8214 51.7353L18.1293 51.8981L18.4491 52.0662L18.7805 52.2393L19.1237 52.4174L19.4785 52.6005L19.8451 52.7885L20.2233 52.9812L20.613 53.1787L21.0144 53.3809L21.4272 53.5877L21.8516 53.7989L22.2874 54.0146L22.7346 54.2346L23.1931 54.459L23.663 54.6875L24.1441 54.9202L24.6365 55.1569L25.14 55.3976L25.6546 55.6421L26.1802 55.8905L26.7168 56.1427L27.2644 56.3984L27.8228 56.6578L28.392 56.9206L28.972 57.1869L29.5626 57.4565L30.1638 57.7294L30.7756 58.0055L31.3978 58.2846L32.0304 58.5668L32.6732 58.8519L33.3263 59.1399L33.9896 59.4306L34.6629 59.724L35.3462 60.02L36.0394 60.3186L36.7423 60.6196L37.455 60.923L38.1774 61.2286L38.9092 61.5365L39.6505 61.8465L40.4011 62.1585L41.161 62.4726L41.9301 62.7884L42.7082 63.1061L43.4952 63.4255L44.2911 63.7466L45.0957 64.0692L45.9089 64.3932L46.7307 64.7187L47.5609 65.0455L48.3993 65.3736L49.246 65.7028L50.1008 66.0331L50.9635 66.3644L51.834 66.6966L52.7123 67.0297L53.5982 67.3635L54.4915 67.6981L55.3923 68.0332L56.3002 68.369L57.2153 68.7051L58.1374 69.0417L59.0663 69.3786L60.002 69.7157L60.9442 70.053L61.893 70.3904L62.848 70.7279L63.8093 71.0652L64.7766 71.4025L65.7499 71.7395L66.7289 72.0763L67.7136 72.4128L68.7039 72.7489L69.6995 73.0845L70.7003 73.4195L71.7062 73.754L72.7171 74.0877L73.7328 74.4208L74.7531 74.753L75.778 75.0844L76.8072 75.4148L77.8407 75.7442L78.8782 76.0726L79.9196 76.3998L80.9648 76.7259L82.0136 77.0507L83.0659 77.3742L84.1215 77.6963L85.1802 78.0171L86.242 78.3363L87.3066 78.654L88.3739 78.9702L89.4438 79.2847L90.516 79.5974L91.5905 79.9085L92.667 80.2177L93.7454 80.5251L94.8256 80.8305L95.9074 81.1341L96.9906 81.4356L98.0751 81.735L99.1608 82.0324L100.247 82.3276L101.335 82.6206L102.423 82.9114L103.511 83.2L104.6 83.4862L105.689 83.77L106.778 84.0515L107.866 84.3305L108.955 84.607L110.043 84.8811L111.13 85.1525L112.216 85.4214L113.302 85.6877L114.386 85.9513L115.469 86.2123L116.55 86.4705L117.63 86.726L118.708 86.9787L119.784 87.2287L120.858 87.4758L121.93 87.72L122.999 87.9614L124.066 88.1998L125.13 88.4354L126.19 88.668L127.248 88.8976L128.303 89.1243L129.354 89.3479L130.402 89.5685L131.445 89.7861L132.485 90.0006L133.521 90.2121L134.553 90.4205L135.58 90.6258L136.603 90.828L137.621 91.0271L138.635 91.223L139.643 91.4159L140.646 91.6056L141.644 91.7921L142.637 91.9755L143.624 92.1558L144.605 92.3329L145.58 92.5068L146.549 92.6777L147.513 92.8453L148.469 93.0098L149.419 93.1711L150.363 93.3293L151.3 93.4844L152.23 93.6363L153.153 93.7851L154.068 93.9308L154.977 94.0733L155.878 94.2128L156.771 94.3491L157.656 94.4824L158.534 94.6126L159.403 94.7398L160.265 94.8639L161.118 94.985L161.962 95.1031L162.799 95.2182L163.626 95.3303L164.445 95.4395L165.254 95.5457L166.055 95.6491L166.846 95.7495L167.628 95.8471L168.401 95.9418L169.164 96.0337L169.918 96.1228L170.661 96.2092L171.395 96.2928L172.119 96.3737L172.832 96.452L173.536 96.5275L174.229 96.6005L174.911 96.6708L175.583 96.7387L176.245 96.8039L176.895 96.8667L177.535 96.927L178.164 96.985L178.781 97.0405L179.388 97.0937L179.983 97.1445L180.567 97.1931L181.14 97.2395L181.701 97.2837L182.25 97.3257L182.788 97.3656L183.313 97.4034L183.827 97.4392L184.329 97.473L184.819 97.5049L185.297 97.5348L185.763 97.5629L186.217 97.5892L186.658 97.6137L187.087 97.6365L187.503 97.6577L187.907 97.6772L188.298 97.6951L188.677 97.7115L189.043 97.7264L189.396 97.7399L189.736 97.752L190.064 97.7628L190.378 97.7722L190.68 97.7805L190.968 97.7875L191.244 97.7934L191.506 97.7983L191.756 97.8021L191.992 97.8049L192.215 97.8068L192.424 97.8079L192.62 97.8081L192.804 97.8075L192.973 97.8063L193.129 97.8043L193.272 97.8018L193.402 97.7987L193.518 97.7952L193.621 97.7911L193.71 97.7867L193.785 97.782L193.847 97.777L193.896 97.7717L193.931 97.7663L193.953 97.7608L193.961 97.7552L193.955 97.7496L193.937 97.7441L193.904 97.7386L193.858 97.7333L193.798 97.7283L193.725 97.7235L193.639 97.719L193.539 97.7149L193.426 97.7112L193.299 97.708L193.158 97.7054L193.005 97.7034L192.838 97.702L192.657 97.7013L192.463 97.7013L192.256 97.7022L192.036 97.7039L191.802 97.7066L191.556 97.7102L191.296 97.7148L191.023 97.7205L190.737 97.7274L190.438 97.7354L190.126 97.7446L189.801 97.7551L189.463 97.7669L189.112 97.7802L188.749 97.7948L188.373 97.8109L187.984 97.8285L187.583 97.8477L187.169 97.8685L186.742 97.891L186.303 97.9152L185.852 97.9411L185.389 97.9689L184.913 97.9985L184.426 98.03L183.926 98.0634L183.414 98.0988L182.891 98.1362L182.355 98.1757L181.808 98.2173L181.25 98.2611L180.679 98.307L180.098 98.3551L179.505 98.4056L178.9 98.4583L178.285 98.5134L177.658 98.5708L177.02 98.6307L176.372 98.693L175.713 98.7578L175.043 98.8251L174.362 98.895L173.671 98.9674L172.97 99.0425L172.258 99.1202L171.536 99.2006L170.805 99.2836L170.063 99.3695L169.311 99.4581L168.55 99.5494L167.779 99.6436L166.999 99.7406L166.209 99.8405L165.411 99.9433L164.603 100.049L163.786 100.158L162.96 100.269L162.126 100.384L161.283 100.501L160.431 100.622L159.571 100.745L158.704 100.872L157.828 101.001L156.944 101.134L156.052 101.27L155.152 101.409L154.246 101.551L153.331 101.696L152.41 101.844L151.481 101.995L150.546 102.15L149.604 102.307L148.655 102.468L147.699 102.632L146.737 102.799L145.769 102.969L144.795 103.142L143.815 103.319L142.829 103.499L141.838 103.681L140.841 103.867L139.839 104.056L138.831 104.249L137.819 104.444L136.802 104.642L135.78 104.844L134.753 105.049L133.722 105.256L132.687 105.467L131.648 105.681L130.605 105.898L129.558 106.118L128.508 106.341L127.454 106.567L126.396 106.797L125.336 107.029L124.273 107.264L123.207 107.501L122.138 107.742L121.067 107.986L119.993 108.232L118.918 108.482L117.84 108.734L116.761 108.989L115.679 109.247L114.597 109.507L113.513 109.77L112.428 110.036L111.341 110.304L110.254 110.575L109.166 110.849L108.078 111.125L106.989 111.403L105.901 111.684L104.812 111.968L103.723 112.254L102.634 112.542L101.546 112.832L100.459 113.125L99.372 113.419L98.2862 113.716L97.2015 114.015L96.118 114.317L95.0359 114.62L93.9554 114.925L92.8766 115.232L91.7997 115.541L90.7248 115.851L89.6521 116.164L88.5818 116.478L87.514 116.794L86.4488 117.111L85.3865 117.43L84.3271 117.751L83.2709 118.072L82.218 118.396L81.1685 118.72L80.1226 119.046L79.0804 119.373L78.0421 119.701L77.0079 120.031L75.9778 120.361L74.9521 120.692L73.9309 121.024L72.9143 121.357L71.9024 121.69L70.8955 122.025L69.8937 122.36L68.897 122.695L67.9058 123.031L66.92 123.368L65.9398 123.704L64.9654 124.041L63.9969 124.379L63.0345 124.716L62.0782 125.053L61.1282 125.391L60.1847 125.728L59.2477 126.065L58.3175 126.402L57.3941 126.739L56.4776 127.075L55.5683 127.411L54.6661 127.746L53.7713 128.081L52.884 128.415L52.0042 128.748L51.1321 129.081L50.2679 129.412L49.4116 129.743L48.5633 130.072L47.7233 130.4L46.8914 130.727L46.068 131.053L45.2531 131.377L44.4468 131.7L43.6493 132.022L42.8605 132.341L42.0807 132.659L41.3098 132.976L40.5482 133.29L39.7957 133.602L39.0526 133.913L38.3189 134.221L37.5947 134.527L36.8801 134.831L36.1753 135.133L35.4802 135.432L34.795 135.728L34.1197 136.022L33.4545 136.313L32.7994 136.602L32.1545 136.887L31.52 137.17L30.8957 137.45L30.282 137.727L29.6787 138L29.086 138.27L28.5039 138.537L27.9326 138.801L27.3721 139.061L26.8224 139.317L26.2837 139.57L25.7559 139.819L25.2391 140.065L24.7335 140.306L24.239 140.544L23.7556 140.777L23.2836 141.006L22.8228 141.232L22.3734 141.452L21.9354 141.669L21.5088 141.881L21.0937 142.089L20.6901 142.292L20.2981 142.49L19.9177 142.684L19.5489 142.873L19.1917 143.057L18.8463 143.236L18.5125 143.41L18.1906 143.579L17.8804 143.743L17.5819 143.902L17.2953 144.055L17.0205 144.203L16.7576 144.346L16.5065 144.483L16.2674 144.614L16.0401 144.74L15.8247 144.86L15.6212 144.975L15.4296 145.083L15.2499 145.186L15.0822 145.283L14.9263 145.374L14.7824 145.458L14.6504 145.537L14.5303 145.609L14.422 145.675L14.3257 145.735L14.2412 145.789L14.1686 145.836L14.1079 145.876L14.0589 145.911L14.0218 145.938L13.9964 145.959L13.9829 145.973L13.981 145.981L13.9909 145.982L14.0124 145.976L14.0456 145.963L14.0904 145.943L14.1468 145.916L14.2148 145.882L14.2942 145.841L14.3852 145.794L14.4876 145.739L14.6013 145.676L14.7264 145.607L14.8628 145.531L15.0105 145.447L15.1693 145.356L15.3393 145.257L15.5204 145.152L15.7125 145.038L15.9156 144.918L16.1297 144.79L16.3546 144.654L16.5903 144.512L16.8368 144.361L17.0939 144.203L17.3616 144.038L17.6399 143.864L17.9287 143.684L18.2278 143.496L18.5373 143.3L18.8571 143.096L19.187 142.885L19.5271 142.666L19.8771 142.439L20.2372 142.205L20.607 141.963L20.9867 141.714L21.376 141.457L21.775 141.192L22.1835 140.919L22.6015 140.639L23.0288 140.351L23.4653 140.055L23.911 139.751L24.3658 139.44L24.8296 139.122L25.3023 138.795L25.7837 138.461L26.2739 138.119L26.7726 137.77L27.2798 137.413L27.7954 137.048L28.3193 136.676L28.8514 136.296L29.3915 135.909L29.9397 135.514L30.4957 135.112L31.0594 134.702L31.6308 134.285L32.2098 133.861L32.7962 133.429L33.3898 132.989L33.9907 132.543L34.5987 132.089L35.2137 131.627L35.8355 131.159L36.464 130.683L37.0992 130.201L37.741 129.711L38.3891 129.214L39.0434 128.71L39.704 128.199L40.3705 127.682L41.043 127.157L41.7213 126.625L42.4053 126.087L43.0948 125.542L43.7897 124.991L44.4899 124.432L45.1953 123.868L45.9058 123.297L46.6211 122.719L47.3413 122.135L48.0662 121.544L48.7956 120.948L49.5294 120.345L50.2675 119.736L51.0098 119.121L51.7561 118.501L52.5063 117.874L53.2604 117.241L54.0181 116.603L54.7792 115.959L55.5438 115.309L56.3117 114.654L57.0827 113.994L57.8567 113.328L58.6335 112.656L59.4132 111.98L60.1954 111.299L60.9801 110.612L61.7672 109.92L62.5565 109.224L63.3479 108.523L64.1413 107.817L64.9365 107.107L65.7335 106.392L66.532 105.673L67.3319 104.949L68.1332 104.221L68.9357 103.489L69.7392 102.753L70.5437 102.014L71.349 101.27L72.155 100.523L72.9615 99.7716L73.7684 99.0171L74.5757 98.2592L75.3831 97.498L76.1905 96.7336L76.9979 95.9661L77.8051 95.1956L78.6119 94.4223L79.4183 93.6462L80.2242 92.8675L81.0293 92.0862L81.8336 91.3025L82.6369 90.5165L83.4392 89.7283L84.2403 88.938L85.0401 88.1457L85.8385 87.3516L86.6353 86.5558L87.4304 85.7583L88.2238 84.9593L89.0153 84.159L89.8047 83.3574L90.5921 82.5547L91.3772 81.7509L92.1599 80.9463L92.9401 80.1408L93.7178 79.3348L94.4928 78.5282L95.265 77.7212L96.0342 76.9139L96.8004 76.1065L97.5636 75.299L98.3234 74.4917L99.08 73.6845L99.833 72.8777L100.583 72.0714L101.328 71.2657L102.071 70.4608L102.809 69.6567L103.543 68.8535L104.273 68.0515L104.999 67.2508L105.721 66.4514L106.439 65.6535L107.152 64.8573L107.86 64.0628L108.564 63.2702L109.264 62.4796L109.958 61.6912L110.647 60.905L111.332 60.1213L112.011 59.3401L112.686 58.5616L113.355 57.7859L114.019 57.0131L114.677 56.2434L115.33 55.4768L115.977 54.7136L116.619 53.9538L117.255 53.1976L117.885 52.4451L118.509 51.6965L119.128 50.9518L119.74 50.2112L120.347 49.4748L120.947 48.7428L121.541 48.0152L122.129 47.2922L122.71 46.574L123.285 45.8606L123.854 45.1522L124.416 44.4489L124.971 43.7508L125.52 43.0581L126.062 42.3708L126.598 41.6892L127.127 41.0133L127.648 40.3432L128.163 39.679L128.671 39.021L129.172 38.3692L129.666 37.7236L130.153 37.0846L130.633 36.4521L131.106 35.8262L131.571 35.2072L132.03 34.5951L132.481 33.9899L132.924 33.392L133.361 32.8013L133.79 32.2179L134.211 31.642L134.625 31.0737L135.032 30.5131L135.431 29.9603L135.823 29.4154L136.207 28.8785L136.584 28.3498L136.953 27.8292L137.314 27.317L137.668 26.8133L138.014 26.318L138.353 25.8314L138.684 25.3535L139.007 24.8845L139.323 24.4244L139.631 23.9732L139.931 23.5312L140.224 23.0985L140.509 22.675L140.786 22.2609L141.056 21.8562L141.317 21.4612L141.572 21.0757L141.818 20.7L142.057 20.3342L142.288 19.9782L142.511 19.6322L142.727 19.2963L142.935 18.9705L143.135 18.6549L143.328 18.3496L143.513 18.0547L143.691 17.7702L143.861 17.4962L144.024 17.2327L144.178 16.9799L144.326 16.7379L144.466 16.5065L144.598 16.286L144.723 16.0764L144.841 15.8778L144.951 15.6902L145.053 15.5136L145.149 15.3481L145.237 15.1938L145.318 15.0507L145.391 14.9189L145.458 14.7985L145.517 14.6893L145.569 14.5916L145.614 14.5053L145.652 14.4306L145.683 14.3673L145.707 14.3156L145.724 14.2755L145.734 14.2471L145.737 14.2303L145.734 14.2252L145.723 14.2318L145.706 14.2502L145.683 14.2804L145.653 14.3223L145.616 14.376L145.573 14.4416L145.523 14.5191L145.467 14.6084L145.404 14.7096L145.336 14.8226L145.261 14.9476L145.18 15.0845L145.092 15.2332L144.999 15.3939L144.9 15.5665L144.795 15.751L144.684 15.9475L144.567 16.1558L144.445 16.3761L144.316 16.6082L144.183 16.8522L144.043 17.1081L143.898 17.3759L143.748 17.6555L143.593 17.9469L143.432 18.2501L143.266 18.5652L143.095 18.8919L142.919 19.2305L142.738 19.5807L142.552 19.9426L142.361 20.3161L142.165 20.7013L141.965 21.098L141.76 21.5063L141.55 21.9261L141.336 22.3573L141.118 22.8L140.895 23.254L140.669 23.7194L140.438 24.196L140.202 24.6839L139.963 25.183L139.72 25.6932L139.473 26.2144L139.223 26.7467L138.968 27.2899L138.711 27.844L138.449 28.4089L138.184 28.9846L137.916 29.571L137.644 30.168L137.369 30.7756L137.092 31.3936L136.811 32.0221L136.527 32.6609L136.24 33.3099L135.95 33.9691L135.658 34.6384L135.363 35.3177L135.065 36.007L134.765 36.7061L134.463 37.4149L134.158 38.1334L133.851 38.8615L133.542 39.599L133.231 40.346L132.917 41.1022L132.602 41.8676L132.285 42.6421L131.966 43.4256L131.646 44.2179L131.324 45.0191L131.001 45.8289L130.676 46.6473L130.349 47.4741L130.022 48.3093L129.693 49.1528L129.363 50.0043L129.032 50.8639L128.7 51.7313L128.368 52.6065L128.034 53.4894L127.7 54.3798L127.365 55.2776L127.029 56.1827L126.693 57.095L126.357 58.0143L126.02 58.9405L125.683 59.8735L125.346 60.8131L125.008 61.7593L124.671 62.7118L124.334 63.6706L123.996 64.6356L123.659 65.6065L123.322 66.5833L122.986 67.5657L122.649 68.5538L122.314 69.5473L121.978 70.546L121.644 71.5499L121.31 72.5589L120.976 73.5727L120.644 74.5912L120.312 75.6142L119.981 76.6417L119.651 77.6735L119.323 78.7094L118.995 79.7493L118.668 80.793L118.343 81.8404L118.019 82.8913L117.696 83.9456L117.375 85.0032L117.055 86.0637L116.737 87.1272L116.42 88.1935L116.105 89.2624L115.791 90.3337L115.48 91.4072L115.17 92.483L114.862 93.5607L114.555 94.6402L114.251 95.7214L113.949 96.804L113.649 97.888L113.35 98.9732L113.054 100.059L112.76 101.146L112.469 102.234L112.179 103.323L111.892 104.411L111.607 105.5L111.325 106.589L111.045 107.678L110.767 108.766L110.492 109.854L110.22 110.942L109.95 112.029L109.683 113.115L109.418 114.199L109.156 115.283L108.896 116.365L108.64 117.445L108.386 118.524L108.135 119.601L107.887 120.676L107.641 121.748L107.399 122.819L107.159 123.886L106.923 124.951L106.689 126.013L106.458 127.072L106.23 128.128L106.005 129.181L105.783 130.23L105.565 131.275L105.349 132.317L105.136 133.354L104.927 134.388L104.72 135.417L104.517 136.441L104.316 137.461L104.119 138.477L103.925 139.487L103.734 140.492L103.546 141.492L103.362 142.487L103.18 143.476L103.002 144.46L102.827 145.437L102.654 146.409L102.486 147.375L102.32 148.334L102.157 149.287L101.998 150.233L101.841 151.173L101.688 152.105L101.538 153.031L101.391 153.95L101.248 154.861L101.107 155.765L100.969 156.661L100.835 157.549L100.703 158.43L100.575 159.303L100.45 160.168L100.327 161.024L100.208 161.872L100.092 162.712L99.9784 163.542L99.8681 164.365L99.7607 165.178L99.6562 165.982L99.5546 166.777L99.4559 167.563L99.36 168.339L99.267 169.106L99.1768 169.864L99.0893 170.611L99.0046 171.349L98.9226 172.077L98.8433 172.794L98.7667 173.502L98.6927 174.199L98.6213 174.886L98.5525 175.562L98.4862 176.227L98.4225 176.882L98.3611 177.526L98.3023 178.16L98.2458 178.782L98.1917 179.393L98.1399 179.992L98.0904 180.581L98.0431 181.158L97.9981 181.723L97.9552 182.277L97.9145 182.82L97.8759 183.35L97.8393 183.869L97.8047 184.376L97.772 184.871L97.7413 185.353L97.7125 185.824L97.6855 186.282L97.6603 186.729L97.6368 187.162L97.6149 187.584L97.5948 187.992L97.5763 188.389L97.5593 188.772L97.5438 189.143L97.5297 189.502L97.5171 189.847L97.5058 190.18L97.4958 190.499L97.4871 190.806L97.4796 191.1L97.4732 191.381L97.468 191.648L97.4637 191.903L97.4605 192.144L97.4583 192.372L97.4569 192.587L97.4563 192.789L97.4566 192.977L97.4576 193.152L97.4592 193.314L97.4615 193.462L97.4644 193.597L97.4678 193.718L97.4716 193.826L97.4759 193.921L97.4805 194.002L97.4854 194.069L97.4906 194.123L97.496 194.164L97.5014 194.191L97.507 194.204L97.5126 194.204L97.5182 194.191L97.5237 194.163L97.529 194.123L97.5342 194.069L97.5391 194.001L97.5437 193.92L97.548 193.825L97.5518 193.717L97.5552 193.596L97.558 193.461L97.5603 193.312L97.562 193.151L97.563 192.975L97.5632 192.787L97.5627 192.585L97.5613 192.37L97.559 192.142L97.5558 191.9L97.5516 191.646L97.5463 191.378L97.5399 191.097L97.5324 190.803L97.5237 190.496L97.5137 190.177L97.5024 189.844L97.4897 189.498L97.4757 189.14L97.4601 188.769L97.4431 188.385L97.4246 187.989L97.4044 187.58L97.3826 187.158L97.3591 186.724L97.3339 186.278L97.3068 185.82L97.278 185.349L97.2472 184.866L97.2146 184.371L97.18 183.864L97.1434 183.345L97.1047 182.815L97.064 182.272L97.0211 181.718L96.976 181.153L96.9287 180.575L96.8792 179.987L96.8274 179.387L96.7733 178.776L96.7168 178.154L96.6579 177.521L96.5966 176.876L96.5328 176.221L96.4665 175.556L96.3976 174.879L96.3262 174.193L96.2522 173.495L96.1755 172.788L96.0962 172.07L96.0142 171.342L95.9295 170.604L95.842 169.857L95.7517 169.099L95.6587 168.332L95.5628 167.556L95.4641 166.77L95.3625 165.975L95.2579 165.17L95.1505 164.357L95.0401 163.535L94.9268 162.704L94.8105 161.864L94.6912 161.016L94.5689 160.16L94.4435 159.295L94.3151 158.422L94.1836 157.541L94.0491 156.653L93.9115 155.756L93.7708 154.852L93.6269 153.941L93.48 153.023L93.3299 152.097L93.1767 151.164L93.0204 150.224L92.8609 149.278L92.6983 148.325L92.5325 147.366L92.3636 146.4L92.1915 145.429L92.0163 144.451L91.8379 143.467L91.6563 142.478L91.4716 141.483L91.2838 140.483L91.0928 139.478L90.8987 138.467L90.7015 137.452L90.5011 136.432L90.2977 135.407L90.0911 134.378L89.8815 133.345L89.6688 132.307L89.453 131.266L89.2341 130.22L89.0123 129.171L88.7874 128.119L88.5596 127.063L88.3287 126.004L88.0949 124.941L87.8582 123.876L87.6185 122.809L87.376 121.739L87.1306 120.666L86.8823 119.591L86.6313 118.514L86.3774 117.435L86.1208 116.355L85.8615 115.273L85.5994 114.189L85.3347 113.105L85.0673 112.019L84.7974 110.932L84.5249 109.845L84.2498 108.756L83.9723 107.668L83.6922 106.579L83.4098 105.49L83.125 104.401L82.8378 103.313L82.5484 102.224L82.2567 101.137L81.9627 100.049L81.6666 98.9633L81.3684 97.8781L81.0681 96.7941L80.7658 95.7115L80.4615 94.6303L80.1552 93.5508L79.8471 92.4731L79.5371 91.3974L79.2254 90.3238L78.9119 89.2525L78.5967 88.1837L78.2799 87.1175L77.9616 86.054L77.6417 84.9935L77.3204 83.936L76.9977 82.8817L76.6737 81.8308L76.3483 80.7835L76.0218 79.7398L75.6941 78.6999L75.3653 77.664L75.0354 76.6323L74.7046 75.6049L74.3729 74.5818L74.0403 73.5634L73.707 72.5496L73.3729 71.5407L73.0382 70.5369L72.703 69.5381L72.3672 68.5447L72.0309 67.5567L71.6943 66.5743L71.3574 65.5976L71.0203 64.6267L70.6829 63.6618L70.3455 62.7031L70.0081 61.7506L69.6708 60.8045L69.3335 59.8649L68.9965 58.932L68.6597 58.0058L68.3233 57.0866L67.9873 56.1744L67.6518 55.2693L67.3169 54.3716L66.9826 53.4813L66.649 52.5985L66.3163 51.7233L65.9844 50.856L65.6535 49.9965L65.3237 49.145L64.9949 48.3017L64.6674 47.4665L64.3411 46.6398L64.0162 45.8215L63.6927 45.0117L63.3707 44.2107L63.0503 43.4184L62.7316 42.635L62.4147 41.8606L62.0995 41.0953L61.7863 40.3391L61.4751 39.5923L61.166 38.8548L60.859 38.1268L60.5543 37.4084L60.2518 36.6997L59.9518 36.0007L59.6543 35.3115L59.3593 34.6323L59.067 33.9631L58.7774 33.3039L58.4905 32.655L58.2066 32.0163L57.9257 31.3879L57.6478 30.77L57.373 30.1625L57.1015 29.5656L56.8332 28.9793L56.5683 28.4037L56.3068 27.8389L56.0489 27.2849L55.7946 26.7418L55.544 26.2096L55.2972 25.6885L55.0542 25.1784L54.8151 24.6794L54.58 24.1916L54.349 23.7151L54.1222 23.2498L53.8996 22.7959L53.6813 22.3533L53.4674 21.9222L53.258 21.5025L53.0531 21.0943L52.8529 20.6977L52.6573 20.3127L52.4664 19.9392L52.2805 19.5774L52.0994 19.2273L51.9233 18.8889L51.7522 18.5623L51.5863 18.2474L51.4256 17.9442L51.2701 17.6529L51.12 17.3734L50.9752 17.1058L50.836 16.85L50.7022 16.6061L50.5741 16.374L50.4516 16.1539L50.3349 15.9457L50.224 15.7493L50.1189 15.5649L50.0197 15.3924L49.9265 15.2319L49.8394 15.0832L49.7584 14.9464L49.6835 14.8216L49.6149 14.7086L49.5525 14.6076L49.4964 14.5184L49.4468 14.441L49.4036 14.3756L49.3669 14.3219L49.3367 14.2801L49.3131 14.25L49.2962 14.2318L49.286 14.2253L49.2826 14.2305L49.2859 14.2474L49.2961 14.2759L49.3131 14.3161L49.3371 14.3679L49.3681 14.4313L49.4061 14.5061L49.4511 14.5925L49.5033 14.6903L49.5626 14.7996L49.629 14.9202L49.7027 15.0521L49.7835 15.1952L49.8717 15.3496L49.9672 15.5152L50.07 15.6919L50.1802 15.8796L50.2978 16.0784L50.4228 16.2881L50.5553 16.5087L50.6953 16.7401L50.8427 16.9823L50.9977 17.2352L51.1602 17.4987L51.3303 17.7728L51.508 18.0574L51.6932 18.3524L51.8861 18.6578L52.0866 18.9735L52.2948 19.2994L52.5106 19.6354L52.734 19.9815L52.9652 20.3375L53.204 20.7035L53.4505 21.0793L53.7047 21.4648L53.9666 21.8599L54.2362 22.2647L54.5135 22.6788L54.7985 23.1024L55.0911 23.5353L55.3915 23.9774L55.6996 24.4286L56.0153 24.8888L56.3387 25.3579L56.6697 25.8359L57.0084 26.3226L57.3547 26.8179L57.7087 27.3218L58.0702 27.834L58.4394 28.3546L58.8161 28.8835L59.2003 29.4204L59.5921 29.9654L59.9914 30.5183L60.3982 31.0789L60.8124 31.6473L61.2341 32.2233L61.6631 32.8067L62.0995 33.3975L62.5433 33.9955L62.9943 34.6007L63.4526 35.2129L63.9182 35.832L64.3909 36.4579L64.8708 37.0904L65.3578 37.7296L65.8519 38.3752L66.353 39.027L66.8611 39.6851L67.3761 40.3493L67.898 41.0195L68.4268 41.6954L68.9623 42.3772L69.5046 43.0645L70.0535 43.7572L70.6091 44.4554L71.1712 45.1587L71.7399 45.8672L72.315 46.5806L72.8965 47.2989L73.4843 48.0219L74.0784 48.7495L74.6787 49.4816L75.2851 50.218L75.8976 50.9587L76.5161 51.7034L77.1405 52.4521L77.7708 53.2046L78.4068 53.9608L79.0485 54.7206L79.6959 55.4839L80.3489 56.2505L81.0073 57.0202L81.6711 57.793L82.3402 58.5688L83.0146 59.3473L83.6941 60.1285L84.3786 60.9123L85.0682 61.6984L85.7626 62.4869L86.4619 63.2775L87.1658 64.0701L87.8744 64.8646L88.5875 65.6608L89.305 66.4587L90.0269 67.2581L90.753 68.0589L91.4833 68.8609L92.2177 69.664L92.956 70.4682L93.6981 71.2731L94.444 72.0788L95.1936 72.8852L95.9467 73.6919L96.7032 74.4991L97.4631 75.3064L98.2263 76.1139L98.9925 76.9213L99.7618 77.7286L100.534 78.5356L101.309 79.3422L102.087 80.1482L102.867 80.9537L103.65 81.7583L104.435 82.562L105.222 83.3648L106.012 84.1663L106.803 84.9667L107.597 85.7656L108.392 86.5631L109.189 87.3589L109.987 88.153L110.787 88.9452L111.588 89.7355L112.39 90.5237L113.193 91.3097L113.998 92.0934L114.803 92.8746L115.609 93.6533L116.415 94.4294L117.222 95.2027L118.029 95.9731L118.837 96.7406L119.644 97.5049L120.451 98.2661L121.259 99.024L122.066 99.7784L122.872 100.529L123.678 101.277L124.483 102.02L125.288 102.76L126.091 103.496L126.894 104.228L127.695 104.956L128.495 105.679L129.294 106.398L130.09 107.113L130.886 107.824L131.679 108.529L132.47 109.231L133.26 109.927L134.047 110.618L134.831 111.305L135.614 111.986L136.393 112.663L137.17 113.334L137.944 114L138.715 114.66L139.483 115.315L140.247 115.965L141.009 116.609L141.766 117.247L142.52 117.88L143.27 118.506L144.017 119.127L144.759 119.742L145.497 120.351L146.231 120.953L146.96 121.55L147.685 122.14L148.405 122.724L149.12 123.302L149.831 123.873L150.536 124.438L151.236 124.996L151.931 125.547L152.621 126.092L153.305 126.63L153.983 127.162L154.655 127.686L155.322 128.204L155.982 128.715L156.637 129.219L157.285 129.715L157.926 130.205L158.561 130.688L159.19 131.163L159.812 131.632L160.427 132.093L161.034 132.547L161.635 132.993L162.229 133.433L162.815 133.864L163.394 134.289L163.965 134.706L164.529 135.116L165.085 135.518L165.633 135.913L166.173 136.3L166.705 136.68L167.229 137.052L167.745 137.416L168.252 137.773L168.75 138.122L169.24 138.464L169.722 138.798L170.194 139.124L170.658 139.443L171.113 139.754L171.558 140.057L171.995 140.353L172.422 140.641L172.84 140.921L173.248 141.194L173.647 141.459L174.036 141.716L174.416 141.966L174.786 142.207L175.146 142.442L175.496 142.668L175.836 142.887L176.166 143.098L176.485 143.301L176.795 143.497L177.094 143.685L177.382 143.866L177.66 144.039L177.928 144.205L178.185 144.362L178.432 144.513L178.667 144.656L178.892 144.791L179.106 144.919L179.309 145.039L179.501 145.153L179.682 145.258L179.852 145.357L180.011 145.448L180.158 145.531L180.294 145.608L180.419 145.677L180.533 145.739L180.635 145.794L180.726 145.842L180.806 145.882L180.873 145.916L180.93 145.943L180.974 145.963L181.007 145.975L181.029 145.981L181.039 145.981L181.037 145.973L181.023 145.959L180.998 145.938L180.96 145.91L180.911 145.876L180.85 145.835L180.778 145.788L180.693 145.735L180.597 145.675L180.488 145.608L180.368 145.536L180.236 145.457L180.092 145.373L179.936 145.282L179.768 145.185L179.588 145.082L179.397 144.973L179.193 144.859L178.978 144.739L178.75 144.613L178.511 144.481L178.26 144.344L177.997 144.202L177.722 144.053L177.435 143.9L177.136 143.741L176.826 143.577L176.504 143.408L176.17 143.234L175.825 143.055L175.467 142.871L175.099 142.682L174.718 142.488L174.326 142.29L173.922 142.087L173.507 141.879L173.08 141.667L172.642 141.45L172.193 141.229L171.732 141.004L171.26 140.775L170.776 140.541L170.282 140.304L169.776 140.062L169.259 139.817L168.731 139.568L168.192 139.315L167.642 139.058L167.082 138.798L166.51 138.535L165.928 138.268L165.335 137.998L164.732 137.724L164.118 137.447L163.494 137.168L162.859 136.885L162.214 136.599L161.559 136.311L160.894 136.019L160.218 135.725L159.533 135.429L158.838 135.13L158.133 134.828L157.418 134.524L156.694 134.218L155.96 133.91L155.217 133.6L154.465 133.287L153.703 132.973L152.932 132.656L152.152 132.338L151.363 132.019L150.565 131.697L149.759 131.374L148.944 131.05L148.121 130.724L147.289 130.397L146.449 130.069L145.6 129.739L144.744 129.409L143.88 129.077L143.007 128.745L142.128 128.412L141.24 128.078L140.345 127.743L139.443 127.408L138.534 127.072L137.617 126.736L136.694 126.399L135.763 126.062L134.826 125.725L133.883 125.388L132.933 125.05L131.976 124.713L131.014 124.375L130.045 124.038L129.071 123.701L128.091 123.365L127.105 123.028L126.113 122.692L125.117 122.357L124.115 122.022L123.108 121.687L122.096 121.354L121.079 121.021L120.058 120.689L119.032 120.358L118.002 120.027L116.968 119.698L115.93 119.37L114.887 119.043L113.842 118.717L112.792 118.393L111.739 118.069L110.683 117.748L109.623 117.427L108.561 117.108L107.496 116.791L106.428 116.475L105.358 116.161L104.285 115.848L103.21 115.538L102.133 115.229L101.054 114.922L99.9738 114.617L98.8917 114.314L97.8082 114.013L96.7235 113.714L95.6377 113.417L94.551 113.122L93.4635 112.829L92.3754 112.539L91.2868 112.251L90.198 111.965L89.1091 111.682L88.0202 111.401L86.9315 111.122L85.8432 110.846L84.7555 110.573L83.6684 110.302L82.5822 110.034L81.497 109.768L80.413 109.505L79.3303 109.244L78.2492 108.987L77.1697 108.732L76.0921 108.48L75.0164 108.23L73.9429 107.984L72.8717 107.74L71.8031 107.499L70.737 107.261L69.6738 107.026L68.6135 106.794L67.5563 106.565L66.5024 106.339L65.452 106.116L64.4052 105.896L63.3621 105.679L62.3229 105.465L61.2879 105.255L60.257 105.047L59.2306 104.842L58.2087 104.641L57.1915 104.442L56.1791 104.247L55.1718 104.055L54.1696 103.866L53.1728 103.68L52.1814 103.497L51.1956 103.317L50.2156 103.141L49.2416 102.968L48.2736 102.797L47.3118 102.63L46.3564 102.466L45.4075 102.306L44.4652 102.148L43.5298 101.994L42.6013 101.843L41.6799 101.694L40.7657 101.549L39.8589 101.407L38.9596 101.269L38.0679 101.133L37.1841 101L36.3081 100.871L35.4403 100.744L34.5805 100.621L33.7292 100.5L32.8862 100.383L32.0519 100.268L31.2263 100.157L30.4095 100.048L29.6017 99.9424L28.8029 99.8397L28.0134 99.7398L27.2332 99.6428L26.4625 99.5486L25.7013 99.4573L24.9499 99.3687L24.2082 99.283L23.4765 99.1999L22.7548 99.1195L22.0433 99.0418L21.342 98.9668L20.6511 98.8944L19.9707 98.8246L19.3008 98.7573L18.6417 98.6925L17.9933 98.6302L17.3558 98.5704L16.7293 98.5129L16.1139 98.4579L15.5096 98.4052L14.9166 98.3548L14.335 98.3066L13.7649 98.2607L13.2063 98.217L12.6593 98.1754L12.1241 98.136L11.6006 98.0985L11.0891 98.0632L10.5895 98.0298L10.1019 97.9983L9.62643 97.9687L9.16316 97.941L8.71214 97.9151L8.27347 97.8909L7.8472 97.8684L7.43339 97.8476L7.03211 97.8285L6.64344 97.8108L6.2674 97.7947L5.90409 97.7801L5.55353 97.7669L5.21581 97.7551L4.89096 97.7446L4.57905 97.7354L4.28009 97.7274L3.99418 97.7206L3.72132 97.7149L3.46158 97.7103L3.21497 97.7067L2.98157 97.704L2.76139 97.7023L2.55446 97.7014L2.36082 97.7014L2.18053 97.7021L2.01356 97.7035L1.85998 97.7055L1.71979 97.7082L1.59305 97.7113L1.47971 97.715L1.37986 97.7191L1.29346 97.7236L1.22058 97.7284L1.16118 97.7335L1.1153 97.7388L1.08292 97.7442L1.06408 97.7497L1.05876 97.7553L1.06695 97.7609L1.08868 97.7665L1.12393 97.7719L1.1727 97.7771L1.23497 97.7821L1.31073 97.7869L1.39998 97.7913L1.50272 97.7953L1.61888 97.7989L1.74852 97.8019L1.89155 97.8045L2.04798 97.8064L2.21777 97.8077L2.40093 97.8082L2.59739 97.808L2.80714 97.8069L3.03016 97.805L3.26637 97.8022L3.51576 97.7983L3.7783 97.7935L4.05394 97.7876L4.34265 97.7805L4.64436 97.7722L4.95902 97.7628L5.28662 97.752L5.62708 97.7399L5.98035 97.7264L6.34639 97.7115L6.72511 97.6951L7.11649 97.6771L7.52043 97.6576L7.93689 97.6365L8.36582 97.6136L8.80712 97.5891L9.26074 97.5628L9.72661 97.5347L10.2046 97.5047L10.6948 97.4728L11.1969 97.439L11.7111 97.4032L12.237 97.3653L12.7748 97.3254L13.3242 97.2834L13.8853 97.2392L14.4579 97.1928L15.0419 97.1442L15.6373 97.0933L16.2439 97.0401L16.8617 96.9845L17.4906 96.9266L18.1304 96.8662L18.7811 96.8034L19.4425 96.7381L20.1146 96.6703L20.7973 96.5999L21.4904 96.5269L22.1939 96.4513L22.9076 96.3731L23.6314 96.2921L24.3653 96.2085L25.109 96.1221L25.8626 96.033L26.6258 95.941L27.3985 95.8463L28.1807 95.7487L28.9722 95.6482L29.7729 95.5448L30.5826 95.4386L31.4013 95.3294L32.2288 95.2172L33.065 95.1021L33.9097 94.984L34.7628 94.8629L35.6243 94.7387L36.4939 94.6115L37.3716 94.4813L38.2571 94.348L39.1504 94.2116L40.0513 94.0721L40.9597 93.9295L41.8754 93.7838L42.7983 93.635L43.7283 93.483L44.6652 93.3279L45.6089 93.1697L46.5592 93.0083L47.516 92.8438L48.4791 92.6761L49.4484 92.5053L50.4237 92.3313L51.405 92.1542L52.3919 91.9739L53.3845 91.7905L54.3825 91.6039L55.3858 91.4142L56.3942 91.2213L57.4076 91.0253L58.4258 90.8262L59.4487 90.624L60.4761 90.4186L61.5079 90.2102L62.5438 89.9987L63.5838 89.7842L64.6277 89.5665L65.6753 89.3459L66.7265 89.1222L67.7811 88.8955L68.8389 88.6659L69.8998 88.4333L70.9637 88.1977L72.0303 87.9592L73.0996 87.7178L74.1712 87.4735L75.2452 87.2264L76.3213 86.9765L77.3993 86.7237L78.4792 86.4682L79.5607 86.2099L80.6436 85.949L81.7279 85.6853L82.8133 85.419L83.8997 85.1501L84.987 84.8786L86.0748 84.6045L87.1632 84.3279L88.252 84.0489L89.3409 83.7674L90.4298 83.4836L91.5186 83.1973L92.607 82.9088L93.695 82.618L94.7824 82.3249L95.8689 82.0297L96.9545 81.7323L98.039 81.4328L99.1222 81.1313L100.204 80.8277L101.284 80.5222L102.363 80.2149L103.439 79.9056L104.514 79.5946L105.586 79.2818L106.656 78.9673L107.723 78.6511L108.787 78.3334L109.849 78.0141L110.908 77.6934L111.963 77.3712L113.016 77.0477L114.065 76.7229L115.11 76.3968L116.151 76.0695L117.189 75.7412L118.222 75.4117L119.251 75.0813L120.276 74.7499L121.296 74.4177L122.312 74.0846L123.323 73.7509L124.329 73.4164L125.329 73.0814L126.325 72.7458L127.315 72.4097L128.3 72.0732L129.279 71.7364L130.252 71.3994L131.219 71.0621L132.18 70.7247L133.135 70.3873L134.084 70.0499L135.026 69.7126L135.962 69.3755L136.891 69.0386L137.813 68.702L138.728 68.3658L139.636 68.0301L140.536 67.695L141.43 67.3604L142.316 67.0266L143.194 66.6935L144.064 66.3613L144.927 66.03L145.782 65.6997L146.628 65.3705L147.467 65.0425L148.297 64.7157L149.118 64.3902L149.931 64.0661L150.736 63.7435L151.532 63.4225L152.319 63.1031L153.097 62.7855L153.866 62.4696L154.626 62.1556L155.376 61.8436L156.117 61.5336L156.849 61.2258L157.571 60.9201L158.284 60.6168L158.987 60.3158L159.68 60.0172L160.363 59.7212L161.036 59.4278L161.699 59.1371L162.352 58.8492L162.995 58.5641L163.628 58.282L164.25 58.0029L164.861 57.7268L165.463 57.454L166.053 57.1844L166.633 56.9181L167.202 56.6553L167.76 56.396L168.308 56.1402L168.844 55.8881L169.37 55.6398L169.884 55.3952L170.388 55.1546L170.88 54.9179L171.361 54.6853L171.831 54.4568L172.289 54.2325L172.736 54.0125L173.172 53.7969L173.596 53.5856L174.009 53.3789L174.41 53.1768L174.8 52.9794L175.178 52.7866L175.544 52.5987L175.899 52.4157L176.242 52.2376L176.574 52.0645L176.893 51.8965L177.201 51.7337L177.497 51.5761L177.781 51.4239L178.054 51.277L178.314 51.1355L178.563 50.9996L178.8 50.8692L179.024 50.7445L179.237 50.6255L179.438 50.5122L179.628 50.4048L179.805 50.3033L179.97 50.2077L180.124 50.1181L180.265 50.0347L180.395 49.9573L180.512 49.8862L180.618 49.8213L180.712 49.7628L180.794 49.7106L180.864 49.6648L180.923 49.6255L180.969 49.5927L181.004 49.5665L181.027 49.5469L181.038 49.5341L181.038 49.5279L181.025 49.5285L181.001 49.536L180.966 49.5503L180.919 49.5715L180.86 49.5997L180.79 49.6349L180.708 49.6771L180.615 49.7264L180.51 49.7829L180.394 49.8465L180.266 49.9172L180.128 49.9952L179.978 50.0805L179.817 50.1731L179.644 50.273L179.461 50.3802L179.267 50.4949L179.061 50.6169L178.845 50.7464L178.618 50.8834L178.38 51.0279L178.131 51.1799L177.872 51.3394L177.602 51.5064L177.322 51.6811L177.031 51.8633L176.73 52.0532L176.418 52.2506L176.096 52.4557L175.764 52.6685L175.422 52.8889L175.07 53.117L174.708 53.3528L174.336 53.5962L173.954 53.8474L173.563 54.1062L173.162 54.3727L172.752 54.647L172.332 54.9289L171.903 55.2185L171.464 55.5158L171.017 55.8208L170.56 56.1334L170.095 56.4538L169.62 56.7818L169.137 57.1174L168.645 57.4607L168.144 57.8116L167.636 58.1702L167.118 58.5363L166.593 58.91L166.059 59.2912L165.517 59.68L164.967 60.0763L164.41 60.4801L163.844 60.8914L163.272 61.3101L162.691 61.7362L162.103 62.1697L161.508 62.6105L160.906 63.0586L160.296 63.5141L159.68 63.9767L159.057 64.4466L158.427 64.9237L157.79 65.4079L157.147 65.8991L156.498 66.3974L155.842 66.9027L155.18 67.415L154.513 67.9342L153.839 68.4602L153.16 68.9931L152.474 69.5326L151.784 70.0789L151.088 70.6319L150.387 71.1914L149.68 71.7575L148.969 72.33L148.252 72.909L147.531 73.4943L146.805 74.0859L146.075 74.6837L145.34 75.2877L144.601 75.8978L143.858 76.5139L143.111 77.136L142.36 77.7639L141.605 78.3977L140.847 79.0372L140.085 79.6823L139.32 80.3331L138.551 80.9893L137.78 81.651L137.005 82.318L136.228 82.9903L135.447 83.6677L134.665 84.3503L133.879 85.0379L133.092 85.7304L132.302 86.4277L131.51 87.1298L130.717 87.8365L129.921 88.5478L129.124 89.2636L128.325 89.9838L127.525 90.7083L126.723 91.4369L125.92 92.1696L125.117 92.9064L124.312 93.647L123.507 94.3914L122.7 95.1395L121.894 95.8912L121.087 96.6464L120.28 97.405L119.472 98.1669L118.665 98.9319L117.857 99.7L117.05 100.471L116.243 101.245L115.437 102.022L114.631 102.801L113.827 103.583L113.022 104.367L112.219 105.153L111.417 105.942L110.616 106.733L109.817 107.525L109.019 108.32L108.222 109.116L107.428 109.914L106.634 110.713L105.843 111.514L105.054 112.315L104.268 113.118L103.483 113.922L102.701 114.727L101.921 115.533L101.144 116.339L100.369 117.146L99.5978 117.953L98.8291 118.76L98.0635 119.567L97.3011 120.375L96.5419 121.182L95.7861 121.989L95.0337 122.796L94.2849 123.602L93.5398 124.408L92.7984 125.212L92.061 126.016L91.3275 126.819L90.5981 127.621L89.8729 128.422L89.1519 129.221L88.4353 130.018L87.7231 130.814L87.0155 131.608L86.3126 132.4L85.6144 133.191L84.921 133.979L84.2325 134.764L83.549 135.547L82.8705 136.328L82.1973 137.106L81.5293 137.881L80.8666 138.653L80.2094 139.422L79.5576 140.188L78.9114 140.951L78.2709 141.71L77.6361 142.465L77.007 143.217L76.3839 143.965L75.7667 144.709L75.1555 145.449L74.5503 146.184L73.9514 146.915L73.3586 147.642L72.7721 148.364L72.192 149.081L71.6182 149.793L71.051 150.501L70.4902 151.203L69.936 151.9L69.3885 152.592L68.8477 153.278L68.3136 153.958L67.7863 154.633L67.2658 155.302L66.7523 155.965L66.2457 156.622L65.7461 157.272L65.2535 157.916L64.768 158.554L64.2896 159.185L63.8184 159.81L63.3544 160.427L62.8976 161.038L62.4481 161.642L62.0059 162.238L61.5711 162.828L61.1436 163.409L60.7235 163.984L60.3109 164.55L59.9057 165.11L59.508 165.661L59.1178 166.204L58.7352 166.739L58.3601 167.266L57.9926 167.785L57.6326 168.296L57.2803 168.798L56.9356 169.291L56.5985 169.776L56.2691 170.252L55.9474 170.719L55.6333 171.178L55.3268 171.627L55.0281 172.067L54.7371 172.498L54.4537 172.92L54.1781 173.332L53.9101 173.734L53.6499 174.128L53.3973 174.511L53.1524 174.885L52.9153 175.249L52.6858 175.602L52.4639 175.946L52.2497 176.28L52.0432 176.604L51.8443 176.918L51.6531 177.221L51.4694 177.514L51.2934 177.796L51.1249 178.068L50.964 178.329L50.8106 178.58L50.6648 178.82L50.5264 179.049L50.3955 179.267L50.2721 179.474L50.1561 179.671L50.0474 179.856L49.9462 180.03L49.8522 180.194L49.7656 180.346L49.6863 180.486L49.6142 180.616L49.5492 180.734L49.4915 180.841L49.4409 180.936L49.3973 181.02L49.3608 181.093L49.3314 181.154L49.3088 181.203L49.2932 181.241L49.2845 181.267L49.2826 181.281L49.2875 181.284L49.2992 181.275L49.3175 181.254L49.3425 181.221L49.374 181.177L49.4121 181.121L49.4567 181.053L49.5077 180.973L49.5651 180.881L49.6288 180.778L49.6988 180.662L49.775 180.535L49.8574 180.396L49.9458 180.244L50.0402 180.081L50.1407 179.906L50.247 179.719L50.3592 179.52L50.4771 179.31L50.6008 179.087L50.7301 178.852L50.8651 178.606L51.0055 178.348L51.1514 178.078L51.3027 177.796L51.4593 177.502L51.6211 177.196L51.7881 176.879L51.9603 176.549L52.1374 176.209L52.3196 175.856L52.5066 175.492L52.6984 175.116L52.895 174.728L53.0963 174.329L53.3021 173.919L53.5125 173.496L53.7274 173.063L53.9466 172.618L54.1701 172.162L54.3978 171.694L54.6296 171.215L54.8656 170.725L55.1055 170.223L55.3493 169.711L55.597 169.187L55.8484 168.653L56.1035 168.108L56.3621 167.551L56.6243 166.984L56.8899 166.406L57.1589 165.818L57.4312 165.219L57.7066 164.609L57.9852 163.989L58.2668 163.358L58.5513 162.717L58.8387 162.066L59.1289 161.405L59.4218 160.733L59.7173 160.052L60.0154 159.361L60.3159 158.66L60.6189 157.949L60.9241 157.228L61.2315 156.498L61.5411 155.759L61.8528 155.01L62.1664 154.252L62.4819 153.485L62.7993 152.708L63.1183 151.923L63.4391 151.129L63.7614 150.326L64.0852 149.514L64.4104 148.694L64.7369 147.866L65.0648 147.029L65.3938 146.184L65.7238 145.331L66.055 144.47L66.387 143.6L66.7199 142.724L67.0536 141.839L67.3881 140.947L67.7231 140.048L68.0587 139.141L68.3948 138.228L68.7313 137.307L69.0682 136.379L69.4052 135.445L69.7425 134.504L70.0799 133.557L70.4173 132.603L70.7547 131.643L71.092 130.677L71.4291 129.704L71.766 128.727L72.1025 127.743L72.4387 126.754L72.7743 125.759L73.1095 124.759L73.4441 123.754L73.778 122.744L74.1112 121.73L74.4436 120.71L74.7751 119.686L75.1057 118.658L75.4353 117.625L75.7639 116.588L76.0914 115.548L76.4177 114.503L76.7427 113.455L77.0665 112.404L77.3889 111.349L77.7099 110.29L78.0295 109.229L78.3475 108.165L78.6639 107.098L78.9787 106.029L79.2919 104.957L79.6032 103.883L79.9128 102.807L80.2206 101.729L80.5264 100.649L80.8303 99.5677L81.1322 98.4847L81.4321 97.4004L81.7299 96.315L82.0255 95.2286L82.319 94.1414L82.6102 93.0535L82.8992 91.9652L83.1858 90.8764L83.4701 89.7875L83.7521 88.6986L84.0316 87.6098L84.3086 86.5214L84.5831 85.4334L84.8551 84.346L85.1245 83.2594L85.3913 82.1738L85.6554 81.0893L85.9169 80.0061L86.1757 78.9244L86.4317 77.8442L86.685 76.7658L86.9354 75.6893L87.1831 74.6149L87.4279 73.5428L87.6698 72.4731L87.9088 71.406L88.145 70.3416L88.3781 69.2801L88.6083 68.2217L88.8356 67.1665L89.0598 66.1147L89.281 65.0664L89.4992 64.0218L89.7143 62.9811L89.9264 61.9444L90.1354 60.9118L90.3413 59.8836L90.5441 58.8599L90.7438 57.8408L90.9403 56.8265L91.1338 55.8171L91.3241 54.8129L91.5113 53.8139L91.6953 52.8203L91.8762 51.8323L92.0539 50.85L92.2284 49.8735L92.3999 48.9031L92.5681 47.9388L92.7332 46.9809L92.8952 46.0294L93.054 45.0844L93.2097 44.1463L93.3622 43.215L93.5116 42.2908L93.6579 41.3737L93.801 40.4639L93.9411 39.5616L94.0781 38.6669L94.2119 37.7799L94.3428 36.9008L94.4705 36.0297L94.5952 35.1667L94.7169 34.312L94.8356 33.4657L94.9512 32.6279L95.064 31.7988L95.1737 30.9785L95.2805 30.1671L95.3844 29.3647L95.4854 28.5715L95.5835 27.7876L95.6788 27.0131L95.7713 26.2481L95.8609 25.4928L95.9478 24.7472L96.032 24.0115L96.1134 23.2858L96.1922 22.5702L96.2682 21.8649L96.3417 21.1698L96.4126 20.4852L96.4809 19.8111L96.5466 19.1477L96.6099 18.495L96.6707 17.8532L96.7291 17.2223L96.7851 16.6024L96.8387 15.9937L96.89 15.3963L96.9391 14.8101L96.9859 14.2354L97.0305 13.6722L97.0729 13.1206L97.1132 12.5807L97.1514 12.0525L97.1876 11.5362L97.2218 11.0318L97.254 10.5394L97.2844 10.0591L97.3128 9.59102L97.3395 9.13512L97.3643 8.69152L97.3875 8.26031L97.4089 7.84153L97.4288 7.43526L97.447 7.04155L97.4637 6.66047L97.4789 6.29208L97.4926 5.93645L97.505 5.59361L97.516 5.26363L97.5257 4.94656L97.5342 4.64243L97.5415 4.35132L97.5476 4.07326L97.5527 3.80828L97.5567 3.55645L97.5597 3.31778L97.5618 3.09233L97.563 2.88012L97.5633 2.6812L97.5629 2.49558L97.5618 2.3233L97.56 2.16439L97.5576 2.01887L97.5546 1.88676L97.5511 1.76809L97.5472 1.66287L97.5429 1.57111L97.5382 1.49285L97.5332 1.42808L97.528 1.37681L97.5226 1.33906L97.5171 1.31483L97.5115 1.30412L97.5059 1.30693L97.5004 1.32328L97.4949 1.35314L97.4896 1.39652L97.4845 1.45341L97.4796 1.52381L97.4751 1.6077L97.4709 1.70506L97.4671 1.81589L97.4639 1.94016L97.4611 2.07785L97.4589 2.22896L97.4574 2.39344L97.4566 2.57128L97.4565 2.76244L97.4572 2.96691L97.4588 3.18463L97.4612 3.41559L97.4647 3.65975L97.4691 3.91706L97.4746 4.18749L97.4812 4.471L97.489 4.76753L97.4979 5.07705L97.5082 5.39951L97.5198 5.73485L97.5327 6.08303L97.5471 6.44398L97.5629 6.81766L97.5802 7.20401L97.5991 7.60296L97.6196 8.01445L97.6417 8.43842L97.6656 8.8748L97.6912 9.32352L97.7186 9.78452L97.7478 10.2577L97.7789 10.7431L97.812 11.2404L97.847 11.7498L97.884 12.2711L97.9231 12.8041L97.9643 13.3489L98.0076 13.9054L98.0531 14.4734L98.1008 15.0529L98.1508 15.6437L98.2031 16.2459L98.2577 16.8593L98.3147 17.4837L98.3741 18.1192L98.4359 18.7656L98.5002 19.4227L98.567 20.0906L98.6364 20.7691L98.7083 21.4581L98.7829 22.1574L98.8601 22.8671L98.9399 23.5869L99.0225 24.3168L99.1078 25.0566L99.1958 25.8062L99.2866 26.5656L99.3803 27.3346L99.4767 28.113L99.5761 28.9008L99.6783 29.6978L99.7834 30.504L99.8914 31.3191L100.002 32.1431L100.116 32.9758L100.233 33.8172L100.353 34.667L100.476 35.5252L100.602 36.3916L100.731 37.266L100.863 38.1484L100.998 39.0386L101.137 39.9365L101.278 40.842L101.422 41.7548L101.57 42.6749L101.721 43.6021L101.875 44.5362L102.032 45.4772L102.192 46.4249L102.355 47.3791L102.521 48.3397L102.691 49.3066L102.864 50.2795L103.039 51.2584L103.219 52.2431L103.401 53.2335L103.586 54.2293L103.775 55.2305L103.966 56.2369L104.161 57.2484L104.359 58.2647L104.56 59.2857L104.764 60.3113L104.971 61.3414L105.181 62.3757L105.395 63.4141L105.611 64.4565L105.83 65.5026L106.053 66.5524L106.278 67.6056L106.507 68.6622L106.738 69.7219L106.973 70.7846L107.21 71.8502L107.45 72.9184L107.693 73.9891L107.939 75.0622L108.188 76.1374L108.44 77.2147L108.694 78.2939L108.951 79.3747L109.211 80.4571L109.474 81.5409L109.739 82.6259L110.007 83.7119L110.278 84.7988L110.551 85.8865L110.826 86.9747L111.104 88.0633L111.385 89.1521L111.668 90.2411L111.953 91.3299L112.241 92.4185L112.531 93.5067L112.823 94.5944L113.117 95.6812L113.414 96.7672L113.712 97.8522L114.013 98.9359L114.316 100.018L114.62 101.099L114.927 102.178L115.236 103.256L115.546 104.331L115.858 105.404L116.172 106.475L116.487 107.543L116.804 108.609L117.123 109.672L117.443 110.732L117.765 111.788L118.088 112.842L118.412 113.892L118.738 114.939L119.065 115.982L119.392 117.021L119.721 118.056L120.052 119.087L120.383 120.113L120.714 121.135L121.047 122.153L121.381 123.166L121.715 124.174L122.05 125.176L122.385 126.174L122.721 127.166L123.057 128.153L123.394 129.135L123.731 130.11L124.068 131.08L124.405 132.043L124.743 133.001L125.08 133.952L125.418 134.897L125.755 135.835L126.092 136.767L126.429 137.691L126.765 138.609L127.101 139.52L127.436 140.423L127.771 141.32L128.105 142.209L128.438 143.09L128.771 143.963L129.103 144.829L129.433 145.687L129.763 146.537L130.092 147.379L130.419 148.212L130.745 149.037L131.069 149.854L131.393 150.662L131.714 151.461L132.034 152.251L132.353 153.033L132.669 153.805L132.984 154.569L133.297 155.323L133.608 156.068L133.916 156.804L134.223 157.53L134.527 158.246L134.829 158.953L135.129 159.65L135.426 160.337L135.72 161.014L136.012 161.681L136.301 162.338L136.587 162.985L136.871 163.622L137.151 164.248L137.428 164.864L137.702 165.469L137.973 166.064L138.241 166.648L138.505 167.222L138.766 167.784L139.023 168.336L139.276 168.877L139.526 169.407L139.772 169.926L140.015 170.434L140.253 170.93L140.487 171.416L140.717 171.89L140.943 172.353L141.165 172.805L141.382 173.245L141.595 173.674L141.804 174.091L142.008 174.497L142.207 174.891L142.402 175.274L142.592 175.645L142.776 176.004L142.957 176.352L143.132 176.688L143.302 177.012L143.467 177.325L143.626 177.625L143.781 177.914L143.93 178.191L144.073 178.457L144.211 178.71L144.344 178.952L144.471 179.181L144.592 179.399L144.708 179.605L144.818 179.799L144.921 179.981L145.019 180.151L145.111 180.309L145.197 180.455L145.277 180.589L145.351 180.712L145.418 180.822L145.479 180.921L145.534 181.008L145.582 181.083L145.624 181.146L145.659 181.197L145.688 181.236L145.711 181.264L145.726 181.28L145.735 181.284L145.737 181.276L145.732 181.257L145.721 181.226L145.702 181.184L145.677 181.13L145.644 181.064L145.605 180.987L145.558 180.898L145.505 180.798L145.444 180.686L145.376 180.563L145.301 180.429L145.219 180.284L145.129 180.127L145.032 179.959L144.928 179.78L144.816 179.59L144.697 179.389L144.57 179.177L144.436 178.954L144.295 178.721L144.146 178.476L143.989 178.221L143.825 177.956L143.654 177.68L143.475 177.393L143.288 177.096L143.093 176.788L142.891 176.47L142.682 176.142L142.464 175.804L142.239 175.456L142.006 175.098L141.766 174.73L141.518 174.352L141.262 173.965L140.999 173.568L140.728 173.161L140.449 172.745L140.162 172.32L139.868 171.885L139.566 171.441L139.256 170.988L138.939 170.526L138.614 170.055L138.282 169.575L137.941 169.087L137.593 168.59L137.238 168.084L136.875 167.57L136.504 167.048L136.126 166.517L135.74 165.979L135.347 165.432L134.946 164.878L134.538 164.315L134.122 163.745L133.699 163.168L133.268 162.583L132.83 161.991L132.385 161.391L131.933 160.785L131.473 160.171L131.006 159.55L130.532 158.923L130.05 158.289L129.562 157.649L129.066 157.002L128.564 156.349L128.054 155.689L127.538 155.024L127.015 154.353L126.484 153.676L125.947 152.993L125.404 152.304L124.854 151.61L124.297 150.911L123.733 150.207L123.163 149.497L122.587 148.783L122.004 148.064L121.415 147.34L120.82 146.611L120.218 145.878L119.61 145.141L118.997 144.399L118.377 143.654L117.751 142.904L117.12 142.151L116.483 141.394L115.84 140.634L115.191 139.87L114.537 139.102L113.878 138.332L113.213 137.559L112.543 136.782L111.867 136.003L111.187 135.221L110.501 134.437L109.81 133.651L109.115 132.862L108.415 132.071L107.71 131.278L107 130.483L106.286 129.686L105.568 128.888L104.845 128.088L104.118 127.287L103.387 126.485L102.652 125.682L101.913 124.877L101.17 124.072L100.423 123.266L99.673 122.46L98.9192 121.653L98.1619 120.846L97.4014 120.039L96.6376 119.231L95.8707 118.424L95.1008 117.616L94.328 116.809L93.5525 116.003L92.7742 115.197L91.9935 114.392L91.2102 113.587L90.4247 112.784L89.6369 111.981L88.847 111.18L88.0551 110.38L87.2613 109.581L86.4658 108.784L85.6686 107.989L84.87 107.195L84.0699 106.403L83.2685 105.613L82.466 104.825L81.6624 104.04L80.858 103.257L80.0527 102.476L79.2467 101.698L78.4402 100.922L77.6333 100.15L76.8261 99.3797L76.0187 98.6129L75.2112 97.8492L74.4038 97.0887L73.5966 96.3315L72.7898 95.5777L71.9833 94.8275L71.1775 94.0809L70.3724 93.3381L69.5681 92.599L68.7648 91.864L67.9626 91.1329L67.1615 90.406L66.3619 89.6833L65.5637 88.965L64.7671 88.251L63.9723 87.5416L63.1793 86.8368L62.3883 86.1367L61.5995 85.4414L60.8129 84.7509L60.0287 84.0654L59.247 83.385L58.468 82.7096L57.6917 82.0395L56.9183 81.3747L56.148 80.7153L55.3808 80.0614L54.6169 79.413L53.8565 78.7702L53.0996 78.133L52.3464 77.5017L51.597 76.8762L50.8515 76.2566L50.1101 75.643L49.3729 75.0355L48.64 74.434L47.9115 73.8388L47.1877 73.2498L46.4685 72.6671L45.7541 72.0908L45.0448 71.521L44.3404 70.9576L43.6413 70.4008L42.9476 69.8506L42.2592 69.3071L41.5765 68.7703L40.8994 68.2403L40.2282 67.7172L39.5629 67.2009L38.9037 66.6915L38.2506 66.1891L37.6039 65.6937L36.9635 65.2054L36.3297 64.7242L35.7026 64.2501L35.0822 63.7832L34.4687 63.3236L33.8623 62.8712L33.2629 62.4261L32.6707 61.9883L32.0859 61.5579L31.5086 61.1348L30.9388 60.7192L30.3767 60.3111L29.8224 59.9104L29.2759 59.5172L28.7375 59.1316L28.2072 58.7535L27.685 58.3829L27.1712 58.02L26.6658 57.6646L26.1689 57.3169L25.6806 56.9768L25.201 56.6443L24.7302 56.3195L24.2683 56.0023L23.8155 55.6929L23.3717 55.3911L22.9371 55.097L22.5118 54.8106L22.0958 54.5319L21.6894 54.2609L21.2924 53.9975L20.9051 53.7419L20.5275 53.494L20.1597 53.2537L19.8018 53.0212L19.4539 52.7963L19.116 52.579L18.7882 52.3695L18.4707 52.1675L18.1633 51.9733L17.8664 51.7866L17.5799 51.6075L17.3038 51.436L17.0383 51.2721L16.7835 51.1157L16.5393 50.9669L16.3059 50.8256L16.0833 50.6917L15.8715 50.5653L15.6707 50.4463L15.481 50.3348L15.3022 50.2306L15.1346 50.1337L14.9781 50.0442L14.8329 49.962L14.6989 49.887L14.5762 49.8192L14.4649 49.7586L14.3649 49.7051L14.2764 49.6588L14.1994 49.6195L14.1339 49.5872L14.08 49.5619L14.0376 49.5436L14.0069 49.5321L13.9878 49.5275L13.9805 49.5297L13.9848 49.5387L14.0009 49.5544L14.0288 49.5767L14.0684 49.6057L14.1199 49.6411L14.1831 49.6832L14.2583 49.7316L14.3453 49.7865L14.4441 49.8477L14.5549 49.9152L14.6775 49.9889L14.8121 50.0688L14.9585 50.1548L15.1169 50.2469L15.2872 50.3449L15.4694 50.4489L15.6635 50.5588L15.8696 50.6744L16.0875 50.7958L16.3173 50.9229L16.559 51.0556L16.8126 51.1939L17.0781 51.3376L17.3554 51.4867L17.6445 51.6412L17.9454 51.801L18.2582 51.966L18.5826 52.1361L18.9189 52.3112L19.2668 52.4914L19.6264 52.6765L19.9977 52.8664L20.3806 53.0611L20.7751 53.2605L21.1812 53.4646L21.5987 53.6732L22.0277 53.8862L22.4682 54.1037L22.92 54.3255L23.3832 54.5516L23.8576 54.7818L24.3433 55.0161L24.8402 55.2544L25.3482 55.4967L25.8673 55.7429L26.3975 55.9928L26.9386 56.2464L27.4905 56.5037L28.0534 56.7645L28.627 57.0287L29.2113 57.2964L29.8062 57.5673L30.4118 57.8415L31.0278 58.1188L31.6542 58.3992L32.291 58.6826L32.938 58.9688L33.5953 59.2579L34.2626 59.5498L34.94 59.8443L35.6274 60.1413L36.3245 60.4409L37.0315 60.7429L37.7481 61.0472L38.4743 61.3538L39.21 61.6625L39.9552 61.9734L40.7096 62.2862L41.4732 62.601L42.2459 62.9176L43.0277 63.236L43.8183 63.5561L44.6178 63.8778L45.4259 64.201L46.2426 64.5257L47.0678 64.8517L47.9014 65.179L48.7433 65.5075L49.5932 65.8372L50.4512 66.1679L51.3171 66.4996L52.1909 66.8322L53.0722 67.1656L53.9612 67.4997L54.8576 67.8345L55.7613 68.1699L56.6721 68.5059L57.5901 68.8422L58.515 69.1789L59.4466 69.5159L60.385 69.8531L61.3299 70.1905L62.2812 70.5279L63.2388 70.8653L64.2026 71.2026L65.1724 71.5398L66.148 71.8768L67.1294 72.2135L68.1163 72.5498L69.1088 72.8856L70.1065 73.221L71.1095 73.5558L72.1174 73.89L73.1303 74.2235L74.1479 74.5562L75.1701 74.8881L76.1967 75.2191L77.2277 75.5491L78.2628 75.8781L79.3019 76.206L80.3449 76.5328L81.3916 76.8583L82.4418 77.1826L83.4955 77.5056L84.5524 77.8272L85.6124 78.1473L86.6753 78.4659L87.7411 78.783L88.8094 79.0985L89.8803 79.4123L90.9534 79.7243L92.0287 80.0347L93.1061 80.3431L94.1852 80.6497L95.2661 80.9544L96.3485 81.2571L97.4323 81.5578L98.5172 81.8564L99.6033 82.1529L100.69 82.4472L101.778 82.7394L102.866 83.0292L103.955 83.3168L105.043 83.6021L106.132 83.885L107.221 84.1654L108.31 84.4434L109.398 84.7189L110.486 84.9919L111.573 85.2624L112.659 85.5302L113.744 85.7954L114.827 86.058L115.91 86.3178L116.99 86.5749L118.07 86.8293L119.147 87.0809L120.222 87.3297L121.295 87.5756L122.366 87.8187L123.434 88.0588L124.499 88.2961L125.562 88.5305L126.622 88.7619L127.678 88.9903L128.731 89.2157L129.781 89.4381L130.827 89.6575L131.87 89.8739L132.908 90.0872L133.942 90.2974L134.972 90.5045L135.998 90.7085L137.019 90.9095L138.035 91.1073L139.046 91.302L140.052 91.4935L141.054 91.6819L142.049 91.8672L143.04 92.0493L144.024 92.2283L145.003 92.4041L145.976 92.5768L146.943 92.7463L147.903 92.9127L148.857 93.0759L149.805 93.236L150.746 93.3929L151.68 93.5466L152.607 93.6973L153.527 93.8448L154.439 93.9892L155.345 94.1305L156.242 94.2687L157.132 94.4038L158.015 94.5358L158.889 94.6648L159.755 94.7907L160.613 94.9136L161.463 95.0335L162.304 95.1503L163.137 95.2642L163.96 95.3751L164.775 95.4831L165.581 95.5882L166.378 95.6903L167.166 95.7896L167.944 95.886L168.713 95.9796L169.472 96.0704L170.222 96.1584L170.961 96.2436L171.691 96.3261L172.411 96.4059L173.12 96.4831L173.819 96.5576L174.508 96.6295L175.186 96.6988L175.854 96.7655L176.511 96.8298L177.157 96.8916L177.792 96.9509L178.417 97.0079L179.03 97.0624L179.632 97.1147L180.222 97.1646L180.802 97.2123L181.369 97.2577L181.926 97.301L182.47 97.3422L183.003 97.3812L183.524 97.4182L184.033 97.4532L184.531 97.4862L185.016 97.5173L185.489 97.5465L185.949 97.5739L186.398 97.5994L186.834 97.6232L187.258 97.6454L187.669 97.6658L188.068 97.6847L188.454 97.702L188.827 97.7178L189.188 97.7321L189.536 97.745L189.871 97.7565L190.193 97.7668L190.503 97.7757L190.799 97.7835L191.082 97.7901L191.352 97.7955L191.609 97.7999L191.853 97.8033L192.084 97.8058L192.302 97.8074L192.506 97.808L192.697 97.8079L192.874 97.8071L193.038 97.8056L193.189 97.8034L193.327 97.8006L193.451 97.7973L193.561 97.7936L193.659 97.7894L193.742 97.7848L193.812 97.78L193.869 97.7749L193.912 97.7695L193.942 97.7641L193.958 97.7585L193.96 97.7529L193.949 97.7473L193.925 97.7418L193.887 97.7364L193.835 97.7312L193.77 97.7263L193.692 97.7216L193.6 97.7173L193.494 97.7133L193.375 97.7099L193.243 97.7069L193.097 97.7045L192.938 97.7027L192.766 97.7016L192.58 97.7012L192.381 97.7016L192.168 97.7028L191.942 97.7049L191.704 97.7079L191.451 97.712L191.186 97.717L190.908 97.7232L190.617 97.7305L190.312 97.739L189.995 97.7487L189.665 97.7598L189.322 97.7721L188.966 97.7859L188.597 97.8012L188.216 97.8179L187.822 97.8361L187.415 97.856L186.996 97.8775L186.565 97.9006L186.121 97.9255L185.665 97.9522L185.197 97.9807L184.716 98.0111L184.224 98.0433L183.719 98.0776L183.202 98.1138L182.674 98.1521L182.134 98.1924L181.582 98.2349L181.019 98.2795L180.444 98.3263L179.857 98.3754L179.26 98.4268L178.651 98.4804L178.031 98.5365L177.4 98.5949L176.758 98.6558L176.105 98.7191L175.441 98.7849L174.767 98.8532L174.082 98.9242L173.387 98.9977L172.681 99.0738L171.965 99.1526L171.24 99.2341L170.504 99.3183L169.758 99.4052L169.002 99.4949L168.237 99.5874L167.463 99.6828L166.679 99.781L165.885 99.882L165.083 99.986L164.271 100.093L163.451 100.203L162.621 100.315L161.783 100.431L160.937 100.55L160.082 100.672L159.219 100.796L158.348 100.924L157.468 101.055L156.581 101.189L155.686 101.326L154.784 101.466L153.874 101.609L152.957 101.756L152.032 101.905L151.101 102.058L150.163 102.213L149.218 102.372L148.266 102.534L147.308 102.699L146.344 102.868L145.373 103.039L144.397 103.214L143.414 103.392L142.426 103.573L141.432 103.757L140.433 103.944L139.429 104.134L138.419 104.328L137.405 104.524L136.386 104.724L135.362 104.927L134.334 105.133L133.301 105.342L132.264 105.554L131.224 105.769L130.179 105.988L129.131 106.209L128.079 106.433L127.023 106.66L125.965 106.891L124.903 107.124L123.839 107.36L122.772 107.599L121.702 107.841L120.63 108.086L119.555 108.334L118.479 108.584L117.401 108.838L116.32 109.094L115.239 109.352L114.155 109.614L113.071 109.878L111.985 110.145L110.899 110.414L109.811 110.686L108.723 110.961L107.635 111.238L106.546 111.518L105.457 111.8L104.368 112.084L103.279 112.371L102.191 112.66L101.103 112.951L100.016 113.244L98.9296 113.54L97.8442 113.838L96.7599 114.138L95.677 114.44L94.5956 114.744L93.5157 115.05L92.4377 115.357L91.3616 115.667L90.2876 115.978L89.2158 116.292L88.1465 116.606L87.0798 116.923L86.0157 117.241L84.9546 117.56L83.8965 117.882L82.8416 118.204L81.79 118.528L80.742 118.853L79.6976 119.179L78.657 119.507L77.6203 119.835L76.5878 120.165L75.5595 120.496L74.5355 120.827L73.5162 121.159L72.5015 121.493L71.4917 121.827L70.4868 122.161L69.4871 122.496L68.4926 122.832L67.5035 123.168L66.52 123.505L65.5422 123.842L64.5702 124.179L63.6041 124.516L62.6442 124.853L61.6904 125.191L60.7431 125.528L59.8022 125.865L58.868 126.203L57.9405 126.539L57.0199 126.876L56.1063 127.212L55.1999 127.548L54.3007 127.883L53.4089 128.217L52.5247 128.551L51.648 128.884L50.7791 129.216L49.9181 129.547L49.0651 129.877L48.2201 130.206L47.3834 130.534L46.555 130.86L45.7351 131.185L44.9236 131.509L44.1209 131.831L43.3269 132.152L42.5417 132.471L41.7656 132.788L40.9985 133.104L40.2406 133.418L39.4919 133.729L38.7526 134.039L38.0228 134.346L37.3025 134.651L36.5918 134.954L35.8909 135.255L35.1999 135.553L34.5187 135.848L33.8475 136.141L33.1864 136.431L32.5355 136.719L31.8948 137.003L31.2644 137.285L30.6444 137.563L30.0349 137.838L29.436 138.111L28.8476 138.38L28.2699 138.645L27.703 138.907L27.1469 139.166L26.6016 139.421L26.0673 139.672L25.5441 139.92L25.0318 140.164L24.5307 140.403L24.0407 140.639L23.562 140.871L23.0945 141.099L22.6384 141.322L22.1936 141.541L21.7603 141.756L21.3383 141.966L20.9279 142.172L20.529 142.373L20.1417 142.57L19.766 142.761L19.402 142.948L19.0496 143.13L18.7089 143.308L18.38 143.48L18.0628 143.646L17.7574 143.808L17.4638 143.965L17.1819 144.116L16.912 144.262L16.6539 144.402L16.4077 144.537L16.1733 144.666L15.9509 144.79L15.7403 144.907L15.5417 145.02L15.3549 145.126L15.1801 145.226L15.0172 145.32L14.8663 145.409L14.7272 145.491L14.6 145.567L14.4847 145.637L14.3814 145.701L14.2899 145.758L14.2102 145.809L14.1424 145.853L14.0865 145.891L14.0424 145.923L14.01 145.947L13.9895 145.966L13.9807 145.977L13.9836 145.982L13.9982 145.98L14.0245 145.971L14.0625 145.955L14.112 145.933L14.1731 145.903L14.2458 145.866L14.3299 145.823L14.4255 145.772L14.5325 145.714L14.6509 145.649L14.7806 145.577L14.9216 145.497L15.0738 145.411L15.2372 145.317L15.4117 145.215L15.5973 145.106L15.7939 144.99L16.0015 144.867L16.22 144.736L16.4493 144.597L16.6894 144.451L16.9402 144.298L17.2017 144.137L17.4737 143.968L17.7563 143.792L18.0493 143.608L18.3527 143.417L18.6664 143.218L18.9903 143.011L19.3243 142.797L19.6685 142.575L20.0226 142.345L20.3866 142.108L20.7605 141.863L21.1441 141.61L21.5374 141.35L21.9403 141.081L22.3526 140.806L22.7744 140.522L23.2055 140.231L23.6458 139.932L24.0952 139.626L24.5537 139.311L25.0211 138.989L25.4973 138.66L25.9823 138.323L26.476 137.978L26.9782 137.625L27.4888 137.265L28.0078 136.898L28.5351 136.522L29.0704 136.14L29.6139 135.749L30.1652 135.351L30.7244 134.946L31.2913 134.533L31.8658 134.113L32.4477 133.686L33.0371 133.251L33.6337 132.808L34.2375 132.359L34.8484 131.902L35.4661 131.438L36.0907 130.966L36.722 130.488L37.3599 130.002L38.0042 129.509L38.6549 129.01L39.3118 128.503L39.9748 127.989L40.6438 127.469L41.3186 126.941L41.9992 126.407L42.6855 125.866L43.3772 125.318L44.0743 124.764L44.7766 124.203L45.4841 123.636L46.1966 123.062L46.9139 122.482L47.636 121.895L48.3628 121.302L49.094 120.703L49.8296 120.098L50.5694 119.487L51.3133 118.869L52.0613 118.246L52.8131 117.617L53.5686 116.982L54.3277 116.341L55.0903 115.695L55.8562 115.043L56.6254 114.386L57.3976 113.723L58.1728 113.055L58.9508 112.382L59.7315 111.703L60.5148 111.019L61.3005 110.331L62.0885 109.637L62.8787 108.939L63.6709 108.236L64.465 107.528L65.261 106.816L66.0585 106.099L66.8577 105.378L67.6582 104.653L68.46 103.924L69.2629 103.19L70.0668 102.453L70.8716 101.711L71.6772 100.966L72.4834 100.217L73.2901 99.4646L74.0972 98.7087L74.9045 97.9495L75.712 97.187L76.5194 96.4213L77.3268 95.6526L78.1338 94.881L78.9405 94.1065L79.7467 93.3293L80.5522 92.5495L81.357 91.7672L82.1609 90.9826L82.9639 90.1957L83.7657 89.4066L84.5663 88.6155L85.3655 87.8225L86.1632 87.0276L86.9594 86.2311L87.7538 85.433L88.5465 84.6335L89.3371 83.8326L90.1257 83.0305L90.9121 82.2274L91.6963 81.4233L92.478 80.6183L93.2572 79.8126L94.0338 79.0063L94.8077 78.1995L95.5787 77.3924L96.3467 76.585L97.1117 75.7776L97.8735 74.9701L98.632 74.1628L99.3871 73.3558L100.139 72.5492L100.887 71.7432L101.631 70.9377L102.372 70.1331L103.108 69.3294L103.841 68.5267L104.57 67.7252L105.294 66.925L106.014 66.1262L106.73 65.3289L107.441 64.5334L108.148 63.7397L108.85 62.9479L109.547 62.1582L110.239 61.3707L110.927 60.5855L111.609 59.8028L112.287 59.0227L112.959 58.2453L113.626 57.4707L114.287 56.6992L114.943 55.9307L115.594 55.1655L116.239 54.4037L116.879 53.6454L117.512 52.8907L118.14 52.1397L118.762 51.3927L119.378 50.6496L119.988 49.9107L120.592 49.1761L121.19 48.4459L121.781 47.7201L122.366 46.9991L122.945 46.2828L123.518 45.5714L124.083 44.8651L124.643 44.1639L125.196 43.468L125.742 42.7775L126.281 42.0925L126.814 41.4132L127.34 40.7396L127.859 40.0719L128.371 39.4102L128.876 38.7547L129.375 38.1054L129.866 37.4625L130.35 36.8261L130.827 36.1963L131.296 35.5732L131.759 34.957L132.214 34.3477L132.662 33.7455L133.103 33.1505L133.536 32.5627L133.962 31.9824L134.381 31.4096L134.792 30.8444L135.196 30.287L135.592 29.7374L135.98 29.1957L136.361 28.6622L136.735 28.1367L137.101 27.6196L137.459 27.1108L137.81 26.6105L138.153 26.1188L138.489 25.6357L138.817 25.1614L139.137 24.696L139.449 24.2395L139.754 23.7921L140.051 23.3538L140.341 22.9248L140.623 22.5051L140.897 22.0949L141.163 21.6941L141.422 21.303L141.673 20.9215L141.916 20.5498L142.152 20.188L142.38 19.8361L142.6 19.4941L142.813 19.1623L143.018 18.8407L143.215 18.5293L143.405 18.2282L143.587 17.9375L143.761 17.6573L143.928 17.3876L144.088 17.1285L144.239 16.88L144.384 16.6423L144.521 16.4154L144.65 16.1993L144.772 15.9942L144.886 15.8L144.993 15.6169L145.093 15.4448L145.186 15.2839L145.271 15.1342L145.349 14.9957L145.419 14.8685L145.483 14.7526L145.539 14.6482L145.588 14.5551L145.63 14.4735L145.665 14.4034L145.693 14.3449L145.715 14.2979L145.729 14.2626L145.736 14.2388L145.737 14.2268L145.73 14.2265L145.717 14.2379L145.698 14.2611L145.671 14.296L145.638 14.3428L145.599 14.4013L145.553 14.4717L145.501 14.554L145.442 14.6482L145.377 14.7542L145.306 14.8721L145.228 15.0019L145.145 15.1436L145.055 15.2972L144.959 15.4628L144.858 15.6403L144.75 15.8296L144.637 16.0309L144.518 16.2441L144.393 16.4692L144.263 16.7062L144.126 16.9551L143.985 17.2158L143.838 17.4884L143.686 17.7728L143.528 18.069L143.365 18.377L143.197 18.6969L143.024 19.0284L142.846 19.3717L142.662 19.7267L142.474 20.0933L142.282 20.4716L142.084 20.8615L141.882 21.2629L141.675 21.6759L141.464 22.1004L141.248 22.5363L141.028 22.9836L140.804 23.4422L140.575 23.9122L140.342 24.3934L140.106 24.8859L139.865 25.3895L139.62 25.9042L139.372 26.4299L139.12 26.9666L138.864 27.5143L138.604 28.0728L138.342 28.6421L138.075 29.2222L137.806 29.8129L137.533 30.4142L137.257 31.0261L136.977 31.6484L136.695 32.281L136.41 32.924L136.122 33.5772L135.831 34.2405L135.538 34.9139L135.242 35.5973L134.943 36.2906L134.642 36.9937L134.339 37.7064L134.033 38.4288L133.725 39.1608L133.415 39.9022L133.103 40.6529L132.789 41.4129L132.473 42.182L132.156 42.9602L131.836 43.7473L131.515 44.5432L131.192 45.3479L130.868 46.1612L130.543 46.9831L130.216 47.8134L129.888 48.6519L129.559 49.4987L129.228 50.3535L128.897 51.2163L128.565 52.0869L128.232 52.9652L127.898 53.8512L127.563 54.7446L127.228 55.6454L126.893 56.5534L126.556 57.4686L126.22 58.3907L125.883 59.3197L125.546 60.2554L125.208 61.1977L124.871 62.1465L124.534 63.1016L124.196 64.063L123.859 65.0304L123.522 66.0037L123.185 66.9828L122.849 67.9675L122.513 68.9578L122.177 69.9535L121.842 70.9544L121.508 71.9603L121.174 72.9713L120.841 73.987L120.509 75.0074L120.177 76.0323L119.847 77.0615L119.517 78.095L119.189 79.1325L118.862 80.174L118.536 81.2192L118.211 82.2681L117.887 83.3204L117.565 84.376L117.245 85.4348L116.925 86.4966L116.608 87.5613L116.291 88.6286L115.977 89.6985L115.664 90.7707L115.353 91.8452L115.044 92.9217L114.737 94.0002L114.431 95.0804L114.128 96.1622L113.826 97.2454L113.527 98.33L113.229 99.4156L112.934 100.502L112.641 101.59L112.35 102.678L112.062 103.766L111.776 104.855L111.492 105.944L111.21 107.033L110.931 108.121L110.655 109.21L110.381 110.298L110.11 111.385L109.841 112.471L109.574 113.557L109.311 114.641L109.05 115.724L108.792 116.805L108.536 117.885L108.283 118.963L108.034 120.039L107.787 121.113L107.542 122.185L107.301 123.254L107.063 124.32L106.827 125.384L106.594 126.445L106.365 127.503L106.138 128.557L105.915 129.609L105.694 130.656L105.476 131.7L105.262 132.74L105.05 133.776L104.842 134.807L104.637 135.835L104.435 136.857L104.236 137.876L104.04 138.889L103.847 139.897L103.657 140.9L103.471 141.898L103.287 142.891L103.107 143.878L102.93 144.859L102.756 145.834L102.585 146.803L102.418 147.766L102.253 148.723L102.092 149.673L101.934 150.617L101.779 151.553L101.627 152.483L101.478 153.406L101.332 154.322L101.19 155.23L101.05 156.131L100.914 157.024L100.781 157.909L100.651 158.787L100.524 159.656L100.399 160.517L100.278 161.37L100.16 162.215L100.045 163.051L99.9331 163.878L99.824 164.697L99.7178 165.506L99.6145 166.307L99.514 167.098L99.4165 167.88L99.3218 168.653L99.2299 169.416L99.1408 170.169L99.0545 170.913L98.9709 171.646L98.89 172.37L98.8118 173.084L98.7363 173.787L98.6633 174.48L98.593 175.162L98.5252 175.834L98.4599 176.496L98.3972 177.146L98.3369 177.786L98.279 178.414L98.2234 179.032L98.1703 179.638L98.1195 180.233L98.0709 180.817L98.0245 181.39L97.9804 181.95L97.9384 182.5L97.8985 183.037L97.8607 183.563L97.8249 184.077L97.7911 184.579L97.7593 185.069L97.7294 185.547L97.7013 186.012L97.675 186.466L97.6505 186.907L97.6277 187.335L97.6066 187.752L97.5871 188.155L97.5692 188.546L97.5528 188.925L97.5379 189.291L97.5244 189.644L97.5123 189.984L97.5016 190.311L97.4921 190.626L97.4839 190.927L97.4769 191.216L97.4709 191.491L97.4661 191.753L97.4623 192.003L97.4595 192.239L97.4576 192.461L97.4566 192.671L97.4563 192.867L97.4569 193.05L97.4582 193.22L97.4601 193.376L97.4626 193.519L97.4657 193.648L97.4693 193.764L97.4733 193.866L97.4777 193.955L97.4825 194.031L97.4875 194.093L97.4927 194.141L97.4982 194.176L97.5037 194.198L97.5093 194.206L97.5149 194.2L97.5204 194.181L97.5259 194.149L97.5312 194.102L97.5362 194.043L97.541 193.97L97.5455 193.883L97.5496 193.783L97.5532 193.669L97.5564 193.542L97.5591 193.402L97.5611 193.248L97.5625 193.081L97.5632 192.9L97.5631 192.706L97.5622 192.499L97.5605 192.279L97.5578 192.045L97.5542 191.798L97.5495 191.538L97.5438 191.265L97.537 190.979L97.529 190.68L97.5197 190.368L97.5092 190.043L97.4974 189.705L97.4842 189.354L97.4695 188.99L97.4534 188.614L97.4358 188.225L97.4165 187.824L97.3957 187.41L97.3732 186.983L97.349 186.544L97.3231 186.093L97.2953 185.629L97.2657 185.154L97.2342 184.666L97.2007 184.166L97.1653 183.654L97.1279 183.131L97.0884 182.595L97.0467 182.048L97.003 181.489L96.957 180.919L96.9088 180.337L96.8584 179.744L96.8057 179.139L96.7506 178.524L96.6931 177.897L96.6332 177.259L96.5709 176.611L96.5061 175.952L96.4387 175.281L96.3688 174.601L96.2964 173.91L96.2213 173.208L96.1435 172.497L96.0631 171.775L95.98 171.043L95.8942 170.301L95.8056 169.549L95.7142 168.788L95.62 168.017L95.5229 167.237L95.423 166.447L95.3202 165.648L95.2145 164.84L95.1059 164.023L94.9943 163.197L94.8798 162.363L94.7623 161.52L94.6417 160.668L94.5182 159.808L94.3916 158.94L94.2619 158.064L94.1292 157.18L93.9934 156.288L93.8545 155.389L93.7125 154.482L93.5675 153.568L93.4193 152.646L93.2679 151.718L93.1134 150.782L92.9558 149.84L92.7951 148.891L92.6311 147.935L92.4641 146.973L92.2939 146.005L92.1205 145.031L91.944 144.051L91.7643 143.065L91.5815 142.074L91.3955 141.077L91.2064 140.074L91.0141 139.067L90.8188 138.054L90.6202 137.037L90.4186 136.015L90.2139 134.989L90.0061 133.958L89.7952 132.923L89.5812 131.883L89.3642 130.84L89.1441 129.793L88.9211 128.743L88.695 127.689L88.4659 126.632L88.2338 125.571L87.9988 124.508L87.7609 123.442L87.5201 122.373L87.2764 121.302L87.0298 120.228L86.7804 119.153L86.5282 118.075L86.2732 116.996L86.0155 115.914L85.755 114.832L85.4919 113.748L85.2261 112.662L84.9577 111.576L84.6867 110.489L84.4131 109.401L84.137 108.313L83.8585 107.224L83.5775 106.135L83.2941 105.047L83.0083 103.958L82.7202 102.869L82.4298 101.781L82.1372 100.694L81.8424 99.6069L81.5454 98.5211L81.2463 97.4364L80.9452 96.3529L80.6421 95.2708L80.337 94.1903L80.0299 93.1116L79.721 92.0347L79.4103 90.9598L79.0979 89.8872L78.7837 88.8169L78.4679 87.7491L78.1505 86.6839L77.8315 85.6216L77.511 84.5623L77.1891 83.5061L76.8659 82.4532L76.5413 81.4037L76.2155 80.3579L75.8884 79.3157L75.5603 78.2775L75.231 77.2433L74.9008 76.2132L74.5696 75.1876L74.2375 74.1664L73.9046 73.1498L73.571 72.138L73.2367 71.1312L72.9017 70.1294L72.5662 69.1328L72.2303 68.1416L71.8939 67.1558L71.5571 66.1757L71.2201 65.2014L70.8829 64.2329L70.5455 63.2705L70.2081 62.3143L69.8707 61.3644L69.5334 60.4209L69.1962 59.4841L68.8593 58.5539L68.5226 57.6305L68.1864 56.7141L67.8506 55.8049L67.5153 54.9028L67.1806 54.008L66.8466 53.1208L66.5134 52.2411L66.181 51.3691L65.8495 50.5049L65.519 49.6487L65.1896 48.8005L64.8614 47.9605L64.5343 47.1288L64.2086 46.3054L63.8842 45.4906L63.5614 44.6844L63.24 43.8869L62.9203 43.0982L62.6023 42.3184L62.2861 41.5477L61.9717 40.7861L61.6593 40.0338L61.3489 39.2907L61.0407 38.5571L60.7346 37.833L60.4308 37.1185L60.1293 36.4138L59.8303 35.7187L59.5338 35.0336L59.2399 34.3585L58.9487 33.6933L58.6602 33.0384L58.3745 32.3936L58.0918 31.7591L57.8121 31.135L57.5355 30.5213L57.262 29.9181L56.9918 29.3255L56.7249 28.7436L56.4614 28.1723L56.2014 27.6119L55.9449 27.0623L55.6921 26.5237L55.443 25.996L55.1977 25.4794L54.9563 24.9738L54.7189 24.4794L54.4854 23.9962L54.2561 23.5242L54.031 23.0636L53.8102 22.6143L53.5937 22.1763L53.3816 21.7499L53.174 21.3349L52.971 20.9314L52.7726 20.5395L52.579 20.1592L52.3901 19.7905L52.2061 19.4334L52.027 19.0881L51.853 18.7544L51.684 18.4326L51.5202 18.1225L51.3616 17.8241L51.2083 17.5376L51.0604 17.263L50.9178 17.0002L50.7808 16.7492L50.6494 16.5101L50.5235 16.2829L50.4034 16.0677L50.289 15.8643L50.1804 15.6728L50.0778 15.4932L49.981 15.3256L49.8903 15.1699L49.8057 15.026L49.7271 14.8941L49.6548 14.7741L49.5887 14.666L49.5289 14.5698L49.4754 14.4854L49.4284 14.4129L49.3878 14.3523L49.3538 14.3034L49.3263 14.2664L49.3055 14.2412L49.2913 14.2277L49.2838 14.226L49.2831 14.2359L49.2892 14.2576L49.3022 14.2909L49.3221 14.3358L49.3489 14.3923L49.3827 14.4604L49.4236 14.5399L49.4715 14.631L49.5266 14.7335L49.5888 14.8473L49.6581 14.9725L49.7347 15.109L49.8186 15.2568L49.9097 15.4157L50.0082 15.5858L50.114 15.767L50.2272 15.9593L50.3478 16.1625L50.4759 16.3766L50.6114 16.6016L50.7544 16.8374L50.9049 17.084L51.063 17.3412L51.2286 17.6091L51.4018 17.8874L51.5825 18.1763L51.7709 18.4756L51.9669 18.7851L52.1705 19.105L52.3818 19.435L52.6007 19.7751L52.8273 20.1253L53.0615 20.4854L53.3035 20.8554L53.5531 21.2351L53.8105 21.6246L54.0755 22.0236L54.3482 22.4322L54.6287 22.8503L54.9168 23.2776L55.2126 23.7143L55.5161 24.1601L55.8272 24.615L56.1461 25.0788L56.4726 25.5516L56.8068 26.0331L57.1486 26.5233L57.498 27.0221L57.855 27.5294L58.2197 28.0451L58.5919 28.5691L58.9717 29.1012L59.359 29.6415L59.7539 30.1897L60.1562 30.7457L60.566 31.3095L60.9833 31.881L61.4079 32.46L61.84 33.0465L62.2794 33.6402L62.7261 34.2412L63.1801 34.8492L63.6414 35.4642L64.1099 36.0861L64.5855 36.7148L65.0683 37.35L65.5582 37.9918L66.0552 38.6399L66.5591 39.2944L67.07 39.955L67.5879 40.6216L68.1126 41.2941L68.6441 41.9725L69.1824 42.6565L69.7274 43.346L70.279 44.041L70.8373 44.7413L71.4021 45.4467L71.9734 46.1572L72.5511 46.8726L73.1352 47.5928L73.7256 48.3177L74.3222 49.0472L74.925 49.781L75.5339 50.5192L76.1488 51.2615L76.7697 52.0079L77.3965 52.7582L78.0291 53.5122L78.6675 54.2699L79.3116 55.0311L79.9612 55.7957L80.6164 56.5636L81.277 57.3347L81.943 58.1087L82.6143 58.8856L83.2907 59.6652L83.9723 60.4475L84.6589 61.2322L85.3505 62.0193L86.0469 62.8087L86.748 63.6001L87.4539 64.3935L88.1643 65.1887L88.8792 65.9857L89.5986 66.7842L90.3222 67.5842L91.05 68.3854L91.782 69.1879L92.5179 69.9915L93.2578 70.796L94.0015 71.6012L94.7489 72.4072L95.4999 73.2137L96.2545 74.0207L97.0124 74.8279L97.7736 75.6353L98.538 76.4428L99.3055 77.2502L100.076 78.0574L100.849 78.8642L101.625 79.6706L102.404 80.4764L103.186 81.2815L103.969 82.0858L104.755 82.8892L105.544 83.6914L106.334 84.4925L107.126 85.2923L107.92 86.0906L108.716 86.8874L109.514 87.6826L110.313 88.4759L111.113 89.2674L111.915 90.0568L112.717 90.8441L113.521 91.6292L114.326 92.4119L115.131 93.1921L115.937 93.9698L116.744 94.7447L117.551 95.5169L118.358 96.2861L119.165 97.0523L119.973 97.8154L120.78 98.5752L121.587 99.3317L122.394 100.085L123.2 100.834L124.006 101.58L124.811 102.322L125.615 103.06L126.418 103.795L127.22 104.525L128.021 105.251L128.82 105.973L129.618 106.69L130.415 107.403L131.209 108.112L132.002 108.816L132.792 109.515L133.581 110.209L134.367 110.899L135.15 111.583L135.932 112.262L136.71 112.937L137.486 113.606L138.259 114.269L139.028 114.928L139.795 115.581L140.558 116.228L141.318 116.869L142.074 117.505L142.826 118.136L143.575 118.76L144.32 119.378L145.06 119.991L145.796 120.597L146.528 121.197L147.256 121.791L147.979 122.379L148.697 122.96L149.41 123.535L150.119 124.104L150.822 124.666L151.52 125.221L152.213 125.77L152.9 126.312L153.582 126.848L154.257 127.376L154.927 127.898L155.592 128.413L156.25 128.921L156.901 129.422L157.547 129.916L158.186 130.403L158.818 130.882L159.444 131.355L160.063 131.82L160.675 132.279L161.28 132.729L161.878 133.173L162.469 133.609L163.052 134.038L163.628 134.46L164.196 134.874L164.756 135.281L165.309 135.68L165.854 136.071L166.391 136.455L166.92 136.832L167.44 137.201L167.952 137.562L168.456 137.916L168.951 138.262L169.437 138.601L169.915 138.932L170.384 139.255L170.844 139.571L171.295 139.879L171.737 140.179L172.17 140.471L172.593 140.756L173.007 141.033L173.412 141.303L173.807 141.565L174.192 141.819L174.568 142.065L174.934 142.304L175.29 142.535L175.635 142.758L175.971 142.974L176.297 143.182L176.612 143.382L176.918 143.575L177.212 143.76L177.497 143.937L177.771 144.107L178.034 144.27L178.287 144.425L178.529 144.572L178.76 144.712L178.98 144.844L179.19 144.969L179.388 145.086L179.576 145.196L179.752 145.299L179.918 145.394L180.072 145.483L180.215 145.563L180.347 145.637L180.467 145.703L180.576 145.762L180.674 145.814L180.76 145.859L180.835 145.897L180.898 145.928L180.949 145.952L180.989 145.969L181.018 145.979L181.034 145.982L181.039 145.978L181.033 145.968L181.014 145.951L180.984 145.927L180.942 145.897L180.888 145.86L180.822 145.817L180.745 145.767L180.655 145.711L180.554 145.648L180.441 145.58L180.316 145.505L180.179 145.424L180.03 145.336L179.869 145.243L179.696 145.144L179.512 145.039L179.315 144.928L179.107 144.811L178.886 144.688L178.654 144.56L178.41 144.426L178.154 144.287L177.886 144.142L177.606 143.992L177.315 143.836L177.011 143.675L176.696 143.509L176.369 143.338L176.031 143.162L175.681 142.981L175.319 142.795L174.945 142.604L174.56 142.408L174.163 142.208L173.754 142.003L173.335 141.793L172.903 141.579L172.46 141.361L172.006 141.138L171.541 140.911L171.064 140.68L170.576 140.445L170.077 140.206L169.567 139.963L169.045 139.716L168.513 139.465L167.97 139.211L167.415 138.953L166.85 138.691L166.275 138.426L165.688 138.158L165.091 137.887L164.483 137.612L163.865 137.334L163.237 137.053L162.598 136.769L161.949 136.482L161.289 136.192L160.62 135.9L159.94 135.605L159.251 135.307L158.552 135.007L157.843 134.705L157.124 134.4L156.396 134.093L155.659 133.784L154.912 133.472L154.155 133.159L153.39 132.844L152.615 132.527L151.832 132.208L151.039 131.888L150.238 131.566L149.428 131.242L148.61 130.917L147.783 130.591L146.947 130.264L146.104 129.935L145.252 129.605L144.393 129.274L143.525 128.942L142.65 128.609L141.767 128.276L140.877 127.942L139.979 127.607L139.073 127.271L138.161 126.935L137.242 126.599L136.315 126.262L135.382 125.925L134.443 125.588L133.497 125.25L132.544 124.913L131.585 124.575L130.62 124.238L129.649 123.901L128.672 123.564L127.69 123.227L126.702 122.891L125.708 122.555L124.709 122.22L123.705 121.885L122.696 121.551L121.683 121.218L120.664 120.886L119.641 120.554L118.613 120.223L117.582 119.893L116.546 119.564L115.506 119.237L114.462 118.91L113.414 118.585L112.364 118.261L111.309 117.938L110.252 117.617L109.191 117.297L108.127 116.979L107.061 116.662L105.992 116.347L104.921 116.033L103.847 115.722L102.772 115.412L101.694 115.104L100.614 114.797L99.5332 114.493L98.4505 114.191L97.3665 113.891L96.2813 113.592L95.1951 113.296L94.108 113.002L93.0203 112.711L91.932 112.421L90.8433 112.134L89.7544 111.85L88.6655 111.567L87.5767 111.287L86.4882 111.01L85.4001 110.735L84.3125 110.462L83.2258 110.192L82.14 109.925L81.0553 109.66L79.9718 109.398L78.8897 109.139L77.8093 108.882L76.7305 108.629L75.6536 108.378L74.5789 108.129L73.5063 107.884L72.4361 107.642L71.3685 107.402L70.3035 107.165L69.2415 106.932L68.1825 106.701L67.1266 106.473L66.0741 106.248L65.0251 106.026L63.9798 105.808L62.9383 105.592L61.9008 105.379L60.8674 105.17L59.8384 104.963L58.8137 104.76L57.7937 104.559L56.7785 104.362L55.7682 104.168L54.7629 103.977L53.7629 103.789L52.7683 103.605L51.7791 103.423L50.7957 103.245L49.8181 103.07L48.8465 102.898L47.881 102.729L46.9218 102.563L45.969 102.401L45.0228 102.241L44.0833 102.085L43.1507 101.932L42.2251 101.782L41.3066 101.635L40.3954 101.491L39.4917 101.351L38.5955 101.213L37.707 101.078L36.8263 100.947L35.9536 100.819L35.0891 100.693L34.2327 100.571L33.3848 100.452L32.5453 100.336L31.7145 100.222L30.8925 100.112L30.0793 100.005L29.2752 99.9002L28.4802 99.7986L27.6945 99.6999L26.9181 99.6041L26.1513 99.5111L25.3941 99.4209L24.6466 99.3335L23.909 99.2488L23.1813 99.1668L22.4638 99.0876L21.7564 99.011L21.0593 98.937L20.3727 98.8656L19.6965 98.7968L19.031 98.7306L18.3762 98.6668L17.7323 98.6055L17.0992 98.5467L16.4772 98.4902L15.8664 98.4361L15.2667 98.3844L14.6784 98.3349L14.1014 98.2877L13.536 98.2427L12.9821 98.1998L12.4399 98.1591L11.9094 98.1205L11.3908 98.0839L10.8841 98.0493L10.3894 98.0167L9.90675 97.986L9.43624 97.9572L8.97796 97.9302L8.53197 97.905L8.09834 97.8815L7.67713 97.8597L7.26842 97.8396L6.87227 97.8211L6.48872 97.8041L6.11787 97.7886L5.75974 97.7746L5.41442 97.762L5.08194 97.7507L4.76234 97.7407L4.45571 97.732L4.16206 97.7245L3.88145 97.7181L3.61394 97.7129L3.35953 97.7087L3.1183 97.7055L2.89028 97.7032L2.67549 97.7018L2.47399 97.7013L2.28577 97.7016L2.11089 97.7026L1.94938 97.7042L1.80126 97.7065L1.66654 97.7094L1.54525 97.7128L1.4374 97.7166L1.34304 97.7209L1.26215 97.7255L1.19476 97.7304L1.14086 97.7356L1.10047 97.741L1.07361 97.7465L1.06028 97.752L1.06046 97.7576L1.07418 97.7632L1.1014 97.7687L1.14216 97.774L1.19643 97.7792L1.26419 97.7841L1.34545 97.7887L1.44021 97.793L1.54841 97.7968L1.67008 97.8002L1.80516 97.803L1.95365 97.8053L2.11553 97.807L2.29078 97.808L2.47935 97.8082L2.68123 97.8076L2.89639 97.8062L3.12477 97.804L3.36636 97.8007L3.62112 97.7965L3.889 97.7912L4.16996 97.7848L4.46397 97.7773L4.77097 97.7685L5.09093 97.7585L5.42376 97.7472L5.76944 97.7346L6.12793 97.7205L6.49914 97.705L6.88301 97.6879L7.27952 97.6694L7.68856 97.6492L8.11012 97.6274L8.54409 97.6038L8.99042 97.5786L9.44904 97.5515L9.91988 97.5227L10.4029 97.4919L10.8979 97.4592L11.4049 97.4246L11.9239 97.388L12.4547 97.3493L12.9972 97.3085L13.5514 97.2656L14.1171 97.2205L14.6944 97.1732L15.2831 97.1237L15.883 97.0719L16.4942 97.0177L17.1165 96.9612L17.7499 96.9023L18.3941 96.841L19.0492 96.7771L19.715 96.7108L20.3914 96.6419L21.0784 96.5705L21.7757 96.4964L22.4834 96.4198L23.2012 96.3404L23.9292 96.2584L24.6671 96.1736L25.4148 96.0861L26.1723 95.9959L26.9394 95.9028L27.716 95.8069L28.502 95.7081L29.2972 95.6064L30.1016 95.5019L30.915 95.3945L31.7373 95.2841L32.5683 95.1707L33.408 95.0543L34.2562 94.935L35.1128 94.8126L35.9776 94.6873L36.8505 94.5588L37.7313 94.4273L38.62 94.2928L39.5164 94.1551L40.4204 94.0144L41.3318 93.8705L42.2505 93.7236L43.1763 93.5735L44.1091 93.4202L45.0488 93.2639L45.9952 93.1044L46.9482 92.9417L47.9075 92.7759L48.8732 92.6069L49.845 92.4348L50.8227 92.2596L51.8063 92.0811L52.7956 91.8996L53.7904 91.7148L54.7906 91.527L55.7959 91.336L56.8064 91.1418L57.8218 90.9446L58.8419 90.7442L59.8667 90.5407L60.8959 90.3341L61.9293 90.1244L62.967 89.9117L64.0086 89.6959L65.054 89.477L66.1031 89.2551L67.1557 89.0302L68.2116 88.8023L69.2707 88.5715L70.3329 88.3376L71.3979 88.1009L72.4656 87.8612L73.5358 87.6186L74.6085 87.3732L75.6833 87.1249L76.7602 86.8738L77.839 86.62L78.9195 86.3633L80.0016 86.1039L81.0851 85.8419L82.1699 85.5771L83.2557 85.3098L84.3425 85.0398L85.43 84.7672L86.5181 84.4922L87.6067 84.2146L88.6955 83.9345L89.7844 83.6521L90.8733 83.3672L91.962 83.0801L93.0503 82.7906L94.138 82.4989L95.2251 82.2049L96.3113 81.9088L97.3964 81.6105L98.4804 81.3102L99.563 81.0079L100.644 80.7035L101.724 80.3973L102.801 80.0891L103.877 79.7791L104.951 79.4673L106.022 79.1539L107.091 78.8387L108.157 78.5219L109.22 78.2035L110.281 77.8836L111.338 77.5623L112.393 77.2396L113.443 76.9155L114.491 76.5902L115.534 76.2636L116.574 75.9359L117.61 75.6071L118.642 75.2772L119.669 74.9464L120.692 74.6147L121.711 74.2821L122.724 73.9488L123.733 73.6147L124.737 73.28L125.736 72.9447L126.729 72.6089L127.717 72.2727L128.699 71.9361L129.676 71.5991L130.647 71.262L131.612 70.9247L132.57 70.5873L133.523 70.2499L134.469 69.9125L135.408 69.5752L136.341 69.2382L137.267 68.9014L138.186 68.565L139.099 68.229L140.003 67.8935L140.901 67.5586L141.791 67.2243L142.674 66.8908L143.549 66.5581L144.417 66.2262L145.276 65.8953L146.127 65.5655L146.971 65.2367L147.806 64.9092L148.632 64.5829L149.451 64.258L150.26 63.9345L151.061 63.6126L151.853 63.2922L152.637 62.9735L153.411 62.6566L154.176 62.3415L154.932 62.0283L155.679 61.7171L156.416 61.408L157.144 61.101L157.863 60.7963L158.571 60.4939L159.27 60.1939L159.959 59.8963L160.638 59.6014L161.308 59.3091L161.967 59.0195L162.616 58.7327L163.254 58.4488L163.882 58.1679L164.5 57.89L165.108 57.6153L165.704 57.3438L166.291 57.0755L166.866 56.8107L167.431 56.5493L167.985 56.2914L168.528 56.0371L169.06 55.7865L169.581 55.5397L170.091 55.2967L170.59 55.0577L171.077 54.8227L171.554 54.5917L172.019 54.3649L172.473 54.1424L172.915 53.9241L173.346 53.7103L173.766 53.5009L174.174 53.296L174.57 53.0958L174.955 52.9003L175.329 52.7095L175.69 52.5236L176.04 52.3425L176.379 52.1665L176.705 51.9955L177.02 51.8296L177.323 51.6689L177.614 51.5135L177.894 51.3634L178.161 51.2187L178.417 51.0795L178.661 50.9458L178.893 50.8177L179.113 50.6953L179.321 50.5786L179.517 50.4677L179.701 50.3627L179.874 50.2636L180.034 50.1705L180.183 50.0834L180.319 50.0024L180.444 49.9276L180.557 49.859L180.658 49.7967L180.747 49.7407L180.824 49.6911L180.89 49.648L180.943 49.6113L180.985 49.5812L181.015 49.5577L181.033 49.5409L181.039 49.5307L181.034 49.5273L181.017 49.5307L180.988 49.541L180.948 49.5581L180.896 49.5822L180.833 49.6132L180.758 49.6512L180.671 49.6963L180.573 49.7486L180.464 49.8079L180.343 49.8744L180.211 49.9481L180.068 50.0291L179.913 50.1173L179.748 50.2129L179.571 50.3158L179.383 50.426L179.184 50.5437L178.975 50.6688L178.754 50.8013L178.522 50.9414L178.28 51.0889L178.027 51.2439L177.763 51.4065L177.489 51.5767L177.205 51.7544L176.909 51.9397L176.604 52.1327L176.288 52.3333L175.962 52.5415L175.626 52.7574L175.28 52.9809L174.924 53.2121L174.558 53.451L174.182 53.6976L173.796 53.9519L173.401 54.2138L172.996 54.4835L172.582 54.7609L172.158 55.0459L171.725 55.3386L171.283 55.6391L170.832 55.9472L170.372 56.263L169.902 56.5865L169.424 56.9176L168.937 57.2563L168.442 57.6027L167.938 57.9568L167.426 58.3184L166.905 58.6876L166.376 59.0644L165.839 59.4487L165.294 59.8406L164.741 60.2399L164.18 60.6467L163.612 61.061L163.036 61.4828L162.452 61.9119L161.862 62.3484L161.264 62.7922L160.658 63.2433L160.046 63.7017L159.427 64.1673L158.801 64.6401L158.168 65.1201L157.529 65.6071L156.883 66.1013L156.232 66.6024L155.573 67.1106L154.909 67.6257L154.239 68.1476L153.563 68.6764L152.881 69.212L152.194 69.7544L151.501 70.3034L150.803 70.859L150.099 71.4212L149.391 71.9899L148.677 72.5651L147.959 73.1467L147.236 73.7345L146.508 74.3287L145.776 74.929L145.04 75.5355L144.299 76.1481L143.554 76.7666L142.806 77.3911L142.053 78.0214L141.297 78.6575L140.537 79.2993L139.774 79.9467L139.007 80.5997L138.237 81.2582L137.464 81.922L136.689 82.5912L135.91 83.2656L135.129 83.9452L134.345 84.6298L133.559 85.3194L132.77 86.0138L131.98 86.7131L131.187 87.4171L130.393 88.1257L129.596 88.8389L128.798 89.5565L127.999 90.2784L127.198 91.0046L126.396 91.7349L125.593 92.4693L124.789 93.2076L123.984 93.9498L123.178 94.6957L122.372 95.4453L121.565 96.1985L120.758 96.955L119.951 97.715L119.143 98.4781L118.336 99.2444L117.529 100.014L116.722 100.786L115.915 101.561L115.109 102.339L114.303 103.119L113.499 103.902L112.695 104.687L111.892 105.474L111.091 106.264L110.291 107.055L109.492 107.849L108.694 108.644" stroke="white"/>
</svg>
