<svg width="50" height="50" viewBox="0 0 50 50" fill="none" xmlns="http://www.w3.org/2000/svg">
<g clip-path="url(#clip0_129_688)">
<path d="M10.1082 38.8669C4.06222 36.9031 0 31.3093 0 24.9475C0 16.8791 6.56413 10.3149 14.6326 10.3149C18.836 10.3149 22.8407 12.1259 25.6201 15.2836C25.9241 15.6291 25.8906 16.1556 25.5451 16.4596C25.1996 16.7636 24.6732 16.73 24.3692 16.3847C21.9061 13.5863 18.3572 11.9814 14.6324 11.9814C7.48291 11.9814 1.66624 17.7979 1.66624 24.9476C1.66624 30.5851 5.26564 35.5421 10.6229 37.2823C11.6576 37.6181 11.1729 39.2129 10.1082 38.8669ZM4.68658 24.9475C4.68658 33.6976 15.2743 38.1775 21.5547 32.0893C21.8851 31.7691 21.8933 31.2416 21.5731 30.9111C21.2529 30.5807 20.7253 30.5725 20.3949 30.8928C15.1685 35.9595 6.35292 32.235 6.35292 24.9475C6.35292 17.6565 15.1322 13.9631 20.3577 18.9663C20.69 19.2844 21.2174 19.2731 21.5357 18.9406C21.854 18.6083 21.8425 18.0808 21.5101 17.7626C15.2329 11.7524 4.68658 16.1889 4.68658 24.9475ZM45.3036 24.9475C45.3036 16.1973 34.7159 11.7175 28.4355 17.8056C28.1051 18.1259 28.0969 18.6534 28.4171 18.9839C28.7374 19.3142 29.2649 19.3224 29.5953 19.0022C34.8217 13.9356 43.6373 17.6601 43.6373 24.9475C43.6373 32.2313 34.8235 35.9611 29.5953 30.8929C29.265 30.5726 28.7375 30.5809 28.4171 30.9112C28.0969 31.2416 28.105 31.7691 28.4355 32.0894C34.714 38.1758 45.3036 33.7014 45.3036 24.9475ZM47.6744 17.0443C46.1996 14.7504 44.1226 12.9169 41.668 11.7419C41.253 11.5433 40.7554 11.7186 40.5567 12.1337C40.358 12.5488 40.5334 13.0463 40.9485 13.245C45.4288 15.3896 48.3239 19.9831 48.3239 24.9475C48.3239 32.097 42.5072 37.9137 35.3577 37.9137C31.6334 37.9137 28.085 36.3092 25.622 33.5115C25.3229 33.1703 24.8088 33.1328 24.464 33.4196C24.0323 33.7775 20.7889 37.9138 14.6326 37.9138C14.056 37.9138 13.65 38.4881 13.8515 39.0346V43.1211H10.8312C10.3711 43.1211 9.99804 43.4942 9.99804 43.9543C9.99804 44.4144 10.3711 44.7874 10.8312 44.7874H13.8515V49.1616C13.8515 49.6217 14.2245 49.9948 14.6846 49.9948C15.1447 49.9948 15.5178 49.6217 15.5178 49.1616V44.7874H18.538C18.9982 44.7874 19.3712 44.4144 19.3712 43.9543C19.3712 43.4942 18.9982 43.1211 18.538 43.1211H15.5178V39.5523C19.0916 39.3356 22.4656 37.8131 24.9951 35.2768C27.7327 38.0217 31.4594 39.5801 35.3577 39.5801C46.9539 39.58 53.8788 26.6951 47.6744 17.0443ZM28.0617 14.0662C28.2123 14.0662 28.3649 14.0253 28.502 13.9396C30.5546 12.6584 32.9252 11.9813 35.3577 11.9813C35.9278 11.9813 36.2429 11.5668 36.2429 11.1481V2.8491C39.3729 5.86059 39.3284 6.20125 39.9401 6.20125C40.6756 6.20125 41.0557 5.30539 40.5293 4.77893C35.5933 -0.154586 35.9522 0.19045 35.8288 0.118485C35.496 -0.0758523 35.081 -0.0120106 34.8206 0.248459L30.2902 4.77882C29.9648 5.10418 29.9648 5.63168 30.2902 5.95703C30.6156 6.28249 31.1431 6.28249 31.4684 5.95703L34.5766 2.8491V10.3378C32.1073 10.4689 29.7167 11.2171 27.6198 12.5261C26.9116 12.9681 27.2259 14.0662 28.0617 14.0662ZM20.1002 22.3959C20.1002 22.856 20.4733 23.2291 20.9334 23.2291H29.0568C29.5169 23.2291 29.89 22.856 29.89 22.3959C29.89 21.9358 29.5169 21.5627 29.0568 21.5627H20.9334C20.4733 21.5627 20.1002 21.9358 20.1002 22.3959ZM29.89 27.6032C29.89 27.1431 29.5169 26.77 29.0568 26.77H20.9334C20.4733 26.77 20.1002 27.1431 20.1002 27.6032C20.1002 28.0633 20.4733 28.4364 20.9334 28.4364H29.0568C29.5169 28.4364 29.89 28.0633 29.89 27.6032Z" fill="#3E1A79"/>
</g>
<defs>
<clipPath id="clip0_129_688">
<rect width="50" height="50" fill="white"/>
</clipPath>
</defs>
</svg>
