<svg width="22" height="24" viewBox="0 0 22 24" fill="none" xmlns="http://www.w3.org/2000/svg">
<path fill-rule="evenodd" clip-rule="evenodd" d="M20.9749 11.0158L2.16123 0.153496C1.98916 0.0533355 1.79375 0.00022853 1.59465 -0.000488281H1.59137C1.39216 0.000302901 1.19666 0.0534372 1.02446 0.15359C0.851047 0.252489 0.707071 0.395753 0.607313 0.568678C0.507555 0.741602 0.455609 0.937958 0.456807 1.13759V22.8621C0.456019 23.0618 0.508027 23.2583 0.607563 23.4315C0.7071 23.6047 0.850632 23.7485 1.02363 23.8484C1.19662 23.9483 1.39294 24.0007 1.5927 24.0003C1.79246 23.9999 1.98857 23.9467 2.16118 23.8462L20.9749 12.9838C21.1477 12.8841 21.2911 12.7407 21.3908 12.5679C21.4906 12.3952 21.5431 12.1993 21.5431 11.9998C21.5431 11.8004 21.4906 11.6044 21.3908 11.4317C21.2911 11.259 21.1477 11.1156 20.9749 11.0158Z" fill="#3E1A79"/>
</svg>
