<svg width="17" height="17" viewBox="0 0 17 17" fill="none" xmlns="http://www.w3.org/2000/svg">
<g clip-path="url(#clip0_177_1230)">
<path d="M14.2278 10.1673L11.5982 9.15583C11.777 8.31007 11.6085 7.3937 11.0637 6.64343L13.8117 3.8954C15.2 4.7401 17 3.73817 17 2.1C17 0.942067 16.0579 0 14.9 0C13.2605 0 12.2607 1.80137 13.1046 3.1883L10.3566 5.93633C9.17673 5.07957 7.55923 5.1382 6.44253 6.09487L5.044 4.90607C5.74173 3.51737 4.7271 1.86667 3.16667 1.86667C2.00873 1.86667 1.06667 2.80873 1.06667 3.96667C1.06667 5.6853 3.0221 6.66337 4.396 5.66767L5.7943 6.85627C5.13287 7.941 5.1852 9.3222 5.93637 10.3566L4.10733 12.1856C2.3774 11.0128 0 12.2492 0 14.3667C0 15.8187 1.1813 17 2.63333 17C4.749 17 5.9885 14.6244 4.8144 12.8927L6.64343 11.0637C7.40993 11.6203 8.367 11.7945 9.25807 11.5748L10.3948 14.2618C9.31953 15.2159 9.99603 17 11.4333 17C12.2972 17 13 16.2972 13 15.4333C13 14.5356 12.237 13.8027 11.3156 13.8716L10.1786 11.184C10.6143 10.9105 10.979 10.5341 11.2383 10.0889L13.8684 11.1006C13.8309 11.9965 14.5495 12.7333 15.4333 12.7333C16.2972 12.7333 17 12.0305 17 11.1667C17 9.71353 15.1671 9.03607 14.2278 10.1673ZM14.9 1C15.5065 1 16 1.49347 16 2.1C16 2.70653 15.5065 3.2 14.9 3.2C14.2935 3.2 13.8 2.70653 13.8 2.1C13.8 1.49347 14.2935 1 14.9 1ZM3.16667 5.06667C2.56013 5.06667 2.06667 4.5732 2.06667 3.96667C2.06667 3.36013 2.56013 2.86667 3.16667 2.86667C3.7732 2.86667 4.26667 3.36013 4.26667 3.96667C4.26667 4.5732 3.7732 5.06667 3.16667 5.06667ZM2.63333 16C1.7327 16 1 15.2673 1 14.3667C1 13.466 1.7327 12.7333 2.63333 12.7333C3.53397 12.7333 4.26667 13.466 4.26667 14.3667C4.26667 15.2673 3.53397 16 2.63333 16ZM11.4333 14.8667C11.7458 14.8667 12 15.1209 12 15.4333C12 15.7458 11.7458 16 11.4333 16C11.1209 16 10.8667 15.7458 10.8667 15.4333C10.8667 15.1209 11.1209 14.8667 11.4333 14.8667ZM8.5 10.6667C7.3053 10.6667 6.33333 9.6947 6.33333 8.5C6.33333 7.3053 7.3053 6.33333 8.5 6.33333C9.6947 6.33333 10.6667 7.3053 10.6667 8.5C10.6667 9.6947 9.6947 10.6667 8.5 10.6667ZM15.4333 11.7333C15.1209 11.7333 14.8667 11.4791 14.8667 11.1667C14.8667 10.8542 15.1209 10.6 15.4333 10.6C15.7458 10.6 16 10.8542 16 11.1667C16 11.4791 15.7458 11.7333 15.4333 11.7333Z" fill="white"/>
</g>
<defs>
<clipPath id="clip0_177_1230">
<rect width="17" height="17" fill="white"/>
</clipPath>
</defs>
</svg>
