<svg width="479" height="482" viewBox="0 0 479 482" fill="none" xmlns="http://www.w3.org/2000/svg">
<path opacity="0.0416667" fill-rule="evenodd" clip-rule="evenodd" d="M369.028 309.066C379.563 272.669 345.727 239.798 332.111 203.453C318.063 165.957 322.374 120.128 289.213 96.0261C251.789 68.8258 196.642 54.7626 157.457 76.5105C119.897 97.3566 136.495 154.067 117.06 191.571C95.8319 232.537 34.0199 254.813 41.0654 301.114C48.3704 349.12 101.097 380.938 148.455 397.883C191.823 413.401 237.605 403.059 279.185 386.316C317.838 370.752 357.694 348.228 369.028 309.066Z" stroke="url(#paint0_linear_157_1115)" stroke-width="1.5"/>
<path opacity="0.0833333" fill-rule="evenodd" clip-rule="evenodd" d="M376.374 290.5C383.591 253.896 347.638 224.578 331.198 190.108C314.238 154.547 314.554 109.23 280.009 88.4527C241.025 65.0046 185.796 55.969 149.259 80.6771C114.238 104.361 135.336 158.546 119.493 197.003C102.187 239.009 43.5275 266.188 54.3782 310.987C65.6285 357.438 120 384.094 167.843 396.628C211.655 408.106 255.628 394.016 294.937 374.01C331.48 355.412 368.608 329.884 376.374 290.5Z" stroke="url(#paint1_linear_157_1115)" stroke-width="1.5"/>
<path opacity="0.125" fill-rule="evenodd" clip-rule="evenodd" d="M382.484 272.013C386.429 235.499 348.716 209.848 329.674 177.464C310.029 144.056 306.472 99.5934 270.867 82.1961C230.685 62.5624 175.825 58.4603 142.15 85.8353C109.871 112.075 135.158 163.389 122.922 202.463C109.558 245.143 54.4268 276.846 68.8763 319.84C83.8581 364.418 139.383 385.872 187.308 394.041C231.197 401.521 273.06 383.917 309.852 360.913C344.055 339.529 378.239 311.299 382.484 272.013Z" stroke="url(#paint2_linear_157_1115)" stroke-width="1.5"/>
<path opacity="0.166667" fill-rule="evenodd" clip-rule="evenodd" d="M387.389 253.715C388.133 217.579 349.021 195.675 327.612 165.566C305.527 134.504 298.246 91.22 261.903 77.2271C220.887 61.4356 166.827 62.1333 136.196 91.8678C106.835 120.369 135.974 168.5 127.332 207.86C117.893 250.852 66.6256 286.675 84.4436 327.581C102.918 369.995 159.111 386.251 206.728 390.137C250.335 393.695 289.817 372.835 323.873 347.118C355.532 323.212 386.588 292.596 387.389 253.715Z" stroke="url(#paint3_linear_157_1115)" stroke-width="1.5"/>
<path opacity="0.208333" fill-rule="evenodd" clip-rule="evenodd" d="M391.131 235.714C388.77 200.231 348.619 182.122 325.093 154.448C300.823 125.9 289.998 84.0999 253.233 73.5061C211.742 61.5506 158.893 66.8775 131.458 98.6526C105.16 129.11 137.791 173.784 132.699 213.104C127.136 256.053 80.0245 295.569 100.96 334.133C122.666 374.118 179.051 385.226 225.985 384.945C268.967 384.688 305.823 360.85 336.955 332.719C365.895 306.568 393.671 273.892 391.131 235.714Z" stroke="url(#paint4_linear_157_1115)" stroke-width="1.5"/>
<path opacity="0.25" fill-rule="evenodd" clip-rule="evenodd" d="M393.759 218.111C388.412 183.543 347.581 169.239 322.195 144.139C296.007 118.244 281.839 78.2121 244.963 70.983C203.347 62.8246 152.1 72.5753 127.978 106.064C104.856 138.165 140.605 179.144 138.989 218.111C137.223 260.675 94.5135 303.436 118.296 339.431C142.955 376.752 199.069 382.803 244.963 378.503C286.991 374.566 321.009 348.048 349.059 317.812C375.134 289.705 399.512 255.304 393.759 218.111Z" stroke="url(#paint5_linear_157_1115)" stroke-width="1.5"/>
<path opacity="0.291667" fill-rule="evenodd" clip-rule="evenodd" d="M395.332 201.001C387.14 167.594 345.98 157.075 319.001 134.658C291.17 111.531 273.881 73.5259 237.197 69.5992C195.797 65.1678 146.511 79.1051 125.79 113.977C105.928 147.402 144.404 184.488 146.162 222.8C148.083 264.649 109.978 310.194 136.323 343.421C163.638 377.873 219.037 378.999 263.554 370.86C304.321 363.407 335.318 334.518 360.159 302.498C383.252 272.732 404.146 236.945 395.332 201.001Z" stroke="url(#paint6_linear_157_1115)" stroke-width="1.5"/>
<path opacity="0.333333" fill-rule="evenodd" clip-rule="evenodd" d="M395.917 184.471C385.04 152.454 343.895 145.667 315.594 126.017C286.398 105.744 266.233 70.0004 230.029 69.2874C189.172 68.4826 142.182 86.3405 124.916 122.261C108.366 156.692 149.166 189.726 154.174 227.097C159.644 267.917 126.297 315.775 154.906 346.066C184.57 377.474 238.83 373.846 281.656 362.074C320.874 351.294 348.701 320.354 370.24 286.875C390.263 255.752 407.619 218.92 395.917 184.471Z" stroke="url(#paint7_linear_157_1115)" stroke-width="1.5"/>
<path opacity="0.375" fill-rule="evenodd" clip-rule="evenodd" d="M395.585 168.602C382.202 138.184 341.403 135.046 312.053 118.219C281.773 100.86 258.992 67.5857 223.545 69.9725C183.542 72.6661 139.148 94.153 125.359 130.79C112.143 165.908 154.861 194.772 162.967 230.932C171.822 270.428 143.343 320.123 173.909 347.34C205.602 375.56 258.325 367.386 299.171 352.212C336.576 338.316 361.115 305.655 379.29 271.043C396.185 238.868 409.984 201.331 395.585 168.602Z" stroke="url(#paint8_linear_157_1115)" stroke-width="1.5"/>
<path opacity="0.416667" fill-rule="evenodd" clip-rule="evenodd" d="M394.417 153.465C378.722 124.835 338.587 125.233 308.459 111.262C277.379 96.849 252.254 66.2229 217.824 71.5727C178.967 77.6102 137.439 102.412 127.119 139.439C117.227 174.93 161.453 199.544 172.487 234.241C184.539 272.14 160.988 323.194 193.198 347.23C226.595 372.152 277.408 359.669 316.013 341.346C351.367 324.567 372.533 290.518 387.313 255.101C401.053 222.177 411.305 184.269 394.417 153.465Z" stroke="url(#paint9_linear_157_1115)" stroke-width="1.5"/>
<path opacity="0.458333" fill-rule="evenodd" clip-rule="evenodd" d="M392.499 139.122C374.7 112.448 335.528 116.243 304.893 105.133C273.289 93.6719 246.107 65.8454 212.934 74.0002C175.497 83.2031 137.068 110.988 130.178 148.083C123.574 183.64 168.898 203.965 182.667 236.969C197.706 273.019 179.101 324.957 212.637 345.736C247.409 367.281 295.971 350.759 332.104 329.56C365.193 310.146 382.935 275.044 394.32 239.145C404.903 205.773 411.651 167.822 392.499 139.122Z" stroke="url(#paint10_linear_157_1115)" stroke-width="1.5"/>
<path opacity="0.5" fill-rule="evenodd" clip-rule="evenodd" d="M389.921 125.627C370.236 101.055 332.307 108.083 301.431 99.8144C269.577 91.2844 240.629 66.3796 208.937 77.1621C173.17 89.3305 138.037 119.752 134.51 156.604C131.129 191.928 177.146 207.962 193.441 239.065C211.239 273.039 197.551 325.396 232.096 342.873C267.914 360.993 313.913 340.726 347.372 316.939C378.012 295.156 392.309 259.332 400.33 223.268C407.786 189.743 411.101 152.066 389.921 125.627Z" stroke="url(#paint11_linear_157_1115)" stroke-width="1.5"/>
<path opacity="0.541667" fill-rule="evenodd" clip-rule="evenodd" d="M386.773 113.024C365.431 90.6753 329.006 100.749 298.145 95.2795C266.307 89.6365 235.892 67.7459 205.88 80.9619C172.009 95.8768 140.335 128.575 140.074 164.886C139.825 199.692 186.139 211.471 204.736 240.488C225.049 272.183 216.207 324.506 251.445 338.664C287.982 353.344 331.143 329.65 361.756 303.576C389.79 279.699 400.655 243.483 405.371 207.562C409.755 174.17 409.737 137.07 386.773 113.024Z" stroke="url(#paint12_linear_157_1115)" stroke-width="1.5"/>
<path opacity="0.583333" fill-rule="evenodd" clip-rule="evenodd" d="M383.154 101.348C360.389 81.321 325.704 94.2345 295.107 91.4967C263.541 88.6724 231.959 69.8591 203.805 85.3001C172.033 102.726 143.941 137.335 146.825 172.822C149.591 206.837 195.818 214.432 216.48 241.204C239.048 270.446 234.941 322.295 270.562 333.149C307.496 344.403 347.579 317.618 375.207 289.569C400.508 263.882 407.983 227.593 409.481 192.112C410.874 159.128 407.648 122.895 383.154 101.348Z" stroke="url(#paint13_linear_157_1115)" stroke-width="1.5"/>
<path opacity="0.625" fill-rule="evenodd" clip-rule="evenodd" d="M379.159 90.6214C355.21 72.9922 322.478 88.5207 292.381 88.4274C261.331 88.3312 228.883 72.6294 202.743 90.0745C173.242 109.762 148.82 145.912 154.705 180.308C160.346 213.277 206.117 216.794 228.596 241.185C253.15 267.826 253.626 318.782 289.328 326.374C326.346 334.246 363.147 304.723 387.683 275.015C410.153 247.809 414.309 211.758 412.702 176.998C411.209 144.685 404.927 109.589 379.159 90.6214Z" stroke="url(#paint14_linear_157_1115)" stroke-width="1.5"/>
<path opacity="0.666667" fill-rule="evenodd" clip-rule="evenodd" d="M374.886 80.8611C349.995 65.6807 319.401 83.5848 290.027 86.0282C259.724 88.5488 226.706 75.9643 202.711 95.1829C175.631 116.872 154.929 154.193 163.646 187.25C172.001 218.936 216.964 218.513 241.007 240.412C267.268 264.333 272.14 314 307.631 318.4C344.43 322.962 377.783 291.064 399.153 260.018C418.724 231.587 419.66 196.068 415.085 162.296C410.833 130.901 401.668 97.1944 374.886 80.8611Z" stroke="url(#paint15_linear_157_1115)" stroke-width="1.5"/>
<path opacity="0.708333" fill-rule="evenodd" clip-rule="evenodd" d="M370.432 72.071C344.839 59.3672 316.544 79.3956 288.102 84.2494C258.761 89.2568 225.465 79.7675 203.72 100.522C179.179 123.944 162.213 162.068 173.575 193.56C184.465 223.746 228.288 219.55 253.635 238.875C281.32 259.984 290.368 307.992 325.369 309.294C361.659 310.644 391.435 276.742 409.596 244.678C426.228 215.316 424.07 180.612 416.687 148.074C409.824 117.827 397.97 85.7395 370.432 72.071Z" stroke="url(#paint16_linear_157_1115)" stroke-width="1.5"/>
<path opacity="0.75" fill-rule="evenodd" clip-rule="evenodd" d="M365.894 64.2473C339.837 54.0251 313.974 75.9169 286.656 83.0384C258.474 90.3852 225.183 83.9426 205.77 105.991C183.861 130.873 170.61 169.439 184.411 199.162C197.64 227.652 240.015 219.877 266.403 236.57C295.227 254.804 308.199 300.811 342.445 299.134C377.953 297.396 404.062 261.864 419.003 229.101C432.685 199.097 427.582 165.472 417.571 134.396C408.264 105.507 393.93 75.2458 365.894 64.2473Z" stroke="url(#paint17_linear_157_1115)" stroke-width="1.5"/>
<path opacity="0.791667" fill-rule="evenodd" clip-rule="evenodd" d="M361.365 57.376C335.077 49.618 311.751 73.1057 285.731 82.3374C258.888 91.8612 225.874 88.3913 208.85 111.488C189.637 137.554 180.046 176.213 196.067 203.985C211.424 230.606 252.067 219.471 279.236 233.501C308.912 248.825 325.53 292.519 358.775 288.005C393.244 283.325 415.633 246.538 427.372 213.387C438.123 183.027 430.245 150.723 417.802 121.314C406.235 93.975 389.648 65.7232 361.365 57.376Z" stroke="url(#paint18_linear_157_1115)" stroke-width="1.5"/>
<path opacity="0.833333" fill-rule="evenodd" clip-rule="evenodd" d="M356.934 51.4346C330.643 46.102 309.93 70.9144 285.365 82.086C260.022 93.6112 227.544 93.0163 212.941 116.918C196.46 143.892 190.442 182.305 208.451 207.972C225.713 232.574 264.368 218.319 292.058 229.678C322.304 242.086 342.265 283.19 374.28 275.999C407.473 268.543 426.126 230.873 434.712 197.636C442.575 167.198 432.113 136.438 417.452 108.878C403.822 83.2575 385.221 57.1723 356.934 51.4346Z" stroke="url(#paint19_linear_157_1115)" stroke-width="1.5"/>
<path opacity="0.875" fill-rule="evenodd" clip-rule="evenodd" d="M352.69 46.393C326.615 43.4264 308.566 69.2914 285.59 82.222C261.887 95.5618 230.191 97.7221 218.016 122.187C204.277 149.796 201.715 187.642 221.469 211.072C240.403 233.531 276.843 216.415 304.8 225.122C335.337 234.632 358.321 272.904 388.897 263.214C420.599 253.168 435.535 214.978 441.044 181.947C446.089 151.697 433.251 122.679 416.596 97.1264C401.113 73.3721 380.746 49.5849 352.69 46.393Z" stroke="url(#paint20_linear_157_1115)" stroke-width="1.5"/>
<path opacity="0.916667" fill-rule="evenodd" clip-rule="evenodd" d="M348.713 42.2117C323.061 41.5327 307.698 68.1798 286.428 82.6799C264.485 97.6388 233.797 102.414 224.036 127.205C213.02 155.182 213.77 192.159 235.019 213.248C255.387 233.463 289.412 213.761 317.39 219.856C347.949 226.514 373.617 261.746 402.568 249.752C432.585 237.316 443.859 198.961 446.393 166.412C448.713 136.605 433.721 109.504 415.308 86.0915C398.191 64.3267 376.314 42.9424 348.713 42.2117Z" stroke="url(#paint21_linear_157_1115)" stroke-width="1.5"/>
<path opacity="0.958333" fill-rule="evenodd" clip-rule="evenodd" d="M345.082 38.8449C320.048 40.357 307.369 67.5201 287.899 83.3937C267.813 99.7696 238.343 107.002 230.958 131.889C222.624 159.975 226.514 195.8 249.004 214.47C270.562 232.366 302.006 210.364 329.765 213.912C360.087 217.787 388.088 249.81 415.25 235.719C443.413 221.108 451.112 182.928 450.797 151.122C450.509 121.996 433.597 96.9618 413.669 75.7966C395.143 56.1212 372.016 37.2179 345.082 38.8449Z" stroke="url(#paint22_linear_157_1115)" stroke-width="1.5"/>
<path fill-rule="evenodd" clip-rule="evenodd" d="M341.866 36.2398C317.634 39.8304 307.607 67.2501 290.012 84.2971C271.86 101.883 243.797 111.398 238.73 136.161C233.011 164.107 239.846 198.522 263.322 214.721C285.824 230.247 314.55 206.241 341.866 207.327C371.703 208.512 401.678 237.193 426.911 221.222C453.073 204.663 457.314 166.981 454.301 136.161C451.541 107.938 432.951 85.0935 411.756 66.2575C392.054 48.7473 367.939 32.3765 341.866 36.2398Z" stroke="url(#paint23_linear_157_1115)" stroke-width="1.5"/>
<defs>
<linearGradient id="paint0_linear_157_1115" x1="367.183" y1="315.218" x2="86.8016" y2="184.474" gradientUnits="userSpaceOnUse">
<stop stop-color="#3EE030"/>
<stop offset="1" stop-color="#CDFF03" stop-opacity="0"/>
</linearGradient>
<linearGradient id="paint1_linear_157_1115" x1="375.091" y1="296.693" x2="89.2418" y2="192.652" gradientUnits="userSpaceOnUse">
<stop stop-color="#3EE030"/>
<stop offset="1" stop-color="#CDFF03" stop-opacity="0"/>
</linearGradient>
<linearGradient id="paint2_linear_157_1115" x1="381.756" y1="278.195" x2="92.924" y2="200.803" gradientUnits="userSpaceOnUse">
<stop stop-color="#3EE030"/>
<stop offset="1" stop-color="#CDFF03" stop-opacity="0"/>
</linearGradient>
<linearGradient id="paint3_linear_157_1115" x1="387.204" y1="259.839" x2="97.8212" y2="208.813" gradientUnits="userSpaceOnUse">
<stop stop-color="#3EE030"/>
<stop offset="1" stop-color="#CDFF03" stop-opacity="0"/>
</linearGradient>
<linearGradient id="paint4_linear_157_1115" x1="391.474" y1="241.733" x2="103.899" y2="216.573" gradientUnits="userSpaceOnUse">
<stop stop-color="#3EE030"/>
<stop offset="1" stop-color="#CDFF03" stop-opacity="0"/>
</linearGradient>
<linearGradient id="paint5_linear_157_1115" x1="394.609" y1="223.979" x2="111.109" y2="223.979" gradientUnits="userSpaceOnUse">
<stop stop-color="#3EE030"/>
<stop offset="1" stop-color="#CDFF03" stop-opacity="0"/>
</linearGradient>
<linearGradient id="paint6_linear_157_1115" x1="396.666" y1="206.677" x2="119.398" y2="230.935" gradientUnits="userSpaceOnUse">
<stop stop-color="#3EE030"/>
<stop offset="1" stop-color="#CDFF03" stop-opacity="0"/>
</linearGradient>
<linearGradient id="paint7_linear_157_1115" x1="397.709" y1="189.916" x2="128.705" y2="237.349" gradientUnits="userSpaceOnUse">
<stop stop-color="#3EE030"/>
<stop offset="1" stop-color="#CDFF03" stop-opacity="0"/>
</linearGradient>
<linearGradient id="paint8_linear_157_1115" x1="397.804" y1="173.78" x2="138.955" y2="243.138" gradientUnits="userSpaceOnUse">
<stop stop-color="#3EE030"/>
<stop offset="1" stop-color="#CDFF03" stop-opacity="0"/>
</linearGradient>
<linearGradient id="paint9_linear_157_1115" x1="397.032" y1="158.343" x2="150.074" y2="248.228" gradientUnits="userSpaceOnUse">
<stop stop-color="#3EE030"/>
<stop offset="1" stop-color="#CDFF03" stop-opacity="0"/>
</linearGradient>
<linearGradient id="paint10_linear_157_1115" x1="395.474" y1="143.672" x2="161.979" y2="252.553" gradientUnits="userSpaceOnUse">
<stop stop-color="#3EE030"/>
<stop offset="1" stop-color="#CDFF03" stop-opacity="0"/>
</linearGradient>
<linearGradient id="paint11_linear_157_1115" x1="393.218" y1="129.824" x2="174.581" y2="256.054" gradientUnits="userSpaceOnUse">
<stop stop-color="#3EE030"/>
<stop offset="1" stop-color="#CDFF03" stop-opacity="0"/>
</linearGradient>
<linearGradient id="paint12_linear_157_1115" x1="390.355" y1="116.847" x2="187.79" y2="258.685" gradientUnits="userSpaceOnUse">
<stop stop-color="#3EE030"/>
<stop offset="1" stop-color="#CDFF03" stop-opacity="0"/>
</linearGradient>
<linearGradient id="paint13_linear_157_1115" x1="386.981" y1="104.779" x2="201.511" y2="260.406" gradientUnits="userSpaceOnUse">
<stop stop-color="#3EE030"/>
<stop offset="1" stop-color="#CDFF03" stop-opacity="0"/>
</linearGradient>
<linearGradient id="paint14_linear_157_1115" x1="383.191" y1="93.6479" x2="215.649" y2="261.19" gradientUnits="userSpaceOnUse">
<stop stop-color="#3EE030"/>
<stop offset="1" stop-color="#CDFF03" stop-opacity="0"/>
</linearGradient>
<linearGradient id="paint15_linear_157_1115" x1="379.082" y1="83.4739" x2="230.105" y2="261.018" gradientUnits="userSpaceOnUse">
<stop stop-color="#3EE030"/>
<stop offset="1" stop-color="#CDFF03" stop-opacity="0"/>
</linearGradient>
<linearGradient id="paint16_linear_157_1115" x1="374.751" y1="74.265" x2="244.782" y2="259.879" gradientUnits="userSpaceOnUse">
<stop stop-color="#3EE030"/>
<stop offset="1" stop-color="#CDFF03" stop-opacity="0"/>
</linearGradient>
<linearGradient id="paint17_linear_157_1115" x1="370.295" y1="66.0214" x2="259.585" y2="257.777" gradientUnits="userSpaceOnUse">
<stop stop-color="#3EE030"/>
<stop offset="1" stop-color="#CDFF03" stop-opacity="0"/>
</linearGradient>
<linearGradient id="paint18_linear_157_1115" x1="365.809" y1="58.7326" x2="274.419" y2="254.719" gradientUnits="userSpaceOnUse">
<stop stop-color="#3EE030"/>
<stop offset="1" stop-color="#CDFF03" stop-opacity="0"/>
</linearGradient>
<linearGradient id="paint19_linear_157_1115" x1="361.382" y1="52.38" x2="289.191" y2="250.724" gradientUnits="userSpaceOnUse">
<stop stop-color="#3EE030"/>
<stop offset="1" stop-color="#CDFF03" stop-opacity="0"/>
</linearGradient>
<linearGradient id="paint20_linear_157_1115" x1="357.106" y1="46.9368" x2="303.815" y2="245.821" gradientUnits="userSpaceOnUse">
<stop stop-color="#3EE030"/>
<stop offset="1" stop-color="#CDFF03" stop-opacity="0"/>
</linearGradient>
<linearGradient id="paint21_linear_157_1115" x1="353.061" y1="42.3669" x2="318.205" y2="240.044" gradientUnits="userSpaceOnUse">
<stop stop-color="#3EE030"/>
<stop offset="1" stop-color="#CDFF03" stop-opacity="0"/>
</linearGradient>
<linearGradient id="paint22_linear_157_1115" x1="349.328" y1="38.6275" x2="332.284" y2="233.437" gradientUnits="userSpaceOnUse">
<stop stop-color="#3EE030"/>
<stop offset="1" stop-color="#CDFF03" stop-opacity="0"/>
</linearGradient>
<linearGradient id="paint23_linear_157_1115" x1="345.98" y1="35.6687" x2="345.98" y2="226.049" gradientUnits="userSpaceOnUse">
<stop stop-color="#3EE030"/>
<stop offset="1" stop-color="#CDFF03" stop-opacity="0"/>
</linearGradient>
</defs>
</svg>
