<svg width="478" height="373" viewBox="0 0 478 373" fill="none" xmlns="http://www.w3.org/2000/svg">
<path opacity="0.0416667" d="M114.661 452.061C77.2992 389.575 62.597 307.22 98.1688 246.611C114.838 218.21 142.819 207.138 174.604 200.679C186.345 198.293 198.569 196.543 210.914 194.775C215.285 194.15 219.672 193.522 224.058 192.862C240.81 190.344 257.526 187.374 273.198 182.334C293.486 175.809 314.002 164.783 334.378 152.844C340.486 149.264 346.579 145.604 352.651 141.957C366.86 133.422 380.954 124.957 394.848 117.76C414.673 107.491 433.994 99.8597 452.503 98.3302C470.977 96.8036 488.667 101.352 505.288 115.504C538.511 143.792 537.829 184.315 526.886 228.853C522.284 247.582 515.884 266.956 509.473 286.364C508.266 290.019 507.058 293.675 505.862 297.328C498.321 320.36 491.241 343.27 487.67 364.935C485.605 377.457 484.158 390.288 482.718 403.054C482.487 405.109 482.255 407.162 482.021 409.212C480.333 424.008 478.521 438.641 475.631 452.585C469.852 480.472 459.776 505.507 437.855 523.462C393.364 559.905 331.254 552.845 273.876 540.178C212.163 526.554 147.871 507.605 114.661 452.061Z" stroke="url(#paint0_linear_157_1141)" stroke-opacity="0.3" stroke-width="1.5"/>
<path opacity="0.0833333" d="M104.14 427.462C72.6441 362.557 65.2775 279.982 105.715 223.195C124.664 196.584 153.286 188.055 185.27 184.406C197.084 183.058 209.32 182.379 221.678 181.694C226.054 181.451 230.445 181.208 234.837 180.933C251.617 179.885 268.401 178.387 284.332 174.756C304.956 170.055 326.198 160.93 347.379 150.89C353.729 147.88 360.071 144.79 366.39 141.71C381.18 134.502 395.849 127.354 410.21 121.44C430.703 113.002 450.465 107.127 468.895 107.206C487.289 107.284 504.379 113.293 519.578 128.692C549.955 159.472 545.756 199.421 531.063 242.458C524.884 260.555 516.872 279.135 508.845 297.747C507.334 301.252 505.821 304.759 504.321 308.264C494.861 330.358 485.869 352.372 480.452 373.458C477.322 385.645 474.775 398.19 472.24 410.671C471.832 412.68 471.425 414.688 471.015 416.692C468.059 431.156 464.995 445.448 460.924 458.968C452.784 486.007 440.646 509.86 417.415 525.705C370.263 557.867 309.48 545.565 253.861 528.132C194.039 509.382 132.135 485.152 104.14 427.462Z" stroke="url(#paint1_linear_157_1141)" stroke-opacity="0.3" stroke-width="1.5"/>
<path opacity="0.125" d="M95.5124 402.507C70.0178 335.728 69.9126 253.579 114.822 200.995C135.866 176.355 164.902 170.395 196.837 169.541C208.634 169.226 220.789 169.608 233.066 169.993C237.412 170.13 241.775 170.267 246.141 170.373C262.821 170.781 279.544 170.745 295.61 168.529C316.407 165.661 338.2 158.477 360.012 150.386C366.552 147.961 373.09 145.455 379.605 142.957C394.853 137.113 409.975 131.317 424.686 126.714C445.678 120.145 465.725 116.043 483.937 117.705C502.113 119.363 518.485 126.764 532.17 143.271C559.523 176.264 551.901 215.337 533.635 256.561C525.954 273.895 516.418 291.549 506.866 309.233C505.067 312.564 503.267 315.896 501.479 319.227C490.207 340.225 479.403 361.185 472.216 381.536C468.062 393.298 464.454 405.464 460.864 417.568C460.286 419.516 459.708 421.463 459.129 423.406C454.949 437.432 450.678 451.278 445.479 464.274C435.082 490.267 421.01 512.77 396.668 526.416C347.26 554.113 288.242 536.745 234.772 514.755C177.262 491.103 118.173 461.863 95.5124 402.507Z" stroke="url(#paint2_linear_157_1141)" stroke-opacity="0.3" stroke-width="1.5"/>
<path opacity="0.166667" d="M88.7862 377.369C69.3781 309.261 76.4036 228.169 125.363 180.134C148.304 157.625 177.525 154.24 209.17 156.147C220.86 156.851 232.843 158.274 244.947 159.711C249.232 160.219 253.532 160.73 257.84 161.211C274.294 163.049 290.83 164.453 306.906 163.648C327.716 162.607 349.884 157.392 372.15 151.283C378.825 149.451 385.507 147.54 392.164 145.636C407.746 141.18 423.198 136.76 438.142 133.482C459.464 128.805 479.639 126.482 497.498 129.69C515.322 132.891 530.863 141.603 542.959 159.073C567.134 193.989 556.21 231.897 534.575 271.014C525.477 287.463 514.517 304.068 503.539 320.701C501.471 323.834 499.403 326.968 497.346 330.101C484.381 349.858 471.881 369.617 463.009 389.087C457.881 400.339 453.258 412.037 448.658 423.675C447.918 425.549 447.178 427.421 446.437 429.289C441.087 442.773 435.663 456.072 429.396 468.453C416.862 493.213 400.998 514.213 375.75 525.587C324.504 548.672 267.667 526.451 216.715 500.144C161.912 471.848 106.036 437.902 88.7862 377.369Z" stroke="url(#paint3_linear_157_1141)" stroke-opacity="0.3" stroke-width="1.5"/>
<path opacity="0.208333" d="M83.9574 352.214C70.6719 283.326 84.6432 203.904 137.204 160.719C161.832 140.483 191.012 139.661 222.131 144.27C233.626 145.973 245.35 148.41 257.19 150.871C261.383 151.743 265.59 152.617 269.807 153.463C285.915 156.695 302.141 159.506 318.103 160.098C338.767 160.864 361.135 157.628 383.677 153.518C390.434 152.285 397.205 150.975 403.952 149.67C419.742 146.615 435.401 143.585 450.458 141.638C471.943 138.86 492.087 138.306 509.464 143.011C526.807 147.706 541.415 157.643 551.858 175.925C572.729 212.464 558.649 248.93 533.87 285.671C523.451 301.121 511.178 316.563 498.883 332.033C496.568 334.946 494.252 337.861 491.947 340.776C477.417 359.157 463.348 377.58 452.89 396.032C446.845 406.695 441.261 417.842 435.705 428.932C434.811 430.717 433.918 432.5 433.023 434.28C426.566 447.126 420.052 459.784 412.783 471.462C398.247 494.818 380.746 514.174 354.801 523.223C302.141 541.588 247.879 514.76 199.787 484.405C148.06 451.755 95.7651 413.439 83.9574 352.214Z" stroke="url(#paint4_linear_157_1141)" stroke-opacity="0.3" stroke-width="1.5"/>
<path opacity="0.25" d="M81.0065 327.211C73.8311 258.087 94.5114 180.922 150.204 142.846C176.299 125.005 205.214 126.713 235.579 133.948C246.796 136.62 258.174 140.037 269.666 143.488C273.736 144.71 277.819 145.936 281.915 147.135C297.559 151.715 313.357 155.89 329.086 157.852C349.448 160.392 371.84 159.13 394.48 157.02C401.267 156.388 408.074 155.679 414.857 154.973C430.73 153.322 446.473 151.684 461.526 151.063C483.005 150.176 502.967 151.369 519.737 157.511C536.475 163.641 550.055 174.708 558.796 193.648C576.267 231.502 559.196 266.268 531.523 300.385C519.887 314.731 506.419 328.909 492.927 343.114C490.386 345.789 487.844 348.465 485.314 351.143C469.36 368.027 453.857 384.993 441.923 402.298C435.025 412.3 428.54 422.818 422.089 433.282C421.051 434.966 420.013 436.648 418.975 438.327C411.481 450.447 403.946 462.374 395.751 473.271C379.362 495.063 360.387 512.652 333.958 519.34C280.314 532.917 228.994 501.759 184.077 467.653C135.764 430.968 87.3836 388.644 81.0065 327.211Z" stroke="url(#paint5_linear_157_1141)" stroke-opacity="0.3" stroke-width="1.5"/>
<path opacity="0.291667" d="M79.8971 302.522C78.7713 233.698 105.875 159.35 164.212 126.598C191.545 111.252 219.979 115.437 249.37 125.201C260.227 128.808 271.18 133.164 282.242 137.563C286.159 139.121 290.09 140.684 294.035 142.221C309.104 148.093 324.361 153.579 339.74 156.875C359.649 161.142 381.894 161.834 404.456 161.71C411.22 161.673 418.01 161.563 424.776 161.453C440.609 161.196 456.312 160.941 471.245 161.63C492.554 162.613 512.183 165.516 528.23 173.027C544.245 180.523 556.712 192.616 563.717 212.058C577.718 250.915 557.845 283.74 527.545 315.01C514.805 328.158 500.268 340.984 485.705 353.832C482.962 356.252 480.218 358.673 477.485 361.097C460.257 376.377 443.468 391.777 430.176 407.821C422.494 417.093 415.176 426.91 407.895 436.677C406.723 438.249 405.552 439.82 404.381 441.387C395.927 452.697 387.449 463.815 378.408 473.857C360.326 493.942 340.052 509.655 313.351 513.969C259.153 522.725 211.114 487.545 169.657 450.007C125.066 409.631 80.8975 363.687 79.8971 302.522Z" stroke="url(#paint6_linear_157_1141)" stroke-opacity="0.3" stroke-width="1.5"/>
<path opacity="0.333333" d="M80.5817 278.306C85.3989 210.305 118.593 139.3 179.074 112.041C207.412 99.2687 235.154 105.861 263.364 118.041C273.784 122.54 284.234 127.786 294.79 133.085C298.527 134.962 302.278 136.844 306.045 138.703C320.434 145.802 335.041 152.537 349.959 157.121C369.27 163.057 391.199 165.666 413.51 167.499C420.199 168.048 426.92 168.527 433.617 169.005C449.289 170.124 464.832 171.233 479.533 173.206C500.51 176.022 519.661 180.587 534.874 189.387C550.057 198.17 561.337 211.18 566.585 230.968C577.074 270.514 554.607 301.176 521.964 329.404C508.238 341.273 492.764 352.668 477.262 364.083C474.343 366.233 471.422 368.384 468.512 370.539C450.168 384.122 432.245 397.862 417.724 412.541C409.332 421.024 401.253 430.076 393.215 439.082C391.921 440.531 390.629 441.98 389.336 443.424C380.005 453.851 370.668 464.086 360.866 473.211C341.263 491.46 319.871 505.206 293.11 507.149C238.787 511.093 194.336 472.222 156.594 431.593C115.997 387.892 76.3009 338.737 80.5817 278.306Z" stroke="url(#paint7_linear_157_1141)" stroke-opacity="0.3" stroke-width="1.5"/>
<path opacity="0.375" d="M82.9988 254.715C93.6073 188.044 132.519 120.873 194.633 99.2288C223.736 89.0876 250.586 97.9983 277.417 112.464C287.329 117.807 297.206 123.89 307.182 130.034C310.714 132.209 314.259 134.393 317.823 136.553C331.433 144.806 345.291 152.718 359.64 158.537C378.216 166.069 399.664 170.546 421.557 174.29C428.12 175.413 434.721 176.469 441.299 177.522C456.692 179.985 471.957 182.428 486.317 185.651C506.806 190.25 525.34 196.416 539.618 206.418C553.867 216.4 563.894 230.214 567.38 250.19C574.345 290.112 549.507 318.411 514.818 343.428C500.232 353.947 483.96 363.846 467.658 373.763C464.587 375.631 461.516 377.5 458.454 379.373C439.156 391.183 420.261 403.184 404.647 416.406C395.623 424.048 386.859 432.278 378.141 440.466C376.738 441.784 375.336 443.1 373.934 444.413C363.816 453.891 353.708 463.177 343.236 471.329C322.294 487.633 299.971 499.338 273.357 498.932C219.332 498.108 178.746 455.902 144.939 412.542C108.574 365.902 73.5717 313.962 82.9988 254.715Z" stroke="url(#paint8_linear_157_1141)" stroke-opacity="0.3" stroke-width="1.5"/>
<path opacity="0.416667" d="M87.073 231.894C103.278 167.039 147.493 104.155 210.727 88.2002C240.354 80.7253 266.12 91.8496 291.392 108.454C300.727 114.587 309.965 121.447 319.295 128.376C322.599 130.829 325.915 133.291 329.251 135.733C341.991 145.058 355.006 154.069 368.686 161.057C386.396 170.104 407.206 176.385 428.519 181.983C434.909 183.661 441.341 185.277 447.751 186.888C462.75 190.656 477.624 194.393 491.537 198.821C511.389 205.14 529.174 212.834 542.423 223.942C555.646 235.029 564.368 249.528 566.097 269.537C569.552 309.524 542.584 335.283 506.158 356.949C490.842 366.059 473.913 374.411 456.952 382.778C453.758 384.354 450.562 385.931 447.376 387.513C427.292 397.486 407.59 407.685 391.026 419.373C381.453 426.128 372.086 433.486 362.769 440.806C361.269 441.984 359.77 443.161 358.272 444.335C347.46 452.806 336.675 461.09 325.628 468.222C303.535 482.486 280.473 492.093 254.21 489.379C200.898 483.871 164.416 438.703 134.731 392.985C102.8 343.808 72.6727 289.524 87.073 231.894Z" stroke="url(#paint9_linear_157_1141)" stroke-opacity="0.3" stroke-width="1.5"/>
<path opacity="0.458333" d="M92.7171 209.979C114.285 147.405 163.356 89.2137 227.194 78.9787C257.103 74.1835 281.605 87.4011 305.15 105.983C313.848 112.847 322.386 120.419 331.011 128.068C334.065 130.776 337.13 133.494 340.217 136.193C352.005 146.503 364.092 156.527 377.009 164.613C393.732 175.08 413.754 183.09 434.331 190.468C440.5 192.68 446.717 194.835 452.912 196.981C467.407 202.005 481.783 206.987 495.149 212.567C514.221 220.529 531.132 229.669 543.269 241.782C555.382 253.87 562.756 268.933 562.75 288.822C562.737 328.57 533.889 351.634 496.044 369.839C480.132 377.494 462.691 384.26 445.217 391.039C441.926 392.315 438.634 393.593 435.35 394.876C414.653 402.968 394.313 411.315 376.945 421.405C366.908 427.236 357.023 433.681 347.19 440.092C345.607 441.123 344.026 442.154 342.446 443.181C331.038 450.598 319.672 457.831 308.147 463.906C285.098 476.055 261.491 483.526 235.778 478.562C183.58 468.486 151.408 420.749 125.998 373.058C98.6647 321.758 73.5526 265.58 92.7171 209.979Z" stroke="url(#paint10_linear_157_1141)" stroke-opacity="0.3" stroke-width="1.5"/>
<path opacity="0.5" d="M99.8332 189.098C126.491 129.241 179.939 76.1069 243.87 71.5739C273.822 69.4502 296.893 84.6264 318.56 105.013C326.564 112.543 334.351 120.759 342.216 129.057C345.001 131.996 347.796 134.944 350.614 137.877C361.376 149.077 372.457 160.021 384.526 169.125C400.149 180.911 419.241 190.559 438.936 199.633C444.84 202.353 450.797 205.021 456.732 207.679C470.621 213.9 484.395 220.069 497.12 226.739C515.278 236.258 531.199 246.749 542.152 259.758C553.082 272.74 559.076 288.243 557.368 307.865C553.954 347.076 523.491 367.315 484.55 381.978C468.178 388.143 450.371 393.298 432.53 398.464C429.17 399.436 425.809 400.41 422.456 401.39C401.319 407.569 380.513 414.031 362.493 422.473C352.08 427.351 341.764 432.848 331.503 438.316C329.851 439.196 328.201 440.076 326.551 440.952C314.648 447.275 302.803 453.421 290.899 458.41C267.092 468.387 243.136 473.7 218.163 466.561C167.467 452.07 139.773 402.166 118.754 352.897C96.1437 299.898 76.1468 242.283 99.8332 189.098Z" stroke="url(#paint11_linear_157_1141)" stroke-opacity="0.3" stroke-width="1.5"/>
<path opacity="0.541667" d="M108.314 169.369C139.754 112.635 197.076 64.874 260.596 65.9805C290.354 66.499 311.84 83.4857 331.496 105.492C338.757 113.621 345.744 122.407 352.802 131.281C355.302 134.424 357.81 137.577 360.342 140.717C370.013 152.708 380.022 164.473 391.163 174.51C405.585 187.503 423.616 198.69 442.29 209.362C447.889 212.562 453.543 215.714 459.178 218.855C472.362 226.205 485.437 233.494 497.434 241.186C514.553 252.163 529.379 263.904 539.083 277.695C548.767 291.457 553.361 307.276 549.998 326.485C543.277 364.872 511.468 382.183 471.759 393.253C455.063 397.907 437.037 401.44 418.977 404.979C415.576 405.646 412.173 406.313 408.778 406.987C387.376 411.24 366.276 415.801 347.758 422.558C337.057 426.463 326.4 430.986 315.799 435.486C314.092 436.211 312.387 436.934 310.684 437.655C298.388 442.855 286.165 447.885 273.983 451.769C249.621 459.536 225.51 462.687 201.459 453.464C152.635 434.742 129.55 383.087 113.002 332.637C95.2021 278.369 80.3789 219.777 108.314 169.369Z" stroke="url(#paint12_linear_157_1141)" stroke-opacity="0.3" stroke-width="1.5"/>
<path opacity="0.583333" d="M118.041 150.898C153.925 97.6612 214.595 55.5395 277.212 62.1791C306.546 65.2896 326.308 83.9272 343.836 107.359C350.311 116.015 356.459 125.295 362.67 134.669C364.87 137.988 367.077 141.319 369.309 144.638C377.834 157.315 386.712 169.8 396.855 180.678C409.985 194.76 426.833 207.374 444.359 219.536C449.614 223.182 454.928 226.787 460.222 230.378C472.612 238.783 484.899 247.117 496.087 255.756C512.051 268.083 525.687 280.963 534.09 295.419C542.476 309.844 545.661 325.854 540.701 344.513C530.79 381.801 497.911 396.104 457.76 403.559C440.879 406.693 422.781 408.605 404.647 410.52C401.232 410.881 397.816 411.242 394.406 411.611C372.912 413.938 351.69 416.596 332.83 421.647C321.931 424.565 311.022 428.098 300.171 431.613C298.424 432.179 296.679 432.744 294.936 433.306C282.352 437.363 269.855 441.26 257.496 444.028C232.781 449.565 208.708 450.568 185.751 439.367C139.146 416.628 120.764 363.641 108.733 312.413C95.7915 257.306 86.1595 198.196 118.041 150.898Z" stroke="url(#paint13_linear_157_1141)" stroke-opacity="0.3" stroke-width="1.5"/>
<path opacity="0.625" d="M128.89 133.779C168.85 84.3782 232.325 48.1129 293.562 60.1365C322.25 65.7692 340.165 85.8877 355.467 110.544C361.119 119.652 366.397 129.347 371.728 139.14C373.615 142.608 375.51 146.089 377.43 149.56C384.763 162.815 392.461 175.913 401.545 187.534C413.304 202.579 428.858 216.5 445.12 230.034C449.996 234.092 454.934 238.113 459.854 242.121C471.367 251.498 482.783 260.796 493.089 270.299C507.795 283.859 520.155 297.762 527.216 312.761C534.262 327.729 536.039 343.805 529.552 361.784C516.59 397.711 482.922 408.953 442.655 412.801C425.725 414.42 407.698 414.725 389.635 415.03C386.234 415.088 382.831 415.145 379.433 415.212C358.019 415.63 336.844 416.398 317.796 419.735C306.789 421.663 295.72 424.197 284.709 426.717C282.937 427.122 281.166 427.528 279.398 427.93C266.631 430.835 253.963 433.588 241.529 435.24C216.662 438.544 192.817 437.43 171.113 424.371C127.053 397.859 113.43 343.963 105.925 292.356C97.852 236.84 93.3883 177.668 128.89 133.779Z" stroke="url(#paint14_linear_157_1141)" stroke-opacity="0.3" stroke-width="1.5"/>
<path opacity="0.666667" d="M140.728 118.096C184.372 72.8323 250.099 42.5887 309.498 59.8066C337.324 67.8725 353.286 89.2932 366.283 114.965C371.084 124.448 375.465 134.478 379.89 144.61C381.457 148.198 383.03 151.799 384.629 155.392C390.735 169.116 397.214 182.716 405.187 194.98C415.508 210.857 429.67 225.957 444.563 240.736C449.028 245.167 453.557 249.568 458.071 253.953C468.631 264.214 479.104 274.389 488.464 284.669C501.819 299.337 512.829 314.139 518.517 329.559C524.193 344.947 524.576 360.967 516.642 378.143C500.79 412.463 466.613 420.616 426.549 420.896C409.705 421.013 391.891 419.739 374.041 418.462C370.679 418.221 367.316 417.981 363.958 417.749C342.791 416.291 321.83 415.198 302.748 416.827C291.722 417.767 280.583 419.301 269.503 420.826C267.72 421.071 265.937 421.317 264.158 421.559C251.311 423.31 238.577 424.92 226.166 425.464C201.346 426.552 177.913 423.368 157.611 408.584C116.396 378.568 107.549 324.186 104.545 272.594C101.313 217.095 101.956 158.307 140.728 118.096Z" stroke="url(#paint15_linear_157_1141)" stroke-opacity="0.3" stroke-width="1.5"/>
<path opacity="0.708333" d="M153.417 103.918C200.331 63.0543 267.748 38.9462 324.874 61.1304C351.635 71.5225 365.555 94.0594 376.187 120.535C380.114 130.315 383.58 140.598 387.081 150.986C388.321 154.664 389.566 158.355 390.836 162.042C395.69 176.122 400.922 190.113 407.741 202.916C416.569 219.49 429.252 235.632 442.684 251.521C446.712 256.285 450.804 261.025 454.883 265.748C464.426 276.799 473.889 287.757 482.246 298.722C494.17 314.368 503.769 329.939 508.065 345.656C512.351 361.34 511.363 377.184 502.072 393.443C483.509 425.93 449.103 430.992 409.556 427.767C392.93 426.411 375.465 423.597 357.965 420.777C354.668 420.245 351.371 419.714 348.078 419.192C327.321 415.903 306.734 412.993 287.771 412.933C276.812 412.898 265.691 413.438 254.63 413.976C252.851 414.062 251.072 414.149 249.296 414.233C236.474 414.838 223.774 415.315 211.484 414.767C186.908 413.672 164.063 408.483 145.298 392.117C107.2 358.889 103.111 304.439 104.547 253.252C106.093 198.187 111.741 140.219 153.417 103.918Z" stroke="url(#paint16_linear_157_1141)" stroke-opacity="0.3" stroke-width="1.5"/>
<path opacity="0.75" d="M166.816 91.3017C216.569 55.0607 285.112 37.1502 339.556 64.0366C365.06 76.6312 376.864 100.093 385.09 127.157C388.129 137.154 390.67 147.607 393.237 158.167C394.146 161.907 395.058 165.66 395.997 169.41C399.582 183.734 403.548 198.002 409.181 211.236C416.474 228.369 427.606 245.412 439.497 262.271C443.063 267.326 446.695 272.362 450.314 277.381C458.783 289.123 467.181 300.767 474.486 312.32C484.911 328.806 493.049 345.015 495.944 360.905C498.834 376.761 496.507 392.314 485.958 407.55C464.882 437.994 430.523 439.988 391.795 433.351C375.514 430.561 358.529 426.258 341.51 421.946C338.305 421.133 335.098 420.321 331.895 419.518C311.704 414.459 291.649 409.788 272.951 408.073C262.146 407.082 251.132 406.644 240.178 406.208C238.415 406.138 236.653 406.068 234.895 405.996C222.197 405.474 209.631 404.836 197.558 403.222C173.414 399.995 151.328 392.878 134.219 375.084C99.4821 338.958 100.095 284.852 105.879 234.447C112.102 180.223 122.619 123.495 166.816 91.3017Z" stroke="url(#paint17_linear_157_1141)" stroke-opacity="0.3" stroke-width="1.5"/>
<path opacity="0.791667" d="M180.775 80.2915C232.923 48.8538 302.03 37.1521 353.412 68.4434C377.48 83.1011 387.115 107.292 392.914 134.728C395.057 144.863 396.669 155.404 398.298 166.053C398.875 169.825 399.454 173.609 400.059 177.395C402.371 191.848 405.063 206.281 409.487 219.838C415.215 237.39 424.735 255.187 435.019 272.868C438.103 278.169 441.254 283.458 444.394 288.728C451.742 301.06 459.027 313.288 465.244 325.332C483.002 359.735 491.779 392.155 468.424 420.342C445.047 448.555 411.005 447.527 373.388 437.597C357.573 433.422 341.194 427.691 324.783 421.95C321.692 420.868 318.599 419.786 315.509 418.715C296.034 411.958 276.659 405.598 258.369 402.273C247.8 400.352 236.979 398.959 226.215 397.573C224.483 397.35 222.752 397.127 221.023 396.902C208.548 395.28 196.214 393.553 184.448 390.907C160.92 385.615 139.753 376.663 124.404 357.604C93.2415 318.91 98.4658 265.549 108.473 216.292C119.24 163.3 134.453 108.217 180.775 80.2915Z" stroke="url(#paint18_linear_157_1141)" stroke-opacity="0.3" stroke-width="1.5"/>
<path opacity="0.833333" d="M195.15 70.9172C249.239 44.4221 318.355 38.8897 366.324 74.2585C388.793 90.8259 396.222 115.548 399.592 143.141C400.838 153.334 401.526 163.882 402.221 174.539C402.467 178.312 402.714 182.099 402.987 185.889C404.03 200.361 405.45 214.846 408.652 228.617C412.797 246.445 420.659 264.847 429.285 283.2C431.872 288.703 434.526 294.199 437.17 299.676C443.358 312.492 449.494 325.199 454.592 337.631C469.155 373.146 475.033 405.916 449.605 431.708C424.154 457.522 390.692 453.544 354.461 440.462C339.23 434.963 323.576 427.879 307.89 420.78C304.936 419.443 301.98 418.105 299.025 416.778C280.406 408.41 261.851 400.442 244.106 395.566C233.852 392.748 223.304 390.43 212.813 388.125C211.124 387.753 209.437 387.383 207.753 387.01C195.595 384.321 183.585 381.542 172.214 377.905C149.475 370.63 129.377 359.948 115.878 339.795C88.4707 298.879 98.1821 246.651 112.258 198.89C127.402 147.507 147.107 94.4511 195.15 70.9172Z" stroke="url(#paint19_linear_157_1141)" stroke-opacity="0.3" stroke-width="1.5"/>
<path opacity="0.875" d="M209.79 63.195C265.359 41.7392 333.94 42.288 378.18 81.3797C398.902 99.6905 404.106 124.744 405.065 152.283C405.419 162.455 405.194 172.93 404.967 183.513C404.886 187.26 404.806 191.02 404.75 194.786C404.538 209.166 404.697 223.591 406.673 237.468C409.231 255.432 415.404 274.285 422.333 293.157C424.411 298.816 426.556 304.474 428.693 310.112C433.693 323.304 438.652 336.384 442.611 349.102C453.921 385.436 456.906 418.3 429.643 441.551C402.356 464.822 369.726 457.987 335.142 441.919C320.604 435.164 305.784 426.808 290.934 418.435C288.137 416.858 285.338 415.28 282.541 413.712C264.908 403.831 247.305 394.349 230.234 387.991C220.371 384.317 210.174 381.111 200.032 377.922C198.4 377.409 196.77 376.896 195.142 376.382C183.391 372.669 171.794 368.881 160.9 364.301C139.115 355.141 120.226 342.846 108.65 321.776C85.1457 278.994 99.1873 228.272 117.149 182.339C136.472 132.921 160.433 82.2518 209.79 63.195Z" stroke="url(#paint20_linear_157_1141)" stroke-opacity="0.3" stroke-width="1.5"/>
<path opacity="0.916667" d="M224.545 57.1282C281.133 40.7666 348.651 47.2609 388.882 89.6972C407.726 109.574 410.704 134.762 409.286 162.037C408.763 172.111 407.642 182.435 406.51 192.864C406.109 196.557 405.707 200.263 405.33 203.977C403.887 218.157 402.806 232.415 403.563 246.289C404.542 264.249 409.006 283.401 414.214 302.636C415.776 308.404 417.404 314.177 419.026 319.93C422.821 333.389 426.584 346.735 429.393 359.637C437.419 396.494 437.54 429.2 408.688 449.789C379.813 470.395 348.256 460.816 315.561 441.949C301.816 434.018 287.933 424.481 274.02 414.924C271.399 413.124 268.777 411.323 266.155 409.532C249.631 398.246 233.1 387.355 216.827 379.595C207.423 375.111 197.652 371.06 187.934 367.031C186.37 366.383 184.807 365.735 183.247 365.086C171.988 360.4 160.887 355.653 150.548 350.185C129.871 339.251 112.317 325.472 102.72 303.664C83.2334 259.384 101.418 210.522 123.055 166.726C146.334 119.607 174.287 71.6598 224.545 57.1282Z" stroke="url(#paint21_linear_157_1141)" stroke-opacity="0.3" stroke-width="1.5"/>
<path opacity="0.958333" d="M239.27 52.7066C296.416 41.452 362.363 53.7111 398.342 99.0934C415.194 120.35 415.962 145.477 412.221 172.284C410.839 182.186 408.848 192.282 406.837 202.482C406.124 206.094 405.409 209.719 404.718 213.353C402.078 227.23 399.787 241.214 399.34 254.979C398.76 272.798 401.512 292.096 404.988 311.54C406.031 317.37 407.138 323.212 408.241 329.032C410.822 342.65 413.381 356.154 415.04 369.136C419.778 406.225 417.083 438.524 386.898 456.353C356.688 474.195 326.431 462.008 295.847 440.547C282.99 431.526 270.134 420.907 257.25 410.266C254.824 408.262 252.396 406.257 249.967 404.261C234.66 391.686 219.312 379.501 203.948 370.429C195.071 365.187 185.794 360.341 176.567 355.521C175.082 354.745 173.599 353.97 172.118 353.194C161.43 347.593 150.904 341.945 141.189 335.65C121.762 323.063 105.656 307.94 98.078 285.577C82.6905 240.17 104.803 193.5 129.881 152.13C156.863 107.62 188.519 62.7018 239.27 52.7066Z" stroke="url(#paint22_linear_157_1141)" stroke-opacity="0.3" stroke-width="1.5"/>
<path d="M253.819 49.9072C311.068 43.7317 374.958 61.5316 406.481 109.445C421.246 131.886 419.837 156.76 413.843 182.905C411.629 192.562 408.798 202.358 405.938 212.255C404.925 215.76 403.909 219.277 402.915 222.806C399.119 236.279 395.658 249.889 394.031 263.442C391.925 280.986 392.971 300.278 394.72 319.776C395.244 325.623 395.831 331.487 396.416 337.329C397.785 350.998 399.142 364.551 399.657 377.512C401.127 414.542 395.69 446.196 364.429 461.189C333.145 476.193 304.4 461.551 276.126 437.719C264.241 427.702 252.495 416.107 240.723 404.488C238.506 402.299 236.288 400.11 234.067 397.93C220.075 384.191 206.009 370.834 191.658 360.549C183.367 354.607 174.647 349.02 165.975 343.464C164.579 342.57 163.185 341.677 161.794 340.783C151.75 334.329 141.869 327.843 132.844 320.789C114.797 306.684 100.238 290.362 94.7018 267.628C83.46 221.469 109.258 177.301 137.522 138.621C167.932 97.0038 202.978 55.3915 253.819 49.9072Z" stroke="url(#paint23_linear_157_1141)" stroke-opacity="0.3" stroke-width="1.5"/>
<defs>
<linearGradient id="paint0_linear_157_1141" x1="112.017" y1="451.537" x2="571.102" y2="237.462" gradientUnits="userSpaceOnUse">
<stop stop-color="#3E1A79"/>
<stop offset="1" stop-color="#791A6A"/>
</linearGradient>
<linearGradient id="paint1_linear_157_1141" x1="101.567" y1="426.719" x2="574.028" y2="254.758" gradientUnits="userSpaceOnUse">
<stop stop-color="#3E1A79"/>
<stop offset="1" stop-color="#791A6A"/>
</linearGradient>
<linearGradient id="paint2_linear_157_1141" x1="93.0289" y1="401.556" x2="575.047" y2="272.399" gradientUnits="userSpaceOnUse">
<stop stop-color="#3E1A79"/>
<stop offset="1" stop-color="#791A6A"/>
</linearGradient>
<linearGradient id="paint3_linear_157_1141" x1="86.4082" y1="376.217" x2="574.145" y2="290.216" gradientUnits="userSpaceOnUse">
<stop stop-color="#3E1A79"/>
<stop offset="1" stop-color="#791A6A"/>
</linearGradient>
<linearGradient id="paint4_linear_157_1141" x1="81.7006" y1="350.874" x2="571.33" y2="308.037" gradientUnits="userSpaceOnUse">
<stop stop-color="#3E1A79"/>
<stop offset="1" stop-color="#791A6A"/>
</linearGradient>
<linearGradient id="paint5_linear_157_1141" x1="78.8857" y1="325.695" x2="566.625" y2="325.695" gradientUnits="userSpaceOnUse">
<stop stop-color="#3E1A79"/>
<stop offset="1" stop-color="#791A6A"/>
</linearGradient>
<linearGradient id="paint6_linear_157_1141" x1="77.9257" y1="300.843" x2="560.062" y2="343.025" gradientUnits="userSpaceOnUse">
<stop stop-color="#3E1A79"/>
<stop offset="1" stop-color="#791A6A"/>
</linearGradient>
<linearGradient id="paint7_linear_157_1141" x1="78.772" y1="276.479" x2="551.694" y2="359.868" gradientUnits="userSpaceOnUse">
<stop stop-color="#3E1A79"/>
<stop offset="1" stop-color="#791A6A"/>
</linearGradient>
<linearGradient id="paint8_linear_157_1141" x1="81.3615" y1="252.754" x2="541.583" y2="376.07" gradientUnits="userSpaceOnUse">
<stop stop-color="#3E1A79"/>
<stop offset="1" stop-color="#791A6A"/>
</linearGradient>
<linearGradient id="paint9_linear_157_1141" x1="85.6175" y1="229.816" x2="529.806" y2="391.487" gradientUnits="userSpaceOnUse">
<stop stop-color="#3E1A79"/>
<stop offset="1" stop-color="#791A6A"/>
</linearGradient>
<linearGradient id="paint10_linear_157_1141" x1="91.4515" y1="207.8" x2="516.451" y2="405.981" gradientUnits="userSpaceOnUse">
<stop stop-color="#3E1A79"/>
<stop offset="1" stop-color="#791A6A"/>
</linearGradient>
<linearGradient id="paint11_linear_157_1141" x1="98.7638" y1="186.836" x2="501.616" y2="419.423" gradientUnits="userSpaceOnUse">
<stop stop-color="#3E1A79"/>
<stop offset="1" stop-color="#791A6A"/>
</linearGradient>
<linearGradient id="paint12_linear_157_1141" x1="107.445" y1="167.041" x2="485.413" y2="431.697" gradientUnits="userSpaceOnUse">
<stop stop-color="#3E1A79"/>
<stop offset="1" stop-color="#791A6A"/>
</linearGradient>
<linearGradient id="paint13_linear_157_1141" x1="117.377" y1="148.521" x2="467.959" y2="442.695" gradientUnits="userSpaceOnUse">
<stop stop-color="#3E1A79"/>
<stop offset="1" stop-color="#791A6A"/>
</linearGradient>
<linearGradient id="paint14_linear_157_1141" x1="128.432" y1="131.372" x2="449.382" y2="452.322" gradientUnits="userSpaceOnUse">
<stop stop-color="#3E1A79"/>
<stop offset="1" stop-color="#791A6A"/>
</linearGradient>
<linearGradient id="paint15_linear_157_1141" x1="140.477" y1="115.676" x2="429.816" y2="460.496" gradientUnits="userSpaceOnUse">
<stop stop-color="#3E1A79"/>
<stop offset="1" stop-color="#791A6A"/>
</linearGradient>
<linearGradient id="paint16_linear_157_1141" x1="153.372" y1="101.503" x2="409.399" y2="467.148" gradientUnits="userSpaceOnUse">
<stop stop-color="#3E1A79"/>
<stop offset="1" stop-color="#791A6A"/>
</linearGradient>
<linearGradient id="paint17_linear_157_1141" x1="166.973" y1="88.9093" x2="388.277" y2="472.22" gradientUnits="userSpaceOnUse">
<stop stop-color="#3E1A79"/>
<stop offset="1" stop-color="#791A6A"/>
</linearGradient>
<linearGradient id="paint18_linear_157_1141" x1="181.131" y1="77.9379" x2="366.596" y2="475.669" gradientUnits="userSpaceOnUse">
<stop stop-color="#3E1A79"/>
<stop offset="1" stop-color="#791A6A"/>
</linearGradient>
<linearGradient id="paint19_linear_157_1141" x1="195.699" y1="68.6189" x2="344.507" y2="477.467" gradientUnits="userSpaceOnUse">
<stop stop-color="#3E1A79"/>
<stop offset="1" stop-color="#791A6A"/>
</linearGradient>
<linearGradient id="paint20_linear_157_1141" x1="210.524" y1="60.9674" x2="322.16" y2="477.596" gradientUnits="userSpaceOnUse">
<stop stop-color="#3E1A79"/>
<stop offset="1" stop-color="#791A6A"/>
</linearGradient>
<linearGradient id="paint21_linear_157_1141" x1="225.458" y1="54.9862" x2="299.704" y2="476.056" gradientUnits="userSpaceOnUse">
<stop stop-color="#3E1A79"/>
<stop offset="1" stop-color="#791A6A"/>
</linearGradient>
<linearGradient id="paint22_linear_157_1141" x1="240.352" y1="50.6642" x2="277.289" y2="472.856" gradientUnits="userSpaceOnUse">
<stop stop-color="#3E1A79"/>
<stop offset="1" stop-color="#791A6A"/>
</linearGradient>
<linearGradient id="paint23_linear_157_1141" x1="255.059" y1="47.9775" x2="255.059" y2="468.021" gradientUnits="userSpaceOnUse">
<stop stop-color="#3E1A79"/>
<stop offset="1" stop-color="#791A6A"/>
</linearGradient>
</defs>
</svg>
