<svg width="501" height="531" viewBox="0 0 501 531" fill="none" xmlns="http://www.w3.org/2000/svg">
<path opacity="0.0416667" d="M114.66 326.061C77.2987 263.575 62.5965 181.22 98.1683 120.611C114.838 92.2098 142.819 81.1382 174.604 74.6791C186.345 72.2932 198.568 70.543 210.914 68.7754C215.285 68.1496 219.671 67.5215 224.057 66.8623C240.809 64.3443 257.526 61.3741 273.198 56.3339C293.485 49.8091 314.002 38.7833 334.377 26.8435C340.485 23.2643 346.578 19.6043 352.65 15.9572C366.86 7.42202 380.953 -1.04313 394.847 -8.24008C414.673 -18.5094 433.993 -26.1403 452.503 -27.6698C470.976 -29.1964 488.666 -24.6485 505.288 -10.4962C538.511 17.7915 537.829 58.3149 526.886 102.853C522.284 121.582 515.884 140.956 509.473 160.364C508.266 164.019 507.058 167.675 505.862 171.328C498.321 194.36 491.241 217.27 487.669 238.935C485.605 251.457 484.158 264.288 482.718 277.054C482.486 279.109 482.255 281.162 482.021 283.212C480.332 298.008 478.521 312.641 475.631 326.585C469.851 354.472 459.776 379.507 437.855 397.462C393.363 433.905 331.253 426.845 273.875 414.178C212.163 400.554 147.87 381.605 114.66 326.061Z" stroke="url(#paint0_linear_107_399)" stroke-opacity="0.3" stroke-width="1.5"/>
<path opacity="0.0833333" d="M104.14 301.462C72.6446 236.557 65.278 153.982 105.715 97.1948C124.664 70.5841 153.287 62.0546 185.27 58.4058C197.085 57.0579 209.321 56.3792 221.679 55.6938C226.054 55.4511 230.445 55.2075 234.838 54.9332C251.617 53.885 268.401 52.3874 284.333 48.7561C304.957 44.0553 326.198 34.9297 347.38 24.8898C353.729 21.8801 360.071 18.7895 366.391 15.7097C381.181 8.50203 395.849 1.35357 410.211 -4.55984C430.703 -12.9976 450.466 -18.8733 468.896 -18.7945C487.289 -18.7159 504.38 -12.707 519.578 2.69225C549.956 33.4719 545.757 73.4213 531.063 116.458C524.884 134.555 516.872 153.135 508.846 171.747C507.334 175.252 505.822 178.759 504.321 182.264C494.862 204.358 485.869 226.372 480.453 247.458C477.322 259.645 474.775 272.19 472.241 284.671C471.833 286.68 471.425 288.688 471.016 290.691C468.059 305.156 464.995 319.448 460.925 332.968C452.785 360.007 440.647 383.86 417.415 399.705C370.263 431.867 309.48 419.565 253.861 402.132C194.04 383.382 132.135 359.152 104.14 301.462Z" stroke="url(#paint1_linear_107_399)" stroke-opacity="0.3" stroke-width="1.5"/>
<path opacity="0.125" d="M95.5119 276.507C70.0174 209.728 69.9121 127.578 114.822 74.9951C135.866 50.355 164.902 44.3945 196.837 43.5412C208.634 43.2261 220.789 43.6077 233.065 43.9931C237.412 44.1296 241.774 44.2665 246.141 44.3732C262.82 44.7807 279.543 44.7448 295.609 42.5291C316.407 39.6608 338.199 32.4774 360.012 24.3863C366.551 21.9607 373.089 19.4546 379.605 16.9573C394.852 11.113 409.974 5.31685 424.686 0.713514C445.678 -5.85504 465.725 -9.95683 483.937 -8.29516C502.113 -6.63674 518.484 0.763614 532.169 17.2706C559.522 50.2637 551.901 89.3373 533.635 130.56C525.954 147.895 516.418 165.549 506.865 183.233C505.066 186.564 503.266 189.896 501.478 193.227C490.207 214.225 479.403 235.185 472.216 255.536C468.062 267.298 464.453 279.464 460.863 291.567C460.285 293.516 459.708 295.463 459.129 297.406C454.949 311.432 450.677 325.277 445.479 338.274C435.081 364.267 421.01 386.77 396.667 400.416C347.26 428.113 288.241 410.745 234.772 388.755C177.262 365.103 118.172 335.863 95.5119 276.507Z" stroke="url(#paint2_linear_107_399)" stroke-opacity="0.3" stroke-width="1.5"/>
<path opacity="0.166667" d="M88.7862 251.369C69.3781 183.261 76.4036 102.169 125.363 54.1336C148.304 31.6251 177.525 28.2405 209.17 30.1467C220.86 30.8508 232.843 32.2736 244.947 33.7106C249.232 34.2194 253.532 34.73 257.84 35.2111C274.294 37.0487 290.83 38.4525 306.906 37.6482C327.716 36.6069 349.884 31.3919 372.15 25.2827C378.825 23.4514 385.507 21.5404 392.164 19.6362C407.746 15.1798 423.198 10.76 438.142 7.48234C459.464 2.80543 479.639 0.482193 497.498 3.6896C515.322 6.89059 530.863 15.6034 542.959 33.0727C567.134 67.9888 556.21 105.897 534.575 145.014C525.477 161.463 514.517 178.068 503.539 194.701C501.471 197.834 499.403 200.968 497.346 204.101C484.381 223.858 471.881 243.617 463.009 263.087C457.881 274.339 453.258 286.037 448.658 297.675C447.918 299.549 447.178 301.421 446.437 303.289C441.087 316.773 435.663 330.072 429.396 342.453C416.862 367.213 400.998 388.213 375.75 399.587C324.504 422.672 267.667 400.451 216.715 374.144C161.912 345.848 106.036 311.902 88.7862 251.369Z" stroke="url(#paint3_linear_107_399)" stroke-opacity="0.3" stroke-width="1.5"/>
<path opacity="0.208333" d="M83.9578 226.214C70.6724 157.326 84.6437 77.904 137.204 34.7187C161.833 14.4833 191.012 13.6614 222.131 18.2702C233.627 19.9726 245.35 22.4097 257.191 24.8711C261.383 25.7426 265.591 26.6172 269.808 27.4633C285.915 30.6951 302.141 33.5059 318.103 34.0977C338.767 34.8637 361.135 31.6276 383.677 27.5175C390.435 26.2854 397.206 24.9753 403.953 23.6698C419.742 20.6147 435.402 17.5847 450.458 15.6379C471.943 12.8601 492.088 12.3062 509.465 17.0107C526.807 21.7058 541.415 31.6434 551.858 49.9249C572.73 86.4636 558.649 122.93 533.871 159.671C523.451 175.121 511.179 190.563 498.884 206.033C496.569 208.946 494.252 211.861 491.948 214.776C477.418 233.157 463.348 251.58 452.89 270.031C446.846 280.695 441.261 291.842 435.706 302.932C434.811 304.717 433.918 306.5 433.024 308.28C426.567 321.126 420.052 333.784 412.784 345.462C398.248 368.818 380.746 388.174 354.802 397.222C302.142 415.588 247.88 388.76 199.788 358.405C148.061 325.755 95.7655 287.439 83.9578 226.214Z" stroke="url(#paint4_linear_107_399)" stroke-opacity="0.3" stroke-width="1.5"/>
<path opacity="0.25" d="M81.006 201.211C73.8306 132.087 94.5109 54.9221 150.203 16.8463C176.299 -0.994598 205.214 0.713074 235.579 7.9476C246.795 10.62 258.173 14.0369 269.666 17.4881C273.735 18.7101 277.819 19.9364 281.915 21.1354C297.559 25.7153 313.357 29.89 329.085 31.8521C349.447 34.392 371.84 33.1297 394.48 31.02C401.267 30.3875 408.074 29.6793 414.857 28.9735C430.73 27.3218 446.472 25.6838 461.525 25.0627C483.004 24.1763 502.966 25.369 519.737 31.5114C536.474 37.6414 550.054 48.708 558.795 67.6479C576.267 105.502 559.196 140.268 531.523 174.385C519.887 188.731 506.419 202.909 492.927 217.114C490.386 219.789 487.844 222.465 485.313 225.143C469.36 242.027 453.857 258.993 441.922 276.298C435.025 286.3 428.54 296.818 422.088 307.282C421.05 308.966 420.013 310.648 418.975 312.327C411.48 324.447 403.946 336.374 395.751 347.271C379.361 369.063 360.386 386.652 333.958 393.34C280.313 406.917 228.993 375.759 184.077 341.653C135.764 304.968 87.3831 262.644 81.006 201.211Z" stroke="url(#paint5_linear_107_399)" stroke-opacity="0.3" stroke-width="1.5"/>
<path opacity="0.291667" d="M79.8971 176.522C78.7713 107.698 105.875 33.3498 164.212 0.597809C191.545 -14.7482 219.979 -10.5631 249.37 -0.798658C260.227 2.80825 271.18 7.16374 282.242 11.563C286.159 13.1207 290.09 14.6839 294.035 16.2212C309.104 22.0932 324.361 27.5788 339.74 30.8752C359.649 35.1425 381.894 35.8335 404.456 35.7098C411.22 35.6728 418.01 35.5626 424.776 35.4528C440.609 35.1959 456.312 34.9411 471.245 35.63C492.554 36.613 512.183 39.5162 528.23 47.0269C544.245 54.5226 556.712 66.6155 563.717 86.0577C577.718 124.915 557.845 157.74 527.545 189.01C514.805 202.159 500.268 214.984 485.705 227.832C482.962 230.252 480.218 232.673 477.485 235.097C460.257 250.377 443.468 265.777 430.176 281.821C422.494 291.093 415.176 300.91 407.895 310.677C406.723 312.249 405.552 313.82 404.381 315.387C395.927 326.697 387.449 337.815 378.408 347.857C360.326 367.942 340.052 383.655 313.351 387.969C259.153 396.725 211.114 361.545 169.657 324.007C125.066 283.631 80.8975 237.687 79.8971 176.522Z" stroke="url(#paint6_linear_107_399)" stroke-opacity="0.3" stroke-width="1.5"/>
<path opacity="0.333333" d="M80.5822 152.306C85.3994 84.3047 118.594 13.3003 179.074 -13.9592C207.412 -26.7313 235.155 -20.1393 263.364 -7.95907C273.784 -3.45977 284.235 1.78635 294.79 7.08524C298.528 8.96153 302.278 10.8444 306.046 12.7032C320.434 19.8023 335.042 26.5366 349.959 31.1215C369.271 37.0569 391.199 39.6659 413.511 41.4985C420.199 42.0479 426.92 42.5275 433.617 43.0053C449.29 44.1236 464.832 45.2326 479.533 47.2061C500.511 50.0221 519.662 54.587 534.875 63.3873C550.057 72.1697 561.337 85.1802 566.586 104.968C577.075 144.514 554.608 175.176 521.964 203.404C508.238 215.273 492.765 226.668 477.263 238.083C474.343 240.233 471.423 242.384 468.513 244.539C450.168 258.122 432.246 271.862 417.725 286.541C409.333 295.024 401.253 304.076 393.216 313.082C391.922 314.531 390.629 315.98 389.336 317.424C380.005 327.851 370.668 338.086 360.867 347.211C341.264 365.46 319.872 379.206 293.11 381.149C238.787 385.093 194.337 346.222 156.594 305.593C115.998 261.892 76.3014 212.737 80.5822 152.306Z" stroke="url(#paint7_linear_107_399)" stroke-opacity="0.3" stroke-width="1.5"/>
<path opacity="0.375" d="M82.9988 128.715C93.6073 62.0437 132.519 -5.12652 194.633 -26.7711C223.736 -36.9123 250.586 -28.0017 277.417 -13.5364C287.329 -8.19305 297.206 -2.11027 307.182 4.03382C310.714 6.20935 314.259 8.39255 317.823 10.5533C331.433 18.8062 345.291 26.7183 359.64 32.5366C378.216 40.0688 399.664 44.546 421.557 48.2904C428.12 49.413 434.721 50.4694 441.299 51.5221C456.692 53.9855 471.957 56.4285 486.317 59.6514C506.806 64.2502 525.34 70.4159 539.618 80.4182C553.867 90.4001 563.894 104.214 567.38 124.19C574.345 164.112 549.507 192.411 514.818 217.428C500.232 227.947 483.96 237.846 467.658 247.763C464.587 249.631 461.516 251.5 458.454 253.373C439.156 265.183 420.261 277.184 404.647 290.406C395.623 298.048 386.859 306.278 378.141 314.466C376.738 315.784 375.336 317.1 373.934 318.413C363.816 327.891 353.708 337.177 343.236 345.329C322.294 361.633 299.971 373.338 273.357 372.932C219.332 372.108 178.746 329.902 144.939 286.542C108.574 239.902 73.5717 187.962 82.9988 128.715Z" stroke="url(#paint8_linear_107_399)" stroke-opacity="0.3" stroke-width="1.5"/>
<path opacity="0.416667" d="M87.073 105.894C103.278 41.0394 147.493 -21.8455 210.727 -37.7998C240.354 -45.2747 266.12 -34.1504 291.392 -17.5465C300.727 -11.4132 309.965 -4.55342 319.295 2.3756C322.599 4.82908 325.915 7.29124 329.251 9.7329C341.991 19.0584 355.006 28.0693 368.686 35.0573C386.396 44.1036 407.206 50.3854 428.519 55.9829C434.909 57.661 441.341 59.2772 447.751 60.8876C462.75 64.656 477.624 68.3933 491.537 72.8212C511.389 79.1396 529.174 86.8336 542.423 97.9425C555.646 109.029 564.368 123.528 566.097 143.537C569.552 183.524 542.584 209.283 506.158 230.949C490.842 240.059 473.913 248.411 456.952 256.778C453.758 258.354 450.562 259.931 447.376 261.513C427.292 271.486 407.59 281.685 391.026 293.373C381.453 300.128 372.086 307.486 362.769 314.806C361.269 315.984 359.77 317.161 358.272 318.335C347.46 326.806 336.675 335.09 325.628 342.222C303.535 356.486 280.473 366.093 254.21 363.379C200.898 357.871 164.416 312.703 134.731 266.985C102.8 217.808 72.6727 163.524 87.073 105.894Z" stroke="url(#paint9_linear_107_399)" stroke-opacity="0.3" stroke-width="1.5"/>
<path opacity="0.458333" d="M92.7166 83.9787C114.284 21.405 163.355 -36.7863 227.194 -47.0213C257.102 -51.8165 281.604 -38.5989 305.15 -20.0171C313.847 -13.1532 322.386 -5.5811 331.011 2.06752C334.065 4.77586 337.13 7.49379 340.216 10.1933C352.005 20.5033 364.091 30.5269 377.009 38.6127C393.731 49.0801 413.753 57.0897 434.33 64.4678C440.5 66.6799 446.716 68.8345 452.911 70.9814C467.407 76.0053 481.782 80.9874 495.148 86.5673C514.22 94.5294 531.131 103.669 543.269 115.782C555.382 127.87 562.756 142.933 562.749 162.822C562.736 202.57 533.889 225.634 496.044 243.839C480.131 251.494 462.69 258.26 445.216 265.039C441.925 266.315 438.633 267.593 435.35 268.876C414.653 276.968 394.313 285.315 376.945 295.405C366.908 301.236 357.023 307.681 347.189 314.092C345.607 315.123 344.026 316.154 342.445 317.181C331.037 324.598 319.672 331.831 308.147 337.906C285.097 350.055 261.491 357.526 235.777 352.562C183.58 342.486 151.408 294.749 125.997 247.058C98.6642 195.758 73.5521 139.58 92.7166 83.9787Z" stroke="url(#paint10_linear_107_399)" stroke-opacity="0.3" stroke-width="1.5"/>
<path opacity="0.5" d="M99.8332 63.0981C126.491 3.24125 179.939 -49.8931 243.87 -54.4261C273.822 -56.5498 296.893 -41.3736 318.56 -20.9873C326.564 -13.4568 334.351 -5.2414 342.216 3.05711C345.001 5.9955 347.796 8.94432 350.614 11.8768C361.376 23.077 372.457 34.0209 384.526 43.1251C400.149 54.911 419.241 64.5594 438.936 73.633C444.84 76.3533 450.797 79.021 456.732 81.6792C470.621 87.8999 484.395 94.0688 497.12 100.739C515.278 110.258 531.199 120.749 542.152 133.758C553.082 146.74 559.076 162.243 557.368 181.865C553.954 221.076 523.491 241.315 484.55 255.978C468.178 262.143 450.371 267.298 432.53 272.464C429.17 273.436 425.809 274.41 422.456 275.39C401.319 281.569 380.513 288.031 362.493 296.473C352.08 301.351 341.764 306.848 331.503 312.316C329.851 313.196 328.201 314.076 326.551 314.952C314.648 321.275 302.803 327.421 290.899 332.41C267.092 342.387 243.136 347.7 218.163 340.561C167.467 326.07 139.773 276.166 118.754 226.897C96.1437 173.898 76.1468 116.283 99.8332 63.0981Z" stroke="url(#paint11_linear_107_399)" stroke-opacity="0.3" stroke-width="1.5"/>
<path opacity="0.541667" d="M108.314 43.3689C139.754 -13.3646 197.076 -61.126 260.596 -60.0195C290.354 -59.501 311.84 -42.5143 331.496 -20.508C338.757 -12.3791 345.744 -3.59348 352.802 5.2812C355.302 8.42362 357.81 11.5772 360.342 14.7168C370.013 26.7075 380.022 38.4734 391.163 48.5101C405.585 61.5033 423.616 72.6901 442.29 83.3619C447.889 86.5616 453.543 89.7138 459.178 92.8549C472.362 100.205 485.437 107.494 497.434 115.186C514.553 126.163 529.379 137.904 539.083 151.695C548.767 165.457 553.361 181.276 549.998 200.485C543.277 238.872 511.468 256.183 471.759 267.253C455.063 271.907 437.037 275.44 418.977 278.979C415.576 279.646 412.173 280.313 408.778 280.987C387.376 285.24 366.276 289.801 347.758 296.558C337.057 300.463 326.4 304.986 315.799 309.486C314.092 310.211 312.387 310.934 310.684 311.655C298.388 316.855 286.165 321.885 273.983 325.769C249.621 333.536 225.51 336.687 201.459 327.464C152.635 308.742 129.55 257.087 113.002 206.637C95.2021 152.369 80.3789 93.7768 108.314 43.3689Z" stroke="url(#paint12_linear_107_399)" stroke-opacity="0.3" stroke-width="1.5"/>
<path opacity="0.583333" d="M118.041 24.8975C153.925 -28.3388 214.595 -70.4605 277.212 -63.8209C306.546 -60.7104 326.308 -42.0728 343.836 -18.6406C350.311 -9.985 356.459 -0.705359 362.67 8.6685C364.87 11.9878 367.077 15.3189 369.309 18.6384C377.834 31.3155 386.712 43.8004 396.855 54.678C409.985 68.7595 426.833 81.3737 444.359 93.5357C449.614 97.1821 454.928 100.787 460.222 104.378C472.612 112.783 484.899 121.117 496.087 129.756C512.051 142.083 525.687 154.963 534.09 169.419C542.476 183.844 545.661 199.854 540.701 218.513C530.79 255.801 497.911 270.104 457.76 277.559C440.879 280.693 422.781 282.605 404.647 284.52C401.232 284.881 397.816 285.242 394.406 285.611C372.912 287.938 351.69 290.596 332.83 295.647C321.931 298.565 311.022 302.098 300.171 305.613C298.424 306.179 296.679 306.744 294.936 307.306C282.352 311.363 269.855 315.26 257.496 318.028C232.781 323.565 208.708 324.568 185.751 313.367C139.146 290.628 120.764 237.641 108.733 186.413C95.7915 131.306 86.1595 72.1963 118.041 24.8975Z" stroke="url(#paint13_linear_107_399)" stroke-opacity="0.3" stroke-width="1.5"/>
<path opacity="0.625" d="M128.89 7.77883C168.85 -41.6218 232.325 -77.8871 293.562 -65.8635C322.25 -60.2308 340.165 -40.1123 355.467 -15.4561C361.119 -6.3484 366.397 3.34663 371.728 13.1403C373.615 16.6082 375.51 20.0886 377.43 23.5595C384.763 36.8154 392.461 49.9126 401.545 61.534C413.304 76.5787 428.858 90.4999 445.12 104.034C449.996 108.092 454.934 112.113 459.854 116.121C471.367 125.498 482.783 134.796 493.089 144.299C507.795 157.859 520.155 171.762 527.216 186.761C534.262 201.729 536.039 217.805 529.552 235.784C516.59 271.711 482.922 282.953 442.655 286.801C425.725 288.42 407.698 288.725 389.635 289.03C386.234 289.088 382.831 289.145 379.433 289.212C358.019 289.63 336.844 290.398 317.796 293.735C306.789 295.663 295.72 298.197 284.709 300.717C282.937 301.122 281.166 301.528 279.398 301.93C266.631 304.835 253.963 307.588 241.529 309.24C216.662 312.544 192.817 311.43 171.113 298.371C127.053 271.859 113.43 217.963 105.925 166.356C97.852 110.84 93.3883 51.6678 128.89 7.77883Z" stroke="url(#paint14_linear_107_399)" stroke-opacity="0.3" stroke-width="1.5"/>
<path opacity="0.666667" d="M140.728 -7.90446C184.372 -53.1677 250.098 -83.4113 309.498 -66.1934C337.324 -58.1275 353.286 -36.7068 366.283 -11.0346C371.084 -1.55167 375.464 8.47818 379.89 18.6102C381.457 22.1979 383.029 25.7985 384.628 29.3922C390.734 43.1163 397.213 56.716 405.186 68.9804C415.507 84.8573 429.669 99.9568 444.562 114.736C449.028 119.167 453.557 123.568 458.07 127.953C468.631 138.214 479.104 148.389 488.463 158.669C501.818 173.337 512.829 188.138 518.517 203.559C524.192 218.947 524.575 234.967 516.642 252.142C500.789 286.463 466.612 294.616 426.549 294.896C409.705 295.013 391.89 293.739 374.041 292.462C370.679 292.221 367.316 291.981 363.957 291.749C342.791 290.291 321.829 289.198 302.748 290.827C291.722 291.767 280.582 293.301 269.503 294.826C267.719 295.071 265.937 295.317 264.157 295.559C251.311 297.31 238.576 298.92 226.165 299.464C201.346 300.552 177.912 297.368 157.611 282.584C116.395 252.568 107.549 198.186 104.544 146.594C101.313 91.0951 101.955 32.3071 140.728 -7.90446Z" stroke="url(#paint15_linear_107_399)" stroke-opacity="0.3" stroke-width="1.5"/>
<path opacity="0.708333" d="M153.418 -22.0824C200.332 -62.9457 267.748 -87.0538 324.875 -64.8697C351.636 -54.4775 365.555 -31.9406 376.187 -5.46488C380.114 4.31495 383.581 14.5978 387.082 24.9856C388.322 28.6638 389.566 32.3552 390.837 36.0421C395.69 50.1225 400.922 64.1128 407.741 76.9156C416.57 93.4896 429.253 109.632 442.685 125.521C446.712 130.285 450.805 135.025 454.883 139.748C464.427 150.799 473.89 161.757 482.246 172.722C494.17 188.368 503.769 203.939 508.065 219.656C512.352 235.34 511.363 251.184 502.073 267.443C483.51 299.93 449.104 304.992 409.557 301.767C392.93 300.411 375.465 297.597 357.965 294.777C354.669 294.245 351.371 293.714 348.078 293.192C327.321 289.903 306.735 286.993 287.771 286.933C276.813 286.898 265.692 287.438 254.631 287.976C252.851 288.062 251.073 288.149 249.297 288.232C236.474 288.838 223.774 289.315 211.485 288.767C186.908 287.672 164.064 282.483 145.298 266.117C107.201 232.889 103.111 178.439 104.548 127.252C106.093 72.187 111.741 14.2187 153.418 -22.0824Z" stroke="url(#paint16_linear_107_399)" stroke-opacity="0.3" stroke-width="1.5"/>
<path opacity="0.75" d="M166.816 -34.6983C216.569 -70.9393 285.112 -88.8498 339.556 -61.9634C365.06 -49.3688 376.864 -25.9073 385.09 1.15689C388.129 11.154 390.67 21.6073 393.237 32.1674C394.146 35.9068 395.058 39.6597 395.997 43.4104C399.582 57.734 403.548 72.002 409.181 85.2364C416.474 102.369 427.606 119.412 439.497 136.271C443.063 141.326 446.695 146.362 450.314 151.381C458.783 163.123 467.181 174.767 474.486 186.32C484.911 202.806 493.049 219.015 495.944 234.905C498.834 250.761 496.507 266.314 485.958 281.55C464.882 311.994 430.523 313.988 391.795 307.351C375.514 304.561 358.529 300.257 341.51 295.945C338.305 295.133 335.098 294.321 331.895 293.518C311.704 288.459 291.649 283.788 272.951 282.073C262.146 281.082 251.132 280.644 240.178 280.208C238.415 280.138 236.653 280.068 234.895 279.996C222.197 279.474 209.631 278.836 197.558 277.222C173.414 273.995 151.328 266.878 134.219 249.084C99.4821 212.958 100.095 158.852 105.879 108.447C112.102 54.2228 122.619 -2.50487 166.816 -34.6983Z" stroke="url(#paint17_linear_107_399)" stroke-opacity="0.3" stroke-width="1.5"/>
<path opacity="0.791667" d="M180.776 -45.7085C232.924 -77.1461 302.031 -88.8479 353.412 -57.5566C377.48 -42.8989 387.115 -18.7083 392.915 8.72832C395.057 18.8627 396.67 29.404 398.299 40.0532C398.876 43.8246 399.454 47.6094 400.06 51.3945C402.371 65.8484 405.063 80.2809 409.488 93.8384C415.215 111.39 424.735 129.187 435.02 146.868C438.104 152.169 441.255 157.458 444.395 162.728C451.742 175.06 459.028 187.288 465.244 199.332C483.002 233.735 491.78 266.155 468.424 294.342C445.047 322.555 411.006 321.527 373.388 311.597C357.573 307.422 341.195 301.691 324.783 295.95C321.692 294.868 318.6 293.786 315.51 292.715C296.035 285.958 276.659 279.598 258.369 276.273C247.801 274.352 236.979 272.959 226.216 271.573C224.483 271.35 222.752 271.127 221.024 270.902C208.549 269.28 196.214 267.553 184.449 264.907C160.92 259.615 139.753 250.663 124.405 231.604C93.242 192.91 98.4663 139.549 108.474 90.2916C119.24 37.3002 134.454 -17.7832 180.776 -45.7085Z" stroke="url(#paint18_linear_107_399)" stroke-opacity="0.3" stroke-width="1.5"/>
<path opacity="0.833333" d="M195.15 -55.0828C249.239 -81.5779 318.355 -87.1103 366.324 -51.7415C388.793 -35.1741 396.222 -10.4525 399.592 17.1413C400.838 27.3341 401.526 37.8824 402.221 48.5388C402.467 52.3123 402.714 56.0994 402.987 59.889C404.03 74.3611 405.45 88.8455 408.652 102.617C412.797 120.445 420.659 138.847 429.285 157.2C431.872 162.703 434.526 168.199 437.17 173.676C443.358 186.492 449.494 199.199 454.592 211.631C469.155 247.146 475.033 279.916 449.605 305.708C424.154 331.522 390.692 327.544 354.461 314.462C339.23 308.963 323.576 301.879 307.89 294.78C304.936 293.443 301.98 292.105 299.025 290.778C280.406 282.41 261.851 274.442 244.106 269.566C233.852 266.748 223.304 264.43 212.813 262.125C211.124 261.753 209.437 261.383 207.753 261.01C195.595 258.321 183.585 255.542 172.214 251.905C149.475 244.63 129.377 233.948 115.878 213.795C88.4707 172.879 98.1821 120.651 112.258 72.89C127.402 21.5073 147.107 -31.5489 195.15 -55.0828Z" stroke="url(#paint19_linear_107_399)" stroke-opacity="0.3" stroke-width="1.5"/>
<path opacity="0.875" d="M209.79 -62.805C265.359 -84.2608 333.94 -83.712 378.18 -44.6203C398.902 -26.3095 404.106 -1.25562 405.065 26.2827C405.419 36.4551 405.194 46.9301 404.967 57.5126C404.886 61.2597 404.806 65.0204 404.75 68.7859C404.538 83.166 404.697 97.5914 406.673 111.468C409.231 129.432 415.404 148.285 422.333 167.157C424.411 172.816 426.556 178.474 428.693 184.112C433.693 197.304 438.652 210.384 442.611 223.102C453.921 259.436 456.906 292.3 429.643 315.551C402.356 338.822 369.726 331.987 335.142 315.919C320.604 309.164 305.784 300.808 290.934 292.435C288.137 290.858 285.338 289.28 282.541 287.712C264.908 277.831 247.305 268.349 230.234 261.991C220.371 258.317 210.174 255.111 200.032 251.922C198.4 251.409 196.77 250.896 195.142 250.382C183.391 246.669 171.794 242.881 160.9 238.301C139.115 229.141 120.226 216.846 108.65 195.776C85.1457 152.994 99.1873 102.272 117.149 56.3385C136.472 6.92071 160.433 -43.7482 209.79 -62.805Z" stroke="url(#paint20_linear_107_399)" stroke-opacity="0.3" stroke-width="1.5"/>
<path opacity="0.916667" d="M224.545 -68.8718C281.133 -85.2334 348.651 -78.7391 388.882 -36.3028C407.726 -16.4258 410.704 8.76231 409.286 36.0367C408.763 46.1114 407.642 56.4345 406.51 66.8638C406.109 70.5569 405.707 74.2633 405.33 77.9767C403.887 92.1573 402.806 106.415 403.563 120.289C404.542 138.249 409.006 157.401 414.214 176.636C415.776 182.404 417.404 188.177 419.026 193.93C422.821 207.389 426.584 220.735 429.393 233.637C437.419 270.494 437.54 303.2 408.688 323.789C379.813 344.395 348.256 334.816 315.561 315.949C301.816 308.018 287.933 298.481 274.02 288.924C271.399 287.124 268.777 285.323 266.155 283.532C249.631 272.246 233.1 261.355 216.827 253.595C207.423 249.111 197.652 245.06 187.934 241.031C186.37 240.383 184.807 239.735 183.247 239.086C171.988 234.4 160.887 229.653 150.548 224.185C129.871 213.251 112.317 199.472 102.72 177.664C83.2334 133.384 101.418 84.5216 123.055 40.7257C146.334 -6.39311 174.287 -54.3402 224.545 -68.8718Z" stroke="url(#paint21_linear_107_399)" stroke-opacity="0.3" stroke-width="1.5"/>
<path opacity="0.958333" d="M239.27 -73.2934C296.416 -84.548 362.363 -72.2889 398.342 -26.9066C415.194 -5.65022 415.962 19.4765 412.221 46.284C410.839 56.1862 408.848 66.2819 406.837 76.4816C406.124 80.0936 405.409 83.7185 404.718 87.3526C402.078 101.23 399.787 115.214 399.34 128.979C398.76 146.798 401.512 166.096 404.988 185.54C406.031 191.37 407.138 197.212 408.241 203.032C410.822 216.65 413.381 230.154 415.04 243.136C419.778 280.225 417.083 312.524 386.898 330.353C356.688 348.195 326.431 336.008 295.847 314.547C282.99 305.526 270.134 294.907 257.25 284.266C254.824 282.262 252.396 280.257 249.967 278.261C234.66 265.686 219.312 253.501 203.948 244.429C195.071 239.187 185.794 234.341 176.567 229.521C175.082 228.745 173.599 227.97 172.118 227.194C161.43 221.593 150.904 215.945 141.189 209.65C121.762 197.063 105.656 181.94 98.078 159.577C82.6905 114.17 104.803 67.5 129.881 26.13C156.863 -18.3797 188.519 -63.2982 239.27 -73.2934Z" stroke="url(#paint22_linear_107_399)" stroke-opacity="0.3" stroke-width="1.5"/>
<path d="M253.819 -76.0928C311.069 -82.2683 374.959 -64.4684 406.482 -16.5552C421.246 5.88608 419.838 30.7597 413.843 56.9047C411.629 66.5621 408.798 76.358 405.938 86.2548C404.926 89.7596 403.909 93.2771 402.915 96.8055C399.119 110.279 395.658 123.889 394.031 137.442C391.925 154.986 392.972 174.278 394.72 193.776C395.245 199.623 395.832 205.487 396.417 211.329C397.786 224.998 399.143 238.551 399.657 251.512C401.128 288.542 395.69 320.196 364.429 335.189C333.145 350.193 304.4 335.551 276.127 311.719C264.242 301.702 252.495 290.107 240.724 278.488C238.506 276.299 236.288 274.11 234.068 271.93C220.076 258.191 206.009 244.834 191.659 234.549C183.367 228.607 174.647 223.02 165.976 217.464C164.58 216.57 163.185 215.677 161.794 214.783C151.75 208.329 141.87 201.843 132.845 194.789C114.797 180.684 100.239 164.362 94.7023 141.628C83.4605 95.4685 109.259 51.301 137.523 12.6207C167.932 -28.9962 202.978 -70.6085 253.819 -76.0928Z" stroke="url(#paint23_linear_107_399)" stroke-opacity="0.3" stroke-width="1.5"/>
<defs>
<linearGradient id="paint0_linear_107_399" x1="112.017" y1="325.537" x2="571.101" y2="111.462" gradientUnits="userSpaceOnUse">
<stop stop-color="#3E1A79"/>
<stop offset="1" stop-color="#791A6A"/>
</linearGradient>
<linearGradient id="paint1_linear_107_399" x1="101.568" y1="300.719" x2="574.029" y2="128.758" gradientUnits="userSpaceOnUse">
<stop stop-color="#3E1A79"/>
<stop offset="1" stop-color="#791A6A"/>
</linearGradient>
<linearGradient id="paint2_linear_107_399" x1="93.0284" y1="275.556" x2="575.046" y2="146.399" gradientUnits="userSpaceOnUse">
<stop stop-color="#3E1A79"/>
<stop offset="1" stop-color="#791A6A"/>
</linearGradient>
<linearGradient id="paint3_linear_107_399" x1="86.4082" y1="250.217" x2="574.145" y2="164.216" gradientUnits="userSpaceOnUse">
<stop stop-color="#3E1A79"/>
<stop offset="1" stop-color="#791A6A"/>
</linearGradient>
<linearGradient id="paint4_linear_107_399" x1="81.7011" y1="224.874" x2="571.331" y2="182.037" gradientUnits="userSpaceOnUse">
<stop stop-color="#3E1A79"/>
<stop offset="1" stop-color="#791A6A"/>
</linearGradient>
<linearGradient id="paint5_linear_107_399" x1="78.8853" y1="199.695" x2="566.624" y2="199.695" gradientUnits="userSpaceOnUse">
<stop stop-color="#3E1A79"/>
<stop offset="1" stop-color="#791A6A"/>
</linearGradient>
<linearGradient id="paint6_linear_107_399" x1="77.9257" y1="174.843" x2="560.062" y2="217.025" gradientUnits="userSpaceOnUse">
<stop stop-color="#3E1A79"/>
<stop offset="1" stop-color="#791A6A"/>
</linearGradient>
<linearGradient id="paint7_linear_107_399" x1="78.7725" y1="150.479" x2="551.694" y2="233.868" gradientUnits="userSpaceOnUse">
<stop stop-color="#3E1A79"/>
<stop offset="1" stop-color="#791A6A"/>
</linearGradient>
<linearGradient id="paint8_linear_107_399" x1="81.3615" y1="126.754" x2="541.583" y2="250.07" gradientUnits="userSpaceOnUse">
<stop stop-color="#3E1A79"/>
<stop offset="1" stop-color="#791A6A"/>
</linearGradient>
<linearGradient id="paint9_linear_107_399" x1="85.6175" y1="103.816" x2="529.806" y2="265.487" gradientUnits="userSpaceOnUse">
<stop stop-color="#3E1A79"/>
<stop offset="1" stop-color="#791A6A"/>
</linearGradient>
<linearGradient id="paint10_linear_107_399" x1="91.451" y1="81.8002" x2="516.45" y2="279.981" gradientUnits="userSpaceOnUse">
<stop stop-color="#3E1A79"/>
<stop offset="1" stop-color="#791A6A"/>
</linearGradient>
<linearGradient id="paint11_linear_107_399" x1="98.7638" y1="60.8362" x2="501.616" y2="293.423" gradientUnits="userSpaceOnUse">
<stop stop-color="#3E1A79"/>
<stop offset="1" stop-color="#791A6A"/>
</linearGradient>
<linearGradient id="paint12_linear_107_399" x1="107.445" y1="41.041" x2="485.413" y2="305.697" gradientUnits="userSpaceOnUse">
<stop stop-color="#3E1A79"/>
<stop offset="1" stop-color="#791A6A"/>
</linearGradient>
<linearGradient id="paint13_linear_107_399" x1="117.377" y1="22.5214" x2="467.959" y2="316.695" gradientUnits="userSpaceOnUse">
<stop stop-color="#3E1A79"/>
<stop offset="1" stop-color="#791A6A"/>
</linearGradient>
<linearGradient id="paint14_linear_107_399" x1="128.432" y1="5.3722" x2="449.382" y2="326.322" gradientUnits="userSpaceOnUse">
<stop stop-color="#3E1A79"/>
<stop offset="1" stop-color="#791A6A"/>
</linearGradient>
<linearGradient id="paint15_linear_107_399" x1="140.477" y1="-10.3238" x2="429.815" y2="334.496" gradientUnits="userSpaceOnUse">
<stop stop-color="#3E1A79"/>
<stop offset="1" stop-color="#791A6A"/>
</linearGradient>
<linearGradient id="paint16_linear_107_399" x1="153.372" y1="-24.4969" x2="409.399" y2="341.148" gradientUnits="userSpaceOnUse">
<stop stop-color="#3E1A79"/>
<stop offset="1" stop-color="#791A6A"/>
</linearGradient>
<linearGradient id="paint17_linear_107_399" x1="166.973" y1="-37.0908" x2="388.277" y2="346.22" gradientUnits="userSpaceOnUse">
<stop stop-color="#3E1A79"/>
<stop offset="1" stop-color="#791A6A"/>
</linearGradient>
<linearGradient id="paint18_linear_107_399" x1="181.131" y1="-48.062" x2="366.596" y2="349.669" gradientUnits="userSpaceOnUse">
<stop stop-color="#3E1A79"/>
<stop offset="1" stop-color="#791A6A"/>
</linearGradient>
<linearGradient id="paint19_linear_107_399" x1="195.699" y1="-57.3811" x2="344.507" y2="351.467" gradientUnits="userSpaceOnUse">
<stop stop-color="#3E1A79"/>
<stop offset="1" stop-color="#791A6A"/>
</linearGradient>
<linearGradient id="paint20_linear_107_399" x1="210.524" y1="-65.0326" x2="322.16" y2="351.596" gradientUnits="userSpaceOnUse">
<stop stop-color="#3E1A79"/>
<stop offset="1" stop-color="#791A6A"/>
</linearGradient>
<linearGradient id="paint21_linear_107_399" x1="225.458" y1="-71.0138" x2="299.704" y2="350.056" gradientUnits="userSpaceOnUse">
<stop stop-color="#3E1A79"/>
<stop offset="1" stop-color="#791A6A"/>
</linearGradient>
<linearGradient id="paint22_linear_107_399" x1="240.352" y1="-75.3358" x2="277.289" y2="346.856" gradientUnits="userSpaceOnUse">
<stop stop-color="#3E1A79"/>
<stop offset="1" stop-color="#791A6A"/>
</linearGradient>
<linearGradient id="paint23_linear_107_399" x1="255.059" y1="-78.0225" x2="255.059" y2="342.021" gradientUnits="userSpaceOnUse">
<stop stop-color="#3E1A79"/>
<stop offset="1" stop-color="#791A6A"/>
</linearGradient>
</defs>
</svg>
