<svg width="40" height="40" viewBox="0 0 40 40" fill="none" xmlns="http://www.w3.org/2000/svg">
<g clip-path="url(#clip0_43_503)">
<path d="M28.4375 2.5C26.8555 2.50184 25.2907 2.82777 23.8396 3.45767C22.3884 4.08758 21.0817 5.00812 20 6.1625C18.4148 4.47069 16.3577 3.29449 14.0956 2.78658C11.8335 2.27867 9.47097 2.46251 7.31469 3.31424C5.15841 4.16597 3.30797 5.64625 2.00359 7.56291C0.699212 9.47958 0.00114144 11.7441 0 14.0625C0 25.575 18.5688 36.875 19.375 37.3187C19.5694 37.4356 19.7919 37.4973 20.0187 37.4973C20.2456 37.4973 20.4681 37.4356 20.6625 37.3187C21.4313 36.875 40 25.575 40 14.0625C39.9967 10.9969 38.7774 8.0579 36.6098 5.89023C34.4421 3.72256 31.503 2.50331 28.4375 2.5ZM20 34.775C16.7687 32.7125 2.5 23.075 2.5 14.0625C2.5016 12.1375 3.11616 10.2629 4.25459 8.71062C5.39303 7.15829 6.9962 6.00881 8.83177 5.42875C10.6673 4.8487 12.6399 4.86821 14.4636 5.48447C16.2874 6.10072 17.8675 7.2817 18.975 8.85625C19.0904 9.02003 19.2434 9.15368 19.4213 9.24593C19.5991 9.33818 19.7965 9.38634 19.9969 9.38634C20.1972 9.38634 20.3946 9.33818 20.5725 9.24593C20.7503 9.15368 20.9034 9.02003 21.0188 8.85625C22.1253 7.27899 23.7058 6.09546 25.5307 5.47747C27.3557 4.85948 29.33 4.8392 31.1673 5.41956C33.0045 5.99992 34.609 7.15073 35.7477 8.70492C36.8865 10.2591 37.5003 12.1358 37.5 14.0625C37.5 23.0687 23.2313 32.7062 20 34.775Z" fill="white"/>
</g>
<defs>
<clipPath id="clip0_43_503">
<rect width="40" height="40" fill="white"/>
</clipPath>
</defs>
</svg>
