<svg width="40" height="40" viewBox="0 0 40 40" fill="none" xmlns="http://www.w3.org/2000/svg">
<g clip-path="url(#clip0_43_516)">
<path d="M3.58167 30.2817C3.14167 30.2817 2.715 30.05 2.48667 29.6383C0.861667 26.705 0 23.3717 0 20C0 8.97167 8.97167 0 20 0C23.215 0 26.4033 0.783333 29.2217 2.26333C29.8333 2.585 30.0683 3.34 29.7467 3.95167C29.4283 4.56333 28.6733 4.8 28.0583 4.47667C25.5967 3.18333 22.8117 2.5 20 2.5C10.35 2.5 2.5 10.35 2.5 20C2.5 22.9483 3.25167 25.8617 4.675 28.4267C5.00833 29.03 4.79 29.7917 4.18833 30.1267C3.995 30.2317 3.78667 30.2817 3.58167 30.2817Z" fill="white"/>
<path d="M20 40C16.295 40 12.68 38.9767 9.54667 37.0417C8.95833 36.68 8.77667 35.9083 9.13833 35.3217C9.50167 34.7367 10.2733 34.5516 10.8583 34.915C13.5983 36.605 16.76 37.5 20 37.5C29.65 37.5 37.5 29.65 37.5 20C37.5 16.755 36.6067 13.6 34.915 10.8767C34.5517 10.29 34.7333 9.51998 35.3183 9.15498C35.905 8.78832 36.675 8.97165 37.0383 9.55832C38.9767 12.6767 40 16.2883 40 20C40 31.0283 31.0283 40 20 40Z" fill="white"/>
<path d="M15.4166 18.75C14.7266 18.75 14.1666 18.19 14.1666 17.5C14.1666 16.5817 13.42 15.8334 12.5 15.8334C11.58 15.8334 10.8333 16.5817 10.8333 17.5C10.8333 18.19 10.2733 18.75 9.58331 18.75C8.89331 18.75 8.33331 18.19 8.33331 17.5C8.33331 15.2034 10.2016 13.3334 12.5 13.3334C14.7983 13.3334 16.6666 15.2034 16.6666 17.5C16.6666 18.19 16.1066 18.75 15.4166 18.75Z" fill="white"/>
<path d="M30.4166 18.75C29.7266 18.75 29.1666 18.19 29.1666 17.5C29.1666 16.5817 28.42 15.8334 27.5 15.8334C26.58 15.8334 25.8333 16.5817 25.8333 17.5C25.8333 18.19 25.2733 18.75 24.5833 18.75C23.8933 18.75 23.3333 18.19 23.3333 17.5C23.3333 15.2034 25.2016 13.3334 27.5 13.3334C29.7983 13.3334 31.6666 15.2034 31.6666 17.5C31.6666 18.19 31.1066 18.75 30.4166 18.75Z" fill="white"/>
<path d="M20 30C16.36 30 12.94 28.5834 10.3667 26.0084C9.87834 25.52 9.87834 24.7284 10.3667 24.24C10.855 23.7517 11.6467 23.7517 12.135 24.24C14.235 26.3434 17.0283 27.5 20 27.5C22.9717 27.5 25.765 26.3434 27.8667 24.2417C28.355 23.7534 29.1467 23.7534 29.635 24.2417C30.1233 24.73 30.1233 25.5217 29.635 26.01C27.06 28.5834 23.64 30 20 30Z" fill="white"/>
<path d="M33.3334 13.3933C33.0834 13.3933 32.8334 13.3183 32.6167 13.1683C31.625 12.4733 26.6667 8.84494 26.6667 5.49994C26.6667 3.35328 28.495 1.60828 30.7417 1.60828C31.7067 1.60828 32.6167 1.93328 33.3334 2.49328C34.05 1.93328 34.96 1.60828 35.925 1.60828C38.1717 1.60661 40 3.35328 40 5.49994C40 8.84494 35.0417 12.4749 34.05 13.1683C33.8334 13.3183 33.5834 13.3933 33.3334 13.3933ZM30.7417 4.10661C29.8734 4.10661 29.1667 4.73161 29.1667 5.49828C29.1667 6.83161 31.445 9.12661 33.3334 10.5899C35.255 9.10661 37.5 6.84661 37.5 5.49828C37.5 4.73161 36.7934 4.10661 35.925 4.10661C35.2817 4.10661 34.71 4.44494 34.4684 4.96828C34.0584 5.85161 32.61 5.85161 32.2 4.96828C31.9567 4.44494 31.385 4.10661 30.7417 4.10661Z" fill="white"/>
<path d="M6.66667 40.06C6.41667 40.06 6.16667 39.985 5.95 39.835C4.95833 39.14 0 35.5117 0 32.1667C0 30.02 1.82833 28.275 4.075 28.275C5.04 28.275 5.95 28.6 6.66667 29.16C7.38333 28.6 8.29333 28.275 9.25833 28.275C11.505 28.2734 13.3333 30.02 13.3333 32.1667C13.3333 35.5117 8.375 39.1417 7.38333 39.835C7.16667 39.985 6.91667 40.06 6.66667 40.06ZM4.075 30.7734C3.20667 30.7734 2.5 31.3984 2.5 32.165C2.5 33.4984 4.77833 35.7934 6.66667 37.2567C8.58833 35.7734 10.8333 33.5134 10.8333 32.165C10.8333 31.3984 10.1267 30.7734 9.25833 30.7734C8.615 30.7734 8.04333 31.1117 7.80167 31.635C7.39167 32.5184 5.94333 32.5184 5.53333 31.635C5.29 31.1117 4.71833 30.7734 4.075 30.7734Z" fill="white"/>
</g>
<defs>
<clipPath id="clip0_43_516">
<rect width="40" height="40" fill="white"/>
</clipPath>
</defs>
</svg>
