<svg width="40" height="40" viewBox="0 0 40 40" fill="none" xmlns="http://www.w3.org/2000/svg">
<path d="M20 15.0395C18.1941 11.7703 15.3567 9.62728 11.6969 9.62728C6.19785 9.62728 2.22162 14.2006 2.22162 19.8125C2.22162 26.5819 8.9604 31.6683 14.9138 36.6649C15.8476 37.4487 16.8134 38.2592 17.8158 39.1119C19.2149 40.3021 21.3143 40.2952 22.6992 39.0961C33.0493 30.1358 37.7783 26.0973 37.7783 19.8125C37.7783 14.2037 33.8049 9.6272 28.3031 9.6272C24.6422 9.62735 21.8053 11.7716 20 15.0395ZM20 18.8307C21.2925 18.8307 22.3441 19.8822 22.3441 21.1747C22.3441 22.4673 21.2925 23.5188 20 23.5188C18.7075 23.5188 17.6559 22.4673 17.6559 21.1747C17.6559 19.8822 18.7075 18.8307 20 18.8307ZM21.1649 37.324C20.647 37.7724 19.8601 37.7736 19.3346 37.3266C18.3263 36.4688 15.3962 34.0095 14.9037 33.5943C15.184 33.4397 15.4473 33.2451 15.6832 33.0091C16.3664 32.3259 16.739 31.3777 16.7056 30.4075C16.6892 29.9331 16.576 29.4706 16.3804 29.0465C17.4996 28.4949 18.7312 28.2069 20 28.2069C21.3224 28.2069 22.6 28.5188 23.7539 29.1146C23.1271 30.4278 23.3411 32.0336 24.4291 33.1216C24.6856 33.3781 24.9728 33.5851 25.2783 33.7459C24.0338 34.8402 22.6653 36.0252 21.1649 37.324ZM28.3032 11.9714C32.3686 11.9714 35.4343 15.3424 35.4343 19.8126C35.4343 23.6551 33.1154 26.6425 27.761 31.5279C27.6047 31.5764 26.7965 32.1739 26.0867 31.4641C25.6125 30.9898 25.6448 30.2057 26.1417 29.754C30.8497 25.4756 33.0903 22.8901 33.0903 19.7683H30.7463C30.7463 21.6482 29.4106 23.5383 25.3362 27.312C23.7228 26.3623 21.8969 25.8629 20 25.8629C18.1552 25.8629 16.3716 26.3375 14.7881 27.2402C11.3519 24.1911 9.25365 21.8434 9.25365 19.7683H6.90958C6.90958 22.884 9.49251 25.7427 13.954 29.6277C14.47 30.077 14.5048 30.8724 14.0258 31.3516C13.2934 32.0837 12.329 31.3974 12.3368 31.3971C7.53889 27.1981 4.56568 23.8674 4.56568 19.8126C4.56568 15.3424 7.6314 11.9714 11.6969 11.9714C15.3856 11.9714 17.3732 14.8852 18.2841 16.8133C16.5456 17.4996 15.3119 19.1953 15.3119 21.1748C15.3119 23.7599 17.415 25.8629 20 25.8629C22.585 25.8629 24.6881 23.7599 24.6881 21.1748C24.6881 19.1953 23.4543 17.4997 21.7158 16.8133C22.6267 14.8851 24.6144 11.9714 28.3032 11.9714Z" fill="white"/>
<path d="M9.45173 0C8.19743 0 7.01571 0.506005 6.12434 1.4248C5.24688 2.32922 4.76361 3.51586 4.76361 4.76626C4.76361 7.35129 6.8667 9.45438 9.45173 9.45438C12.0368 9.45438 14.1399 7.35129 14.1399 4.76626C14.1399 3.51586 13.6566 2.32922 12.7791 1.4248C11.8878 0.506005 10.706 0 9.45173 0ZM9.45173 7.11032C8.15922 7.11032 7.10767 6.05877 7.10767 4.76626C7.10767 3.45327 8.1811 2.34406 9.45173 2.34406C10.7224 2.34406 11.7958 3.45327 11.7958 4.76626C11.7958 6.05877 10.7442 7.11032 9.45173 7.11032Z" fill="white"/>
<path d="M35.2364 4.76626C35.2364 3.51586 34.7531 2.32922 33.8757 1.4248C32.9843 0.506005 31.8026 0 30.5483 0C29.294 0 28.1123 0.506005 27.2209 1.4248C26.3434 2.32922 25.8602 3.51586 25.8602 4.76626C25.8602 7.35129 27.9633 9.45438 30.5483 9.45438C33.1333 9.45438 35.2364 7.35129 35.2364 4.76626ZM28.2042 4.76626C28.2042 3.45327 29.2777 2.34406 30.5483 2.34406C31.8189 2.34406 32.8924 3.45327 32.8924 4.76626C32.8924 6.05877 31.8408 7.11032 30.5483 7.11032C29.2558 7.11032 28.2042 6.05877 28.2042 4.76626Z" fill="white"/>
</svg>
