<svg width="40" height="40" viewBox="0 0 40 40" fill="none" xmlns="http://www.w3.org/2000/svg">
<path d="M34.1422 5.85789C30.3646 2.08039 25.3422 0 20 0C14.6578 0 9.63539 2.08039 5.85781 5.85789C2.08039 9.63539 0 14.6578 0 20C0 25.3422 2.08039 30.3646 5.85781 34.1421C9.63539 37.9196 14.6578 40 20 40C25.3422 40 30.3646 37.9196 34.1422 34.1421C37.9196 30.3646 40 25.3422 40 20C40 14.6578 37.9196 9.63539 34.1422 5.85789ZM20 37.6562C10.2643 37.6562 2.34375 29.7357 2.34375 20C2.34375 13.4615 5.91641 7.74172 11.2121 4.69016C10.0772 6.37625 9.41406 8.40508 9.41406 10.5859C9.41406 16.423 14.1629 21.1719 20 21.1719C24.5448 21.1719 28.2422 24.8693 28.2422 29.4141C28.2422 33.9588 24.5448 37.6562 20 37.6562ZM28.7879 35.3098C29.9228 33.6237 30.5859 31.5949 30.5859 29.4141C30.5859 23.577 25.8371 18.8281 20 18.8281C15.4552 18.8281 11.7578 15.1307 11.7578 10.5859C11.7578 6.04117 15.4552 2.34375 20 2.34375C29.7357 2.34375 37.6562 10.2643 37.6562 20C37.6562 26.5385 34.0836 32.2583 28.7879 35.3098Z" fill="white"/>
<path d="M20 8.24219C18.7077 8.24219 17.6562 9.29359 17.6562 10.5859C17.6562 11.8783 18.7077 12.9297 20 12.9297C21.2923 12.9297 22.3438 11.8783 22.3438 10.5859C22.3438 9.29359 21.2923 8.24219 20 8.24219Z" fill="white"/>
<path d="M20 27.0703C18.7077 27.0703 17.6562 28.1217 17.6562 29.4141C17.6562 30.7064 18.7077 31.7578 20 31.7578C21.2923 31.7578 22.3438 30.7064 22.3438 29.4141C22.3438 28.1217 21.2923 27.0703 20 27.0703Z" fill="white"/>
</svg>
