<svg width="40" height="40" viewBox="0 0 40 40" fill="none" xmlns="http://www.w3.org/2000/svg">
<g clip-path="url(#clip0_43_526)">
<path d="M40 17.2142C40 10.9306 34.8868 5.81886 28.6033 5.81886C25.9986 5.81886 23.5958 6.69804 21.6746 8.17445C17.5093 4.95234 11.7281 5.01077 7.62788 8.30109L4.37053 5.04366H7.32821C8.03536 5.04366 8.60807 4.47095 8.60807 3.7638C8.60807 3.05664 8.03536 2.48394 7.32821 2.48394H1.29122C1.20185 2.48315 1.11248 2.49175 1.02452 2.50956C1.01858 2.51073 1.01296 2.51253 1.0071 2.51378C0.972098 2.52136 0.937412 2.52995 0.903039 2.5405C0.895383 2.54284 0.888118 2.54589 0.88054 2.54839C0.848354 2.55893 0.816402 2.57018 0.784998 2.58331C0.778513 2.58604 0.772342 2.58932 0.765936 2.59213C0.73414 2.60604 0.702658 2.6208 0.671878 2.63744C0.667659 2.63971 0.663753 2.64237 0.659613 2.64471C0.627505 2.66252 0.595788 2.68135 0.56493 2.70221C0.564227 2.70268 0.563602 2.70322 0.562898 2.70369C0.49673 2.74853 0.433608 2.79962 0.375017 2.85822C0.287365 2.94587 0.215962 3.04344 0.159011 3.14687C0.157605 3.14945 0.155964 3.15187 0.154558 3.15445C0.136903 3.18703 0.1212 3.22031 0.106592 3.25398C0.104639 3.25851 0.102295 3.26281 0.10042 3.26734C0.0862802 3.30101 0.0740932 3.33515 0.063 3.36968C0.0612813 3.37491 0.0591721 3.37999 0.0575315 3.38522C0.0461258 3.42225 0.0366731 3.45967 0.0287047 3.4974C0.0280016 3.50061 0.0270642 3.50365 0.0264392 3.50678C0.00847131 3.5949 -0.000122036 3.68435 0.000659177 3.77395V9.81078C0.000659177 10.5179 0.573367 11.0906 1.28052 11.0906C1.98705 11.0906 2.55968 10.5179 2.55968 9.81148V6.85326L5.81914 10.1127C2.25219 14.5824 2.53632 21.1352 6.67316 25.2719C8.89524 27.4933 11.8134 28.6047 14.7316 28.6047C17.181 28.6047 19.6301 27.8213 21.6679 26.2561C23.3138 27.5213 25.2621 28.3069 27.323 28.5376V31.1942H24.5351C23.828 31.1942 23.2553 31.7669 23.2553 32.474C23.2553 33.1812 23.828 33.7539 24.5351 33.7539H27.323V36.2367C27.323 36.9438 27.8957 37.5165 28.6028 37.5165C29.3093 37.5165 29.8827 36.9438 29.8827 36.2374V33.7539H32.6719C33.3791 33.7539 33.9518 33.1812 33.9518 32.474C33.9518 31.7669 33.3791 31.1942 32.6719 31.1942H29.8827V28.5372C35.5659 27.8992 40 23.065 40 17.2142ZM8.48331 23.4609C5.04019 20.0185 5.03831 14.4181 8.47753 10.9719C8.4794 10.9701 8.48143 10.9685 8.48331 10.9667C8.48518 10.9648 8.48675 10.9627 8.48862 10.9608C11.5857 7.86689 16.3417 7.5244 19.8081 9.97757C18.1852 11.947 17.2094 14.4687 17.2094 17.2141C17.2094 19.0417 17.6524 20.8589 18.49 22.4688C18.8158 23.0955 19.5896 23.3389 20.2163 23.0131C20.843 22.6872 21.0871 21.9134 20.7605 21.2867C20.1019 20.0228 19.7684 18.6521 19.7684 17.2142C19.7684 12.3422 23.7321 8.37858 28.6027 8.37858C33.4753 8.37858 37.4397 12.3423 37.4397 17.2142C37.4397 22.0825 33.4813 26.0437 28.6137 26.0503C28.61 26.0503 28.6064 26.0498 28.6027 26.0498C28.5989 26.0498 28.5953 26.0503 28.5915 26.0503C26.7645 26.0481 25.009 25.4875 23.5348 24.4521C26.4573 20.9142 26.9886 15.9909 24.7992 11.8701C24.4685 11.2461 23.6934 11.0062 23.0686 11.3404C22.444 11.6718 22.2069 12.4469 22.539 13.0709C24.3721 16.5195 23.7446 20.6961 20.9791 23.461C20.9303 23.5098 20.8809 23.5577 20.8312 23.6051C20.8175 23.617 20.8047 23.6304 20.7912 23.6429C17.3338 26.906 11.8665 26.8455 8.48331 23.4609Z" fill="white"/>
</g>
<defs>
<clipPath id="clip0_43_526">
<rect width="40" height="40" fill="white"/>
</clipPath>
</defs>
</svg>
