<svg width="40" height="40" viewBox="0 0 40 40" fill="none" xmlns="http://www.w3.org/2000/svg">
<path d="M25.8594 5.85938C25.8594 2.62852 23.2309 0 20 0C16.7691 0 14.1406 2.62852 14.1406 5.85938C14.1406 9.09023 16.7691 11.7188 20 11.7188C23.2309 11.7188 25.8594 9.09023 25.8594 5.85938ZM20 9.375C18.0615 9.375 16.4844 7.79789 16.4844 5.85938C16.4844 3.92086 18.0615 2.34375 20 2.34375C21.9385 2.34375 23.5156 3.92086 23.5156 5.85938C23.5156 7.79789 21.9385 9.375 20 9.375Z" fill="white"/>
<path d="M39.9812 30.625L37.3726 28.538C34.3031 26.0823 32.283 22.5973 31.8303 18.9763C31.3235 14.9227 28.0921 11.7188 24.0306 11.7188H15.9694C11.9005 11.7188 8.67561 14.9299 8.1696 18.9763C7.71686 22.5972 5.69678 26.0823 2.62725 28.538L0.0187378 30.625C0.0187378 30.625 3.51967 30.623 3.59983 30.6214C2.86077 31.602 2.42186 32.8209 2.42186 34.1406C2.42186 37.3605 5.03264 39.9813 8.24835 39.9991L8.24678 40H31.7187C34.9496 40 37.5781 37.3715 37.5781 34.1406C37.5781 32.8215 37.1396 31.603 36.4011 30.6226C36.4809 30.6241 39.9812 30.625 39.9812 30.625ZM10.4953 19.2672C10.8723 16.2514 13.1745 14.0625 15.9694 14.0625H24.0306C26.8255 14.0625 29.1276 16.2514 29.5047 19.2672C29.8806 22.2736 31.1729 25.1913 33.1651 27.6454C30.4778 26.6429 28.1585 24.5131 26.8248 21.672L25.254 18.3257L22.8042 32.1721C21.8751 32.6616 20.931 33.1669 19.9999 33.6695C18.9806 33.1195 18.0497 32.6227 17.2 32.1752L14.9475 18.9508L13.3548 22.2802C12.1798 24.7366 9.63272 26.7595 6.78632 27.7049C8.80624 25.2385 10.1163 22.298 10.4953 19.2672ZM13.7487 25.8706L14.5928 30.8262C12.5346 29.7847 11.134 29.144 10.1538 28.7659C11.5183 27.9925 12.7488 27.0086 13.7487 25.8706ZM12.6766 37.6562H8.28124C6.34272 37.6562 4.76561 36.0791 4.76561 34.1406C4.76561 32.2047 6.3385 30.6292 8.27343 30.625C9.53655 30.7224 16.414 34.4064 17.5379 35.0071C15.5173 36.1105 13.8437 37.0336 12.6766 37.6562ZM31.7187 37.6562H17.5782C19.0634 36.8434 30.086 30.747 31.7264 30.625C33.6614 30.6292 35.2344 32.2047 35.2344 34.1406C35.2344 36.0791 33.6572 37.6562 31.7187 37.6562ZM25.4242 30.8165L26.382 25.4028C27.3944 26.7002 28.6277 27.8187 30.0308 28.6923C29.0899 29.0437 27.6698 29.6807 25.4242 30.8165Z" fill="white"/>
</svg>
