<svg width="19" height="19" viewBox="0 0 19 19" fill="none" xmlns="http://www.w3.org/2000/svg">
<g clip-path="url(#clip0_177_1252)">
<path d="M9.50043 19C14.7474 19 19.0009 14.7467 19.0009 9.5C19.0009 4.25329 14.7474 0 9.50043 0C4.25349 0 0 4.25329 0 9.5C0 14.7467 4.25349 19 9.50043 19Z" fill="url(#paint0_linear_177_1252)"/>
<path fill-rule="evenodd" clip-rule="evenodd" d="M4.30108 9.39988C7.07064 8.19322 8.91747 7.3977 9.8415 7.01338C12.4799 5.91601 13.0281 5.72537 13.3854 5.71906C13.464 5.71769 13.6397 5.73717 13.7536 5.82954C13.9224 5.96655 13.9234 6.26396 13.9046 6.4608C13.7617 7.96305 13.143 11.6086 12.8283 13.2911C12.6951 14.0031 12.4329 14.2418 12.179 14.2651C11.6273 14.3159 11.2084 13.9005 10.674 13.5503C9.83786 13.0021 9.36548 12.6609 8.55382 12.1261C7.61584 11.508 8.2239 11.1683 8.75845 10.613C8.89836 10.4678 11.3292 8.25671 11.3762 8.05613C11.3821 8.03104 11.3876 7.93752 11.332 7.88816C11.2765 7.83881 11.1945 7.85565 11.1353 7.86909C11.0515 7.88813 9.71569 8.77104 7.12801 10.5178C6.74885 10.7782 6.40542 10.905 6.09774 10.8984C5.7585 10.891 5.10602 10.7066 4.62094 10.5489C4.02597 10.3555 3.55311 10.2532 3.5943 9.92478C3.61575 9.75366 3.85133 9.57872 4.30108 9.39988Z" fill="white"/>
</g>
<defs>
<linearGradient id="paint0_linear_177_1252" x1="9.50043" y1="0" x2="9.50043" y2="18.8516" gradientUnits="userSpaceOnUse">
<stop stop-color="#2AABEE"/>
<stop offset="1" stop-color="#229ED9"/>
</linearGradient>
<clipPath id="clip0_177_1252">
<rect width="19.0009" height="19" fill="white"/>
</clipPath>
</defs>
</svg>
