<svg width="30" height="30" viewBox="0 0 30 30" fill="none" xmlns="http://www.w3.org/2000/svg">
<g clip-path="url(#clip0_50_132)">
<path d="M2.68625 22.7113C2.35625 22.7113 2.03625 22.5375 1.865 22.2288C0.64625 20.0288 0 17.5287 0 15C0 6.72875 6.72875 0 15 0C17.4113 0 19.8025 0.5875 21.9163 1.6975C22.375 1.93875 22.5513 2.505 22.31 2.96375C22.0713 3.4225 21.505 3.6 21.0438 3.3575C19.1975 2.3875 17.1088 1.875 15 1.875C7.7625 1.875 1.875 7.7625 1.875 15C1.875 17.2113 2.43875 19.3962 3.50625 21.32C3.75625 21.7725 3.5925 22.3438 3.14125 22.595C2.99625 22.6737 2.84 22.7113 2.68625 22.7113Z" fill="#3E1A79"/>
<path d="M15 30.0002C12.2212 30.0002 9.51 29.2327 7.16 27.7815C6.71875 27.5102 6.5825 26.9315 6.85375 26.4915C7.12625 26.0527 7.705 25.914 8.14375 26.1865C10.1987 27.454 12.57 28.1252 15 28.1252C22.2375 28.1252 28.125 22.2377 28.125 15.0002C28.125 12.5665 27.455 10.2002 26.1862 8.15773C25.9137 7.71773 26.05 7.14023 26.4887 6.86648C26.9287 6.59148 27.5063 6.72898 27.7787 7.16898C29.2325 9.50773 30 12.2165 30 15.0002C30 23.2715 23.2712 30.0002 15 30.0002Z" fill="#3E1A79"/>
<path d="M11.5625 14.0625C11.045 14.0625 10.625 13.6425 10.625 13.125C10.625 12.4362 10.065 11.875 9.375 11.875C8.685 11.875 8.125 12.4362 8.125 13.125C8.125 13.6425 7.705 14.0625 7.1875 14.0625C6.67 14.0625 6.25 13.6425 6.25 13.125C6.25 11.4025 7.65125 10 9.375 10C11.0988 10 12.5 11.4025 12.5 13.125C12.5 13.6425 12.08 14.0625 11.5625 14.0625Z" fill="#3E1A79"/>
<path d="M22.8125 14.0625C22.295 14.0625 21.875 13.6425 21.875 13.125C21.875 12.4362 21.315 11.875 20.625 11.875C19.935 11.875 19.375 12.4362 19.375 13.125C19.375 13.6425 18.955 14.0625 18.4375 14.0625C17.92 14.0625 17.5 13.6425 17.5 13.125C17.5 11.4025 18.9013 10 20.625 10C22.3488 10 23.75 11.4025 23.75 13.125C23.75 13.6425 23.33 14.0625 22.8125 14.0625Z" fill="#3E1A79"/>
<path d="M15 22.5C12.27 22.5 9.70499 21.4375 7.77499 19.5062C7.40874 19.14 7.40874 18.5462 7.77499 18.18C8.14124 17.8137 8.73499 17.8137 9.10124 18.18C10.6762 19.7575 12.7712 20.625 15 20.625C17.2287 20.625 19.3237 19.7575 20.9 18.1812C21.2662 17.815 21.86 17.815 22.2262 18.1812C22.5925 18.5475 22.5925 19.1412 22.2262 19.5075C20.295 21.4375 17.73 22.5 15 22.5Z" fill="#3E1A79"/>
<path d="M25 10.0448C24.8125 10.0448 24.625 9.98856 24.4625 9.87606C23.7188 9.35481 20 6.63356 20 4.12481C20 2.51481 21.3712 1.20606 23.0562 1.20606C23.78 1.20606 24.4625 1.44981 25 1.86981C25.5375 1.44981 26.22 1.20606 26.9438 1.20606C28.6288 1.20481 30 2.51481 30 4.12481C30 6.63356 26.2813 9.35606 25.5375 9.87606C25.375 9.98856 25.1875 10.0448 25 10.0448ZM23.0562 3.07981C22.405 3.07981 21.875 3.54856 21.875 4.12356C21.875 5.12356 23.5838 6.84481 25 7.94231C26.4413 6.82981 28.125 5.13481 28.125 4.12356C28.125 3.54856 27.595 3.07981 26.9438 3.07981C26.4613 3.07981 26.0325 3.33356 25.8513 3.72606C25.5438 4.38856 24.4575 4.38856 24.15 3.72606C23.9675 3.33356 23.5387 3.07981 23.0562 3.07981Z" fill="#3E1A79"/>
<path d="M5 30.0448C4.8125 30.0448 4.625 29.9886 4.4625 29.8761C3.71875 29.3548 0 26.6336 0 24.1248C0 22.5148 1.37125 21.2061 3.05625 21.2061C3.78 21.2061 4.4625 21.4498 5 21.8698C5.5375 21.4498 6.22 21.2061 6.94375 21.2061C8.62875 21.2048 10 22.5148 10 24.1248C10 26.6336 6.28125 29.3561 5.5375 29.8761C5.375 29.9886 5.1875 30.0448 5 30.0448ZM3.05625 23.0798C2.405 23.0798 1.875 23.5486 1.875 24.1236C1.875 25.1236 3.58375 26.8448 5 27.9423C6.44125 26.8298 8.125 25.1348 8.125 24.1236C8.125 23.5486 7.595 23.0798 6.94375 23.0798C6.46125 23.0798 6.0325 23.3336 5.85125 23.7261C5.54375 24.3886 4.4575 24.3886 4.15 23.7261C3.9675 23.3336 3.53875 23.0798 3.05625 23.0798Z" fill="#3E1A79"/>
</g>
<defs>
<clipPath id="clip0_50_132">
<rect width="30" height="30" fill="white"/>
</clipPath>
</defs>
</svg>
