<svg width="30" height="30" viewBox="0 0 30 30" fill="none" xmlns="http://www.w3.org/2000/svg">
<path d="M19.3945 4.39453C19.3945 1.97139 17.4231 0 15 0C12.5769 0 10.6055 1.97139 10.6055 4.39453C10.6055 6.81768 12.5769 8.78906 15 8.78906C17.4231 8.78906 19.3945 6.81768 19.3945 4.39453ZM15 7.03125C13.5461 7.03125 12.3633 5.84842 12.3633 4.39453C12.3633 2.94064 13.5461 1.75781 15 1.75781C16.4539 1.75781 17.6367 2.94064 17.6367 4.39453C17.6367 5.84842 16.4539 7.03125 15 7.03125Z" fill="#3E1A79"/>
<path d="M29.9859 22.9688L28.0295 21.4035C25.7273 19.5618 24.2123 16.9479 23.8727 14.2322C23.4926 11.192 21.0691 8.78906 18.0229 8.78906H11.977C8.92533 8.78906 6.50669 11.1974 6.12718 14.2322C5.78763 16.9479 4.27257 19.5618 1.97042 21.4035L0.0140381 22.9688C0.0140381 22.9688 2.63974 22.9672 2.69986 22.9661C2.14556 23.7015 1.81638 24.6157 1.81638 25.6055C1.81638 28.0204 3.77447 29.986 6.18624 29.9994L6.18507 30H23.789C26.2122 30 28.1836 28.0286 28.1836 25.6055C28.1836 24.6161 27.8547 23.7022 27.3008 22.9669C27.3607 22.9681 29.9859 22.9688 29.9859 22.9688ZM7.87146 14.4504C8.15423 12.1886 9.88087 10.5469 11.977 10.5469H18.0229C20.1191 10.5469 21.8457 12.1886 22.1285 14.4504C22.4104 16.7052 23.3796 18.8935 24.8738 20.734C22.8583 19.9822 21.1189 18.3848 20.1185 16.254L18.9405 13.7443L17.1031 24.1291C16.4063 24.4962 15.6982 24.8752 14.9999 25.2521C14.2354 24.8396 13.5372 24.467 12.9 24.1314L11.2106 14.2131L10.0161 16.7102C9.1348 18.5525 7.22453 20.0696 5.08972 20.7787C6.60466 18.9289 7.58722 16.7235 7.87146 14.4504ZM10.3115 19.403L10.9446 23.1196C9.40093 22.3385 8.35052 21.858 7.61535 21.5744C8.63874 20.9944 9.5616 20.2564 10.3115 19.403ZM9.50745 28.2422H6.21091C4.75703 28.2422 3.57419 27.0594 3.57419 25.6055C3.57419 24.1535 4.75386 22.9719 6.20505 22.9688C7.1524 23.0418 12.3105 25.8048 13.1534 26.2553C11.638 27.0829 10.3827 27.7752 9.50745 28.2422ZM23.789 28.2422H13.1836C14.2976 27.6325 22.5645 23.0602 23.7948 22.9688C25.246 22.9719 26.4258 24.1535 26.4258 25.6055C26.4258 27.0594 25.2429 28.2422 23.789 28.2422ZM19.0681 23.1124L19.7865 19.0521C20.5458 20.0252 21.4708 20.864 22.5231 21.5192C21.8174 21.7828 20.7524 22.2605 19.0681 23.1124Z" fill="#3E1A79"/>
</svg>
