<svg width="30" height="30" viewBox="0 0 30 30" fill="none" xmlns="http://www.w3.org/2000/svg">
<path d="M25.6066 4.39342C22.7735 1.56029 19.0066 0 15 0C10.9934 0 7.22654 1.56029 4.39336 4.39342C1.56029 7.22654 0 10.9934 0 15C0 19.0066 1.56029 22.7735 4.39336 25.6066C7.22654 28.4397 10.9934 30 15 30C19.0066 30 22.7735 28.4397 25.6066 25.6066C28.4397 22.7735 30 19.0066 30 15C30 10.9934 28.4397 7.22654 25.6066 4.39342ZM15 28.2422C7.69822 28.2422 1.75781 22.3018 1.75781 15C1.75781 10.0961 4.4373 5.80629 8.40908 3.51762C7.55789 4.78219 7.06055 6.30381 7.06055 7.93945C7.06055 12.3173 10.6222 15.8789 15 15.8789C18.4086 15.8789 21.1816 18.652 21.1816 22.0605C21.1816 25.4691 18.4086 28.2422 15 28.2422ZM21.5909 26.4824C22.4421 25.2178 22.9395 23.6962 22.9395 22.0605C22.9395 17.6827 19.3778 14.1211 15 14.1211C11.5914 14.1211 8.81836 11.348 8.81836 7.93945C8.81836 4.53088 11.5914 1.75781 15 1.75781C22.3018 1.75781 28.2422 7.69822 28.2422 15C28.2422 19.9039 25.5627 24.1937 21.5909 26.4824Z" fill="#3E1A79"/>
<path d="M15 6.18164C14.0307 6.18164 13.2422 6.9702 13.2422 7.93945C13.2422 8.90871 14.0307 9.69727 15 9.69727C15.9693 9.69727 16.7578 8.90871 16.7578 7.93945C16.7578 6.9702 15.9693 6.18164 15 6.18164Z" fill="#3E1A79"/>
<path d="M15 20.3027C14.0307 20.3027 13.2422 21.0913 13.2422 22.0605C13.2422 23.0298 14.0307 23.8184 15 23.8184C15.9693 23.8184 16.7578 23.0298 16.7578 22.0605C16.7578 21.0913 15.9693 20.3027 15 20.3027Z" fill="#3E1A79"/>
</svg>
