<svg width="30" height="30" viewBox="0 0 30 30" fill="none" xmlns="http://www.w3.org/2000/svg">
<path d="M15 11.2794C13.6455 8.82754 11.5175 7.22027 8.77263 7.22027C4.64837 7.22027 1.6662 10.6503 1.6662 14.8592C1.6662 19.9363 6.72029 23.751 11.1853 27.4985C11.8857 28.0863 12.61 28.6942 13.3618 29.3337C14.4112 30.2264 15.9857 30.2212 17.0244 29.3219C24.787 22.6017 28.3337 19.5728 28.3337 14.8592C28.3337 10.6526 25.3536 7.22021 21.2273 7.22021C18.4816 7.22033 16.354 8.82853 15 11.2794ZM15 14.1228C15.9694 14.1228 16.758 14.9115 16.758 15.8809C16.758 16.8503 15.9694 17.6389 15 17.6389C14.0306 17.6389 13.2419 16.8503 13.2419 15.8809C13.2419 14.9115 14.0306 14.1228 15 14.1228ZM15.8737 27.9928C15.4853 28.3291 14.8951 28.33 14.5009 27.9948C13.7447 27.3514 11.5471 25.5069 11.1778 25.1955C11.388 25.0796 11.5854 24.9336 11.7624 24.7566C12.2748 24.2443 12.5542 23.5331 12.5292 22.8055C12.5169 22.4496 12.432 22.1028 12.2853 21.7847C13.1247 21.371 14.0484 21.155 15 21.155C15.9918 21.155 16.95 21.3889 17.8154 21.8357C17.3453 22.8206 17.5058 24.025 18.3218 24.841C18.5142 25.0334 18.7296 25.1886 18.9587 25.3092C18.0253 26.13 16.9989 27.0187 15.8737 27.9928ZM21.2274 8.97838C24.2764 8.97838 26.5757 11.5066 26.5757 14.8593C26.5757 17.7411 24.8365 19.9817 20.8208 23.6458C20.7035 23.6821 20.0974 24.1302 19.565 23.5979C19.2093 23.2422 19.2336 22.6541 19.6063 22.3153C23.1373 19.1065 24.8177 17.1674 24.8177 14.826H23.0597C23.0597 16.2359 22.0579 17.6535 19.0022 20.4839C17.7921 19.7716 16.4227 19.397 15 19.397C13.6164 19.397 12.2787 19.753 11.091 20.4299C8.5139 18.1431 6.94022 16.3824 6.94022 14.826H5.18217C5.18217 17.1628 7.11936 19.3068 10.4655 22.2206C10.8525 22.5576 10.8786 23.1541 10.5193 23.5135C9.97004 24.0626 9.24672 23.5478 9.25258 23.5477C5.65415 20.3984 3.42424 17.9003 3.42424 14.8593C3.42424 11.5066 5.72353 8.97838 8.77263 8.97838C11.5391 8.97838 13.0299 11.1637 13.7131 12.6098C12.4092 13.1246 11.4839 14.3963 11.4839 15.8809C11.4839 17.8197 13.0612 19.397 15 19.397C16.9388 19.397 18.5161 17.8197 18.5161 15.8809C18.5161 14.3963 17.5907 13.1246 16.2869 12.6098C16.97 11.1636 18.4608 8.97838 21.2274 8.97838Z" fill="#3E1A79"/>
<path d="M7.08878 0C6.14805 0 5.26176 0.379504 4.59324 1.0686C3.93514 1.74691 3.57269 2.63689 3.57269 3.57469C3.57269 5.51347 5.15001 7.09079 7.08878 7.09079C9.02756 7.09079 10.6049 5.51347 10.6049 3.57469C10.6049 2.63689 10.2424 1.74691 9.58433 1.0686C8.9158 0.379504 8.02952 0 7.08878 0ZM7.08878 5.33274C6.1194 5.33274 5.33074 4.54408 5.33074 3.57469C5.33074 2.58995 6.13581 1.75805 7.08878 1.75805C8.04176 1.75805 8.84683 2.58995 8.84683 3.57469C8.84683 4.54408 8.05817 5.33274 7.08878 5.33274Z" fill="#3E1A79"/>
<path d="M26.4273 3.57469C26.4273 2.63689 26.0648 1.74691 25.4067 1.0686C24.7382 0.379504 23.8519 0 22.9112 0C21.9704 0 21.0842 0.379504 20.4156 1.0686C19.7575 1.74691 19.3951 2.63689 19.3951 3.57469C19.3951 5.51347 20.9724 7.09079 22.9112 7.09079C24.8499 7.09079 26.4273 5.51347 26.4273 3.57469ZM21.1531 3.57469C21.1531 2.58995 21.9582 1.75805 22.9112 1.75805C23.8642 1.75805 24.6692 2.58995 24.6692 3.57469C24.6692 4.54408 23.8806 5.33274 22.9112 5.33274C21.9418 5.33274 21.1531 4.54408 21.1531 3.57469Z" fill="#3E1A79"/>
</svg>
