<svg width="30" height="30" viewBox="0 0 30 30" fill="none" xmlns="http://www.w3.org/2000/svg">
<path d="M19.8099 16.8584C19.6558 16.8584 19.5052 16.9205 19.3957 17.0301C19.2867 17.1391 19.224 17.2902 19.224 17.4443C19.224 17.5984 19.2867 17.7496 19.3957 17.8586C19.5052 17.9675 19.6558 18.0303 19.8099 18.0303C19.964 18.0303 20.1152 17.9676 20.2242 17.8586C20.3338 17.7496 20.3959 17.5984 20.3959 17.4443C20.3959 17.2902 20.3338 17.1391 20.2242 17.0301C20.1152 16.9204 19.964 16.8584 19.8099 16.8584Z" fill="#3E1A79"/>
<path d="M15.0074 2.57812C10.9365 2.57812 7.62463 5.89002 7.62463 9.96094V12.6396C7.62463 16.7105 10.9365 20.0223 15.0074 20.0223C15.9902 20.0223 16.9455 19.8313 17.8467 19.4546C18.1453 19.3298 18.2861 18.9866 18.1613 18.6881C18.0365 18.3894 17.6932 18.2487 17.3947 18.3734C16.6375 18.6899 15.8343 18.8505 15.0074 18.8505C13.4033 18.8505 11.9392 18.2391 10.8359 17.2372L14.7591 13.3138C14.9879 13.085 14.9879 12.714 14.7591 12.4852C14.5303 12.2564 14.1593 12.2564 13.9304 12.4852L10.0451 16.3705C9.50907 15.6593 9.12229 14.8297 8.93133 13.9286L18.2155 4.64449C18.9407 5.08371 19.5692 5.66707 20.0612 6.35455L16.1595 10.2562C15.9307 10.485 15.9306 10.856 16.1595 11.0849C16.274 11.1993 16.4239 11.2565 16.5738 11.2565C16.7238 11.2565 16.8738 11.1993 16.9881 11.0849L20.668 7.40514C21.0215 8.18508 21.2184 9.05045 21.2184 9.96094V12.6396C21.2184 13.4674 21.0575 14.2714 20.7403 15.0294C20.6153 15.3279 20.756 15.6711 21.0545 15.7961C21.353 15.9212 21.6963 15.7804 21.8213 15.4819C22.1988 14.5798 22.3903 13.6236 22.3903 12.6396V9.96094C22.3903 5.89002 19.0784 2.57812 15.0074 2.57812ZM8.79651 12.4061V9.96094C8.79651 6.53625 11.5827 3.75 15.0074 3.75C15.7385 3.75 16.4402 3.87732 17.0922 4.11035L8.79651 12.4061Z" fill="#3E1A79"/>
<path d="M24.9684 9.96094C24.9684 4.46848 20.4999 0 15.0074 0C9.51499 0 5.04651 4.46848 5.04651 9.96094V12.6396C5.04651 16.8318 7.69653 20.5999 11.6407 22.0162C12.0309 22.1563 12.2681 22.5495 12.2047 22.9511L11.7012 26.1394C11.5487 27.1056 11.8256 28.0862 12.461 28.8298C13.0964 29.5735 14.0218 30 15 30C15.9782 30 16.9036 29.5735 17.539 28.8298C18.1744 28.0862 18.4514 27.1056 18.2988 26.1394L17.7962 22.9561C17.7328 22.5539 17.9704 22.1606 18.3614 22.0208C22.3133 20.608 24.9684 16.8379 24.9684 12.6396V9.96094H24.9684ZM23.7965 12.6396C23.7965 16.3442 21.4538 19.6707 17.9668 20.9173C17.0459 21.2465 16.4873 22.1808 16.6386 23.1388L17.1413 26.3222C17.2403 26.9493 17.0605 27.5858 16.6481 28.0686C16.2356 28.5513 15.6349 28.8281 15 28.8281C14.3651 28.8281 13.7644 28.5513 13.3519 28.0686C12.9395 27.5859 12.7597 26.9493 12.8588 26.3222L13.3622 23.1339C13.5132 22.1771 12.9558 21.2432 12.0367 20.9132C8.55663 19.6637 6.21844 16.3387 6.21844 12.6396V9.96094C6.21844 5.11465 10.1612 1.17188 15.0075 1.17188C19.8538 1.17188 23.7966 5.11465 23.7966 9.96094V12.6396H23.7965Z" fill="#3E1A79"/>
<path d="M15 26.0449C14.8459 26.0449 14.6947 26.1076 14.5857 26.2166C14.4768 26.3256 14.4141 26.4768 14.4141 26.6309C14.4141 26.785 14.4768 26.9361 14.5857 27.0451C14.6947 27.154 14.8459 27.2168 15 27.2168C15.1541 27.2168 15.3053 27.1541 15.4143 27.0451C15.5232 26.9361 15.5859 26.785 15.5859 26.6309C15.5859 26.4768 15.5232 26.3256 15.4143 26.2166C15.3053 26.1076 15.1541 26.0449 15 26.0449Z" fill="#3E1A79"/>
<path d="M27.3272 19.7891C27.0563 19.7891 26.8359 19.5687 26.8359 19.2979C26.8359 18.9743 26.5736 18.7119 26.25 18.7119C25.9264 18.7119 25.664 18.9743 25.664 19.2979C25.664 19.5687 25.4437 19.7891 25.1728 19.7891C24.8492 19.7891 24.5869 20.0515 24.5869 20.375C24.5869 20.6986 24.8492 20.961 25.1728 20.961C25.4437 20.961 25.664 21.1814 25.664 21.4523C25.664 21.7758 25.9264 22.0382 26.25 22.0382C26.5736 22.0382 26.8359 21.7758 26.8359 21.4523C26.8359 21.1814 27.0563 20.961 27.3272 20.961C27.6508 20.961 27.9131 20.6986 27.9131 20.375C27.9131 20.0515 27.6508 19.7891 27.3272 19.7891Z" fill="#3E1A79"/>
<path d="M5.4131 1.66318C5.4131 1.33963 5.15078 1.07725 4.82717 1.07725C4.55629 1.07725 4.33592 0.856816 4.33592 0.585938C4.33592 0.262383 4.07359 0 3.74998 0C3.42636 0 3.16404 0.262383 3.16404 0.585938C3.16404 0.856816 2.94367 1.07725 2.67279 1.07725C2.34918 1.07725 2.08685 1.33963 2.08685 1.66318C2.08685 1.98674 2.34918 2.24912 2.67279 2.24912C2.94367 2.24912 3.16404 2.46949 3.16404 2.74037C3.16404 3.06393 3.42636 3.32631 3.74998 3.32631C4.07359 3.32631 4.33592 3.06393 4.33592 2.74037C4.33592 2.46949 4.55629 2.24912 4.82717 2.24912C5.15078 2.24912 5.4131 1.98674 5.4131 1.66318Z" fill="#3E1A79"/>
</svg>
