<svg width="30" height="30" viewBox="0 0 30 30" fill="none" xmlns="http://www.w3.org/2000/svg">
<path d="M30 12.9105C30 8.19787 26.1651 4.36402 21.4524 4.36402C19.4989 4.36402 17.6968 5.0234 16.2559 6.13072C13.1319 3.71413 8.79603 3.75796 5.72088 6.22569L3.27787 3.78262H5.49612C6.02649 3.78262 6.45602 3.35309 6.45602 2.82273C6.45602 2.29236 6.02649 1.86283 5.49612 1.86283H0.968387C0.901359 1.86224 0.834331 1.86869 0.768358 1.88205C0.763905 1.88293 0.759686 1.88427 0.755292 1.88521C0.729043 1.89089 0.703029 1.89734 0.677249 1.90525C0.671507 1.90701 0.666058 1.90929 0.660374 1.91117C0.636235 1.91908 0.612271 1.92751 0.588718 1.93736C0.583855 1.93941 0.579226 1.94187 0.574421 1.94398C0.550575 1.95441 0.526963 1.96548 0.503878 1.97796C0.500714 1.97966 0.497784 1.98165 0.494679 1.98341C0.470598 1.99677 0.44681 2.01089 0.423667 2.02653C0.423139 2.02688 0.422671 2.02729 0.422143 2.02765C0.372517 2.06128 0.325175 2.0996 0.281232 2.14354C0.215493 2.20928 0.161941 2.28246 0.119228 2.36003C0.118173 2.36197 0.116943 2.36378 0.115888 2.36572C0.102647 2.39015 0.0908698 2.41511 0.0799133 2.44036C0.0784485 2.44376 0.0766908 2.44698 0.0752846 2.45038C0.0646796 2.47563 0.0555394 2.50124 0.0472195 2.52713C0.0459305 2.53106 0.0443485 2.53487 0.0431181 2.53879C0.0345638 2.56657 0.0274743 2.59463 0.021498 2.62293C0.0209707 2.62533 0.0202676 2.62762 0.0197989 2.62996C0.00632297 2.69605 -0.000122045 2.76314 0.000463865 2.83034V7.35796C0.000463865 7.88833 0.429995 8.31786 0.96036 8.31786C1.49026 8.31786 1.91973 7.88833 1.91973 7.35849V5.13982L4.36432 7.58442C1.68911 10.9366 1.90221 15.8513 5.00484 18.9538C6.6714 20.6199 8.86001 21.4534 11.0487 21.4534C12.8857 21.4534 14.7226 20.8658 16.2509 19.692C17.4853 20.6408 18.9466 21.23 20.4922 21.403V23.3955H18.4013C17.871 23.3955 17.4414 23.825 17.4414 24.3554C17.4414 24.8858 17.871 25.3153 18.4013 25.3153H20.4922V27.1774C20.4922 27.7077 20.9217 28.1373 21.4521 28.1373C21.9819 28.1373 22.412 27.7077 22.412 27.1779V25.3153H24.5039C25.0343 25.3153 25.4638 24.8858 25.4638 24.3554C25.4638 23.825 25.0343 23.3955 24.5039 23.3955H22.412V21.4028C26.6744 20.9242 30 17.2986 30 12.9105ZM6.36245 17.5956C3.78011 15.0138 3.7787 10.8135 6.35811 8.2288C6.35952 8.22745 6.36104 8.22628 6.36245 8.22488C6.36386 8.22347 6.36503 8.22189 6.36643 8.22048C8.68922 5.90004 12.2562 5.64318 14.856 7.48305C13.6389 8.96013 12.907 10.8514 12.907 12.9105C12.907 14.2811 13.2393 15.644 13.8674 16.8515C14.1118 17.3215 14.6922 17.504 15.1622 17.2597C15.6322 17.0153 15.8153 16.4349 15.5704 15.9649C15.0764 15.017 14.8263 13.9889 14.8263 12.9105C14.8263 9.25655 17.7991 6.28381 21.452 6.28381C25.1065 6.28381 28.0797 9.2566 28.0797 12.9105C28.0797 16.5617 25.1109 19.5326 21.4602 19.5376C21.4575 19.5376 21.4548 19.5372 21.452 19.5372C21.4492 19.5372 21.4464 19.5376 21.4436 19.5376C20.0733 19.5359 18.7567 19.1155 17.6511 18.339C19.843 15.6855 20.2414 11.993 18.5994 8.90242C18.3513 8.43446 17.77 8.25452 17.3014 8.50517C16.833 8.75372 16.6551 9.33506 16.9042 9.80308C18.279 12.3895 17.8084 15.5219 15.7343 17.5956C15.6977 17.6322 15.6607 17.6682 15.6234 17.7037C15.6131 17.7126 15.6035 17.7227 15.5934 17.7321C13.0003 20.1794 8.89985 20.134 6.36245 17.5956Z" fill="#3E1A79"/>
</svg>
