<svg width="30" height="30" viewBox="0 0 30 30" fill="none" xmlns="http://www.w3.org/2000/svg">
<path d="M28.0449 9.5304C27.5159 9.0018 26.9069 8.58265 26.2463 8.28129C27.4427 7.46408 28.2297 6.08971 28.2297 4.53465C28.2297 2.03423 26.1955 0 23.6951 0C21.1947 0 19.1605 2.03423 19.1605 4.53465C19.1605 6.05282 19.9111 7.39807 21.06 8.22155C19.5095 8.81991 18.1778 9.9365 17.3286 11.4193C17.0714 11.8675 16.5911 12.1459 16.0751 12.1459H13.9245C13.4083 12.1459 12.9282 11.8677 12.6716 11.4197C11.822 9.93664 10.4901 8.82005 8.93972 8.22162C10.0885 7.39814 10.8392 6.0529 10.8392 4.53472C10.8392 2.03423 8.80494 0 6.30453 0C3.80411 0 1.76988 2.03423 1.76988 4.53465C1.76988 6.09063 2.55782 7.46571 3.75545 8.28277C1.632 9.25351 0.152893 11.3976 0.152893 13.881V18.9086C0.152893 19.9367 0.834684 20.8085 1.76995 21.0955V28.2167C1.76995 29.1999 2.56981 29.9997 3.55289 29.9997H9.05624C10.0393 29.9997 10.8392 29.1999 10.8392 28.2167V15.5071C11.878 16.2094 13.1137 16.5956 14.3889 16.5956L15.6106 16.5957C16.508 16.5957 17.3777 16.4102 18.1955 16.0443C18.5351 15.8924 18.8574 15.7135 19.1608 15.5085V28.2171C19.1608 29.2002 19.9606 30 20.9437 30H26.447C27.4301 30 28.2299 29.2002 28.2299 28.2171V21.0954C29.1652 20.8083 29.8471 19.9364 29.8471 18.9083V13.8807C29.8472 12.2375 29.2071 10.6926 28.0449 9.5304ZM23.6951 1.34003C25.4567 1.34003 26.8897 2.77315 26.8897 4.53465C26.8897 6.29615 25.4567 7.72927 23.6951 7.72927C21.9335 7.72927 20.5005 6.29615 20.5005 4.53465C20.5005 2.77315 21.9335 1.34003 23.6951 1.34003ZM3.10991 4.53465C3.10991 2.77315 4.54303 1.34003 6.30453 1.34003C8.06603 1.34003 9.49915 2.77315 9.49915 4.53465C9.49915 6.29615 8.06603 7.72927 6.30453 7.72927C4.54303 7.72927 3.10991 6.29615 3.10991 4.53465ZM14.3889 15.2556C12.975 15.2556 11.6227 14.6533 10.6767 13.6029C10.5175 13.4261 10.2767 13.3366 10.0432 13.3822C9.72152 13.445 9.49922 13.724 9.49922 14.0404V28.2167C9.49922 28.4614 9.3009 28.6597 9.05624 28.6597H7.35906C7.14677 28.6597 6.97461 28.4876 6.97461 28.2752V21.6344C6.97461 21.2775 6.70534 20.9659 6.34924 20.9428C5.95901 20.9176 5.63459 21.2266 5.63459 21.6114V28.2752C5.63459 28.4875 5.4625 28.6596 5.25014 28.6596H3.55289C3.3083 28.6596 3.10998 28.4613 3.10998 28.2167V20.5256C3.10998 20.1556 2.81016 19.8555 2.44011 19.8556C1.91785 19.8557 1.49292 19.4308 1.49292 18.9085V13.9287C1.49292 11.2558 3.67998 9.04778 6.35277 9.06943C8.48348 9.08664 10.4598 10.2442 11.516 12.0982C12.0074 12.9609 12.9316 13.4858 13.9245 13.4858H14.8617C15.3222 13.4858 15.7253 13.8269 15.7684 14.2854C15.8179 14.8114 15.4037 15.2555 14.8876 15.2555H14.3889V15.2556ZM28.5071 18.9083C28.5071 19.4306 28.0821 19.8556 27.5597 19.8554C27.1897 19.8554 26.8899 20.1555 26.8899 20.5255V28.2171C26.8899 28.4617 26.6917 28.66 26.4471 28.66H24.7496C24.5373 28.66 24.3651 28.4879 24.3651 28.2755V21.6344C24.3651 21.2775 24.0958 20.9659 23.7396 20.9428C23.3494 20.9176 23.0251 21.2266 23.0251 21.6114V28.2756C23.0251 28.4879 22.853 28.66 22.6406 28.66H20.9437C20.6991 28.66 20.5008 28.4618 20.5008 28.2172V14.0644C20.5008 13.8148 20.3748 13.5751 20.1562 13.4546C19.8777 13.3012 19.5378 13.3634 19.3317 13.5936C18.8612 14.1189 18.2949 14.532 17.6484 14.8212C17.4378 14.9154 17.2225 14.9928 17.0039 15.0565C17.0741 14.8404 17.1125 14.61 17.1125 14.3708C17.1125 14.0098 17.0255 13.669 16.8723 13.3672C17.5461 13.1648 18.1319 12.712 18.4911 12.0858C19.5566 10.2252 21.5506 9.06943 23.695 9.06943C24.98 9.06943 26.1884 9.56983 27.0975 10.4782C28.0065 11.3872 28.5071 12.5955 28.5071 13.8808V18.9083H28.5071Z" fill="#3E1A79"/>
</svg>
