<svg width="24" height="24" viewBox="0 0 24 24" fill="none" xmlns="http://www.w3.org/2000/svg">
<g clip-path="url(#clip0_231_2221)">
<path d="M12 23.9989C18.6274 23.9989 24 18.6266 24 11.9995C24 5.37234 18.6274 0 12 0C5.37258 0 0 5.37234 0 11.9995C0 18.6266 5.37258 23.9989 12 23.9989Z" fill="url(#paint0_linear_231_2221)"/>
<path fill-rule="evenodd" clip-rule="evenodd" d="M5.43203 11.873C8.93026 10.3488 11.263 9.34401 12.4301 8.85858C15.7627 7.47248 16.4552 7.23168 16.9065 7.22372C17.0057 7.22198 17.2277 7.24659 17.3715 7.36326C17.5847 7.53633 17.586 7.91198 17.5623 8.16061C17.3817 10.0581 16.6003 14.6628 16.2027 16.788C16.0345 17.6872 15.7033 17.9888 15.3827 18.0183C14.6858 18.0824 14.1566 17.5577 13.4817 17.1153C12.4255 16.423 11.8289 15.992 10.8037 15.3165C9.6189 14.5357 10.3869 14.1066 11.0621 13.4053C11.2389 13.2218 14.3092 10.429 14.3687 10.1757C14.3761 10.144 14.383 10.0259 14.3128 9.96351C14.2427 9.90117 14.1391 9.92245 14.0644 9.93942C13.9584 9.96347 12.2712 11.0787 9.00273 13.285C8.52381 13.6139 8.09003 13.7741 7.70139 13.7657C7.2729 13.7565 6.44875 13.5234 5.83604 13.3243C5.08454 13.08 4.48726 12.9508 4.53929 12.536C4.56639 12.3198 4.86395 12.0989 5.43203 11.873Z" fill="white"/>
</g>
<defs>
<linearGradient id="paint0_linear_231_2221" x1="12" y1="0" x2="12" y2="23.8114" gradientUnits="userSpaceOnUse">
<stop stop-color="#2AABEE"/>
<stop offset="1" stop-color="#229ED9"/>
</linearGradient>
<clipPath id="clip0_231_2221">
<rect width="24" height="23.9989" fill="white"/>
</clipPath>
</defs>
</svg>
