<svg width="24" height="24" viewBox="0 0 24 24" fill="none" xmlns="http://www.w3.org/2000/svg">
<g clip-path="url(#clip0_231_2225)">
<path d="M12 0C5.3736 0 0 5.37335 0 11.9995C0 18.6256 5.3736 23.9989 12 23.9989C18.6264 23.9989 24 18.6256 24 11.9995C24 5.37335 18.6264 0 12 0ZM12.2543 18.9859C12.2542 18.9859 12.2545 18.9859 12.2543 18.9859H12.2514C11.0493 18.9853 9.8681 18.684 8.81909 18.112L5.01178 19.1104L6.03076 15.3899C5.40216 14.3012 5.07147 13.066 5.07202 11.8006C5.07367 7.84205 8.29559 4.62156 12.2543 4.62156C14.1755 4.62229 15.9789 5.37006 17.3348 6.72699C18.6909 8.08411 19.4372 9.88798 19.4365 11.8063C19.4348 15.765 16.2125 18.9859 12.2543 18.9859Z" fill="#03F10D"/>
<path d="M12.2563 5.83423C8.96356 5.83423 6.28564 8.51105 6.28418 11.8015C6.28381 12.929 6.59949 14.0271 7.19696 14.9772L7.33887 15.203L6.73572 17.4052L8.99506 16.8127L9.21314 16.942C10.1296 17.4858 11.1802 17.7734 12.2514 17.7738H12.2538C15.544 17.7738 18.2219 15.0968 18.2234 11.8062C18.2239 10.2115 17.6036 8.71228 16.4766 7.58435C15.3495 6.45642 13.8506 5.83478 12.2563 5.83423ZM15.7676 14.3671C15.618 14.7861 14.9011 15.1686 14.5563 15.2202C14.2471 15.2664 13.856 15.2856 13.426 15.1492C13.1653 15.0664 12.8311 14.956 12.4028 14.7712C10.6027 13.9941 9.427 12.1821 9.33728 12.0624C9.24756 11.9426 8.60449 11.0895 8.60449 10.2064C8.60449 9.32349 9.06812 8.88934 9.23254 8.7099C9.39716 8.53027 9.59161 8.48541 9.71118 8.48541C9.83075 8.48541 9.9505 8.48651 10.0551 8.49164C10.1653 8.49713 10.3132 8.44971 10.4588 8.79962C10.6084 9.15887 10.9673 10.0418 11.0121 10.1315C11.057 10.2214 11.0869 10.3262 11.0272 10.4459C10.9673 10.5657 10.7684 10.824 10.5786 11.0595C10.4989 11.1582 10.3951 11.2461 10.4998 11.4257C10.6044 11.6052 10.9647 12.1927 11.4981 12.6685C12.1837 13.2797 12.7619 13.469 12.9413 13.5589C13.1206 13.6486 13.2253 13.6336 13.3301 13.514C13.4346 13.3943 13.7787 12.9902 13.8983 12.8105C14.0178 12.6309 14.1376 12.6609 14.302 12.7208C14.4666 12.7805 15.3488 13.2147 15.5283 13.3044C15.7077 13.3943 15.8273 13.4391 15.8721 13.514C15.9172 13.5889 15.9172 13.948 15.7676 14.3671Z" fill="#03F10D"/>
</g>
<defs>
<clipPath id="clip0_231_2225">
<rect width="24" height="23.9989" fill="white"/>
</clipPath>
</defs>
</svg>
