<svg width="273" height="264" viewBox="0 0 273 264" fill="none" xmlns="http://www.w3.org/2000/svg">
<g clip-path="url(#clip0_384_2424)">
<path d="M209 240C202.373 240 197 245.372 197 251.999C197 258.627 202.373 263.999 209 263.999C215.627 263.999 221 258.627 221 251.999C221 245.372 215.627 240 209 240Z" fill="white"/>
<path d="M209 240C202.373 240 197 245.372 197 251.999C197 258.627 202.373 263.999 209 263.999C215.627 263.999 221 258.627 221 251.999C221 245.372 215.627 240 209 240ZM216.042 256.384L213.972 256.412C213.972 256.412 213.527 256.501 212.943 256.097C212.167 255.565 211.438 254.183 210.87 254.36C210.301 254.537 210.311 255.781 210.311 255.781C210.312 255.927 210.268 256.069 210.183 256.188C210.063 256.291 209.916 256.355 209.76 256.373H208.842C208.842 256.373 206.79 256.495 204.997 254.622C203.027 252.588 201.292 248.526 201.292 248.526C201.292 248.526 201.189 248.29 201.301 248.131C201.398 247.994 201.636 247.979 201.756 247.973C202.274 247.949 203.831 247.959 203.831 247.959C203.961 247.956 204.048 247.963 204.21 248.033C204.348 248.102 204.453 248.204 204.521 248.368C204.76 248.964 205.038 249.544 205.353 250.105C206.278 251.704 206.709 252.053 207.023 251.883C207.48 251.633 207.339 249.623 207.339 249.623C207.339 249.623 207.339 248.892 207.108 248.569C206.935 248.366 206.69 248.238 206.425 248.21C206.3 248.193 206.505 247.904 206.771 247.774C207.169 247.579 207.873 247.579 208.703 247.579C209.069 247.565 209.434 247.602 209.79 247.689C210.554 247.874 210.295 248.584 210.295 250.293C210.295 250.839 210.195 251.609 210.59 251.872C210.761 251.98 211.174 251.887 212.213 250.125C212.545 249.542 212.832 248.935 213.074 248.31C213.12 248.21 213.191 248.124 213.279 248.059C213.372 248.012 213.477 247.994 213.581 248.006L215.911 247.991C215.911 247.991 216.611 247.907 216.724 248.224C216.838 248.542 216.462 249.329 215.51 250.593C213.947 252.677 213.773 252.487 215.071 253.686C216.311 254.837 216.568 255.397 216.611 255.467C217.125 256.316 216.042 256.384 216.042 256.384V256.384Z" fill="#4C75A3"/>
</g>
<g clip-path="url(#clip1_384_2424)">
<path d="M239 236.999C245.627 236.999 251 231.627 251 224.999C251 218.372 245.627 213 239 213C232.373 213 227 218.372 227 224.999C227 231.627 232.373 236.999 239 236.999Z" fill="url(#paint0_linear_384_2424)"/>
<path fill-rule="evenodd" clip-rule="evenodd" d="M232.432 224.873C235.93 223.349 238.263 222.344 239.43 221.859C242.763 220.472 243.455 220.232 243.906 220.224C244.006 220.222 244.228 220.247 244.371 220.363C244.585 220.536 244.586 220.912 244.562 221.161C244.382 223.058 243.6 227.663 243.203 229.788C243.034 230.687 242.703 230.989 242.383 231.018C241.686 231.082 241.157 230.558 240.482 230.115C239.426 229.423 238.829 228.992 237.804 228.316C236.619 227.536 237.387 227.107 238.062 226.405C238.239 226.222 241.309 223.429 241.369 223.176C241.376 223.144 241.383 223.026 241.313 222.964C241.243 222.901 241.139 222.922 241.064 222.939C240.958 222.963 239.271 224.079 236.003 226.285C235.524 226.614 235.09 226.774 234.701 226.766C234.273 226.756 233.449 226.523 232.836 226.324C232.085 226.08 231.487 225.951 231.539 225.536C231.566 225.32 231.864 225.099 232.432 224.873V224.873Z" fill="white"/>
</g>
<g clip-path="url(#clip2_384_2424)">
<path d="M261 175C254.374 175 249 180.373 249 186.999C249 193.626 254.374 198.999 261 198.999C267.626 198.999 273 193.626 273 186.999C273 180.373 267.626 175 261 175ZM261.254 193.986C261.254 193.986 261.255 193.986 261.254 193.986H261.251C260.049 193.985 258.868 193.684 257.819 193.112L254.012 194.11L255.031 190.39C254.402 189.301 254.071 188.066 254.072 186.801C254.074 182.842 257.296 179.622 261.254 179.622C263.175 179.622 264.979 180.37 266.335 181.727C267.691 183.084 268.437 184.888 268.436 186.806C268.435 190.765 265.213 193.986 261.254 193.986V193.986Z" fill="#03F10D"/>
<path d="M261.256 180.834C257.964 180.834 255.286 183.511 255.284 186.801C255.284 187.929 255.599 189.027 256.197 189.977L256.339 190.203L255.736 192.405L257.995 191.813L258.213 191.942C259.13 192.486 260.18 192.773 261.251 192.774H261.254C264.544 192.774 267.222 190.097 267.223 186.806C267.224 185.212 266.604 183.712 265.477 182.584C264.35 181.456 262.851 180.835 261.256 180.834V180.834ZM264.768 189.367C264.618 189.786 263.901 190.169 263.556 190.22C263.247 190.266 262.856 190.286 262.426 190.149C262.165 190.066 261.831 189.956 261.403 189.771C259.603 188.994 258.427 187.182 258.337 187.062C258.248 186.943 257.604 186.09 257.604 185.206C257.604 184.323 258.068 183.889 258.233 183.71C258.397 183.53 258.592 183.485 258.711 183.485C258.831 183.485 258.951 183.487 259.055 183.492C259.165 183.497 259.313 183.45 259.459 183.8C259.608 184.159 259.967 185.042 260.012 185.132C260.057 185.221 260.087 185.326 260.027 185.446C259.967 185.566 259.768 185.824 259.579 186.06C259.499 186.158 259.395 186.246 259.5 186.426C259.604 186.605 259.965 187.193 260.498 187.668C261.184 188.28 261.762 188.469 261.941 188.559C262.121 188.649 262.225 188.634 262.33 188.514C262.435 188.394 262.779 187.99 262.898 187.811C263.018 187.631 263.138 187.661 263.302 187.721C263.467 187.781 264.349 188.215 264.528 188.304C264.708 188.394 264.827 188.439 264.872 188.514C264.917 188.589 264.917 188.948 264.768 189.367V189.367Z" fill="#03F10D"/>
</g>
<path d="M131 257C200.036 257 256 201.036 256 132C256 132 255.5 180.952 219 218C182.5 255.048 131 257 131 257Z" fill="url(#paint1_linear_384_2424)"/>
<circle cx="125" cy="125" r="125" fill="url(#paint2_linear_384_2424)" fill-opacity="0.87"/>
<defs>
<linearGradient id="paint0_linear_384_2424" x1="239" y1="213" x2="239" y2="236.811" gradientUnits="userSpaceOnUse">
<stop stop-color="#2AABEE"/>
<stop offset="1" stop-color="#229ED9"/>
</linearGradient>
<linearGradient id="paint1_linear_384_2424" x1="193.5" y1="132" x2="193.5" y2="257" gradientUnits="userSpaceOnUse">
<stop stop-color="#3E1A79"/>
<stop offset="1" stop-color="#791A6A"/>
</linearGradient>
<linearGradient id="paint2_linear_384_2424" x1="125" y1="0" x2="125" y2="250" gradientUnits="userSpaceOnUse">
<stop stop-color="#3E1A79"/>
<stop offset="1" stop-color="#791A6A"/>
</linearGradient>
<clipPath id="clip0_384_2424">
<rect width="24" height="23.9989" fill="white" transform="translate(197 240)"/>
</clipPath>
<clipPath id="clip1_384_2424">
<rect width="24" height="23.9989" fill="white" transform="translate(227 213)"/>
</clipPath>
<clipPath id="clip2_384_2424">
<rect width="24" height="23.9989" fill="white" transform="translate(249 175)"/>
</clipPath>
</defs>
</svg>
