<svg width="24" height="24" viewBox="0 0 24 24" fill="none" xmlns="http://www.w3.org/2000/svg">
<g clip-path="url(#clip0_231_2216)">
<path d="M12 0C5.37258 0 0 5.37234 0 11.9995C0 18.6266 5.37258 23.9989 12 23.9989C18.6274 23.9989 24 18.6266 24 11.9995C24 5.37234 18.6274 0 12 0Z" fill="white"/>
<path d="M12 0C5.37258 0 0 5.37234 0 11.9995C0 18.6266 5.37258 23.9989 12 23.9989C18.6274 23.9989 24 18.6266 24 11.9995C24 5.37234 18.6274 0 12 0ZM19.0421 16.384L16.9721 16.4124C16.9721 16.4124 16.5269 16.5008 15.9427 16.0966C15.1674 15.5645 14.4379 14.183 13.8695 14.3598C13.3011 14.5366 13.3106 15.7808 13.3106 15.7808C13.3124 15.9268 13.2676 16.0695 13.1827 16.1882C13.0632 16.2906 12.9158 16.3549 12.7596 16.3729H11.8422C11.8422 16.3729 9.78956 16.4945 7.99744 14.6219C6.02691 12.5884 4.29164 8.5259 4.29164 8.5259C4.29164 8.5259 4.18945 8.29027 4.30111 8.13118C4.39762 7.99366 4.63566 7.97889 4.75584 7.97331C5.27395 7.94908 6.83058 7.95911 6.83058 7.95911C6.9608 7.95588 7.04831 7.96272 7.20952 8.03331C7.34808 8.10179 7.45317 8.20379 7.52058 8.36803C7.76006 8.96434 8.03803 9.54449 8.3527 10.1048C9.27797 11.7042 9.70903 12.0531 10.0232 11.8826C10.4796 11.6331 10.339 9.62324 10.339 9.62324C10.339 9.62324 10.339 8.89221 10.1085 8.56855C9.93497 8.36583 9.69023 8.23753 9.42483 8.21016C9.30009 8.19277 9.50536 7.90385 9.77063 7.77438C10.1685 7.5786 10.8728 7.5786 11.7032 7.5786C12.0687 7.56482 12.4343 7.60203 12.7896 7.68912C13.5538 7.87385 13.2948 8.58435 13.2948 10.2927C13.2948 10.839 13.1954 11.6095 13.5901 11.8715C13.7606 11.9805 14.1743 11.8873 15.2132 10.1253C15.5447 9.54219 15.8323 8.93533 16.0738 8.30958C16.1203 8.21011 16.1908 8.12387 16.279 8.05853C16.3723 8.01208 16.4772 7.99398 16.5806 8.0064L18.9112 7.99061C18.9112 7.99061 19.6106 7.90694 19.7243 8.22427C19.838 8.54165 19.4622 9.32948 18.5101 10.5926C16.947 12.6767 16.7732 12.4872 18.0712 13.6856C19.3106 14.8366 19.568 15.3971 19.6106 15.4666C20.1253 16.3161 19.0421 16.384 19.0421 16.384Z" fill="#4C75A3"/>
</g>
<defs>
<clipPath id="clip0_231_2216">
<rect width="24" height="23.9989" fill="white"/>
</clipPath>
</defs>
</svg>
