<svg width="19" height="19" viewBox="0 0 19 19" fill="none" xmlns="http://www.w3.org/2000/svg">
<g clip-path="url(#clip0_177_1256)">
<path d="M9.50043 0C4.25429 0 0 4.2541 0 9.5C0 14.7459 4.25429 19 9.50043 19C14.7466 19 19.0009 14.7459 19.0009 9.5C19.0009 4.2541 14.7466 0 9.50043 0ZM9.70179 15.0312C9.70164 15.0312 9.70193 15.0312 9.70179 15.0312H9.69947C8.74777 15.0307 7.8126 14.7921 6.9821 14.3393L3.96784 15.1298L4.77457 12.1842C4.2769 11.3223 4.0151 10.3444 4.01553 9.34258C4.01684 6.20857 6.56764 3.6589 9.70179 3.6589C11.2228 3.65948 12.6505 4.25149 13.724 5.32578C14.7976 6.40021 15.3885 7.82834 15.3879 9.34707C15.3866 12.4812 12.8355 15.0312 9.70179 15.0312V15.0312Z" fill="#03F10D"/>
<path d="M9.70279 4.61896C7.09588 4.61896 4.97577 6.7382 4.97461 9.34322C4.97432 10.2359 5.22424 11.1053 5.69726 11.8575L5.80961 12.0362L5.33209 13.7797L7.12082 13.3106L7.29347 13.413C8.01902 13.8435 8.85083 14.0713 9.69888 14.0715H9.70076C12.3056 14.0715 14.4258 11.9522 14.4269 9.34699C14.4273 8.08449 13.9362 6.89752 13.0439 6.00453C12.1517 5.11155 10.965 4.61939 9.70279 4.61896ZM12.4826 11.3745C12.3642 11.7062 11.7967 12.009 11.5237 12.0499C11.2788 12.0864 10.9692 12.1016 10.6288 11.9936C10.4224 11.9281 10.1578 11.8407 9.81876 11.6944C8.39361 11.0792 7.46279 9.64461 7.39176 9.5498C7.32072 9.45499 6.81161 8.7796 6.81161 8.08043C6.81161 7.38141 7.17866 7.0377 7.30884 6.89563C7.43916 6.75342 7.59311 6.71791 7.68778 6.71791C7.78244 6.71791 7.87724 6.71878 7.96002 6.72284C8.04729 6.72718 8.16442 6.68964 8.27967 6.96667C8.3981 7.25109 8.68224 7.95011 8.71775 8.02114C8.75327 8.09232 8.7769 8.17524 8.72964 8.27005C8.68224 8.36485 8.5248 8.5694 8.37448 8.75582C8.31142 8.83396 8.22922 8.90354 8.31214 9.04575C8.39492 9.18782 8.68021 9.65301 9.10249 10.0296C9.64524 10.5135 10.103 10.6634 10.2451 10.7346C10.387 10.8056 10.4699 10.7937 10.5529 10.6991C10.6356 10.6043 10.908 10.2843 11.0027 10.1421C11.0974 9.99991 11.1922 10.0237 11.3223 10.0711C11.4527 10.1184 12.1511 10.4621 12.2932 10.5331C12.4352 10.6043 12.5299 10.6398 12.5654 10.6991C12.6011 10.7584 12.6011 11.0426 12.4826 11.3745Z" fill="#03F10D"/>
</g>
<defs>
<clipPath id="clip0_177_1256">
<rect width="19.0009" height="19" fill="white"/>
</clipPath>
</defs>
</svg>
