<svg width="94" height="66" viewBox="0 0 94 66" fill="none" xmlns="http://www.w3.org/2000/svg">
<path d="M91.8944 10.5677C90.8141 6.5514 87.6475 3.38539 83.6318 2.30392C76.2955 0.296631 46.95 0.296631 46.95 0.296631C46.95 0.296631 17.6057 0.296631 10.2694 2.22782C6.33094 3.30814 3.08711 6.55197 2.00679 10.5677C0.0761719 17.9034 0.0761719 33.1166 0.0761719 33.1166C0.0761719 33.1166 0.0761719 48.4064 2.00679 55.6654C3.08826 59.6812 6.25369 62.8472 10.27 63.9286C17.6829 65.9365 46.9512 65.9365 46.9512 65.9365C46.9512 65.9365 76.2955 65.9365 83.6318 64.0053C87.6481 62.9244 90.8141 59.7584 91.8955 55.7427C93.8256 48.4064 93.8256 33.1938 93.8256 33.1938C93.8256 33.1938 93.9028 17.9034 91.8944 10.5677ZM37.6071 47.1711V19.0621L62.0093 33.1166L37.6071 47.1711Z" fill="white" fill-opacity="0.7"/>
</svg>
